<svg width="375" height="200" viewBox="0 0 375 200" xmlns="http://www.w3.org/2000/svg"><mask id="satori_om-id"><rect x="0" y="0" width="375" height="123" fill="#fff"/></mask><clipPath id="satori_cp-id-0"><path x="0" y="0" width="375" height="8" d="M4,0 h367 a4,4 0 0 1 4,4 v0 a4,4 0 0 1 -4,4 h-367 a4,4 0 0 1 -4,-4 v0 a4,4 0 0 1 4,-4"/></clipPath><mask id="satori_om-id-0"><rect x="0" y="0" width="375" height="8" fill="#fff"/></mask><mask id="satori_om-id-0-0"><rect x="0" y="0" width="185" height="8" fill="#fff" mask="url(#satori_om-id-0)"/></mask><rect x="0" y="0" width="185" height="8" fill="#3572A5" clip-path="url(#satori_cp-id-0)" mask="url(#satori_om-id-0)"/><mask id="satori_om-id-0-1"><rect x="185" y="0" width="49" height="8" fill="#fff" mask="url(#satori_om-id-0)"/></mask><rect x="185" y="0" width="49" height="8" fill="#f1e05a" clip-path="url(#satori_cp-id-0)" mask="url(#satori_om-id-0)"/><mask id="satori_om-id-0-2"><rect x="234" y="0" width="45" height="8" fill="#fff" mask="url(#satori_om-id-0)"/></mask><rect x="234" y="0" width="45" height="8" fill="#3178c6" clip-path="url(#satori_cp-id-0)" mask="url(#satori_om-id-0)"/><mask id="satori_om-id-0-3"><rect x="279" y="0" width="29" height="8" fill="#fff" mask="url(#satori_om-id-0)"/></mask><rect x="279" y="0" width="29" height="8" fill="#00ADD8" clip-path="url(#satori_cp-id-0)" mask="url(#satori_om-id-0)"/><mask id="satori_om-id-0-4"><rect x="308" y="0" width="24" height="8" fill="#fff" mask="url(#satori_om-id-0)"/></mask><rect x="308" y="0" width="24" height="8" fill="#e34c26" clip-path="url(#satori_cp-id-0)" mask="url(#satori_om-id-0)"/><mask id="satori_om-id-0-5"><rect x="332" y="0" width="21" height="8" fill="#fff" mask="url(#satori_om-id-0)"/></mask><rect x="332" y="0" width="21" height="8" fill="#663399" clip-path="url(#satori_cp-id-0)" mask="url(#satori_om-id-0)"/><mask id="satori_om-id-0-6"><rect x="353" y="0" width="13" height="8" fill="#fff" mask="url(#satori_om-id-0)"/></mask><rect x="353" y="0" width="13" height="8" fill="#dea584" clip-path="url(#satori_cp-id-0)" mask="url(#satori_om-id-0)"/><mask id="satori_om-id-0-7"><rect x="366" y="0" width="5" height="8" fill="#fff" mask="url(#satori_om-id-0)"/></mask><rect x="366" y="0" width="5" height="8" fill="#336790" clip-path="url(#satori_cp-id-0)" mask="url(#satori_om-id-0)"/><mask id="satori_om-id-0-8"><rect x="371" y="0" width="4" height="8" fill="#fff" mask="url(#satori_om-id-0)"/></mask><rect x="371" y="0" width="4" height="8" fill="#384d54" clip-path="url(#satori_cp-id-0)" mask="url(#satori_om-id-0)"/><mask id="satori_om-id-1"><rect x="0" y="18" width="375" height="105" fill="#fff"/></mask><mask id="satori_om-id-1-0"><rect x="0" y="18" width="132" height="19" fill="#fff"/></mask><mask id="satori_om-id-1-0-0"><rect x="0" y="19" width="16" height="16" fill="#fff"/></mask><mask id="satori_om-id-1-0-0-0"><rect x="4" y="23" width="8" height="8" fill="#fff"/></mask><path x="4" y="23" width="8" height="8" fill="#3572A5" d="M8,23 h0 a4,4 0 0 1 4,4 v0 a4,4 0 0 1 -4,4 h0 a4,4 0 0 1 -4,-4 v0 a4,4 0 0 1 4,-4"/><mask id="satori_om-id-1-0-1"><rect x="29" y="18" width="51" height="19" fill="#fff"/></mask><path fill="#fff" d="M34.4 28.8L32.4 28.8L32.4 32.8L30.0 32.8L30.0 21.5L34.5 21.5Q35.7 21.5 36.7 21.9Q37.7 22.4 38.2 23.3Q38.7 24.1 38.7 25.2L38.7 25.2Q38.7 26.9 37.6 27.9Q36.4 28.8 34.4 28.8L34.4 28.8ZM32.4 23.4L32.4 26.9L34.5 26.9Q35.4 26.9 35.9 26.5Q36.4 26.1 36.4 25.3L36.4 25.3Q36.4 24.4 35.9 23.9Q35.4 23.4 34.5 23.4L34.5 23.4L32.4 23.4ZM41.9 24.4L43.5 29.6L45.0 24.4L47.4 24.4L44.0 34.2L43.9 34.6Q43.1 36.3 41.4 36.3L41.4 36.3Q40.9 36.3 40.4 36.1L40.4 36.1L40.4 34.4L40.7 34.4Q41.3 34.4 41.7 34.2Q42.0 34.0 42.2 33.6L42.2 33.6L42.4 32.9L39.5 24.4L41.9 24.4ZM48.8 22.3L51.0 22.3L51.0 24.4L52.5 24.4L52.5 26.0L51.0 26.0L51.0 30.3Q51.0 30.7 51.2 30.9Q51.4 31.1 51.9 31.1L51.9 31.1Q52.3 31.1 52.6 31.1L52.6 31.1L52.6 32.8Q51.9 33 51.2 33L51.2 33Q48.8 33 48.8 30.6L48.8 30.6L48.8 26.0L47.5 26.0L47.5 24.4L48.8 24.4L48.8 22.3ZM55.9 20.8L55.9 25.3Q56.8 24.2 58.2 24.2L58.2 24.2Q61.0 24.2 61.0 27.4L61.0 27.4L61.0 32.8L58.7 32.8L58.7 27.5Q58.7 26.8 58.4 26.4Q58.1 26.1 57.4 26.1L57.4 26.1Q56.4 26.1 55.9 26.8L55.9 26.8L55.9 32.8L53.7 32.8L53.7 20.8L55.9 20.8ZM62.3 28.6L62.3 28.5Q62.3 27.3 62.8 26.3Q63.3 25.3 64.2 24.8Q65.1 24.2 66.3 24.2L66.3 24.2Q68.0 24.2 69.1 25.3Q70.2 26.3 70.3 28.1L70.3 28.1L70.4 28.7Q70.4 30.6 69.3 31.8Q68.2 33 66.4 33Q64.5 33 63.4 31.8Q62.3 30.7 62.3 28.6L62.3 28.6ZM64.6 28.7L64.6 28.7Q64.6 29.9 65.1 30.5Q65.5 31.2 66.4 31.2L66.4 31.2Q67.2 31.2 67.6 30.6Q68.1 29.9 68.1 28.5L68.1 28.5Q68.1 27.4 67.6 26.7Q67.2 26.1 66.3 26.1L66.3 26.1Q65.5 26.1 65.1 26.7Q64.6 27.4 64.6 28.7ZM71.7 24.4L73.8 24.4L73.9 25.4Q74.8 24.2 76.3 24.2L76.3 24.2Q77.7 24.2 78.3 25.0Q79.0 25.8 79.0 27.4L79.0 27.4L79.0 32.8L76.7 32.8L76.7 27.4Q76.7 26.7 76.4 26.4Q76.1 26.1 75.4 26.1L75.4 26.1Q74.4 26.1 74.0 26.9L74.0 26.9L74.0 32.8L71.7 32.8L71.7 24.4Z "/><mask id="satori_om-id-1-0-2"><rect x="89" y="18" width="43" height="19" fill="#fff"/></mask><path fill="#7d8590" d="M96.0 21.5L96.0 29.0L97.6 29.0L97.6 30.2L96.0 30.2L96.0 32.8L94.6 32.8L94.6 30.2L89.4 30.2L89.4 29.4L94.5 21.5L96.0 21.5ZM94.4 23.8L91.1 29.0L94.6 29.0L94.6 23.4L94.4 23.8ZM104.5 27.8L104.5 27.8Q104.0 28.4 103.4 28.7Q102.8 29.0 102.0 29.0L102.0 29.0Q101.0 29.0 100.3 28.6Q99.6 28.1 99.2 27.2Q98.8 26.3 98.8 25.3L98.8 25.3Q98.8 24.1 99.2 23.2Q99.6 22.3 100.4 21.8Q101.2 21.3 102.3 21.3L102.3 21.3Q104.0 21.3 104.9 22.6Q105.9 23.8 105.9 26.0L105.9 26.0L105.9 26.4Q105.9 29.8 104.6 31.3Q103.3 32.8 100.6 32.9L100.6 32.9L100.4 32.9L100.4 31.6L100.7 31.6Q102.5 31.6 103.4 30.7Q104.4 29.8 104.5 27.8ZM102.2 27.8L102.2 27.8Q103.0 27.8 103.6 27.4Q104.2 27.0 104.5 26.3L104.5 26.3L104.5 25.7Q104.5 24.3 103.9 23.4Q103.2 22.5 102.3 22.5L102.3 22.5Q101.3 22.5 100.8 23.2Q100.2 24.0 100.2 25.2L100.2 25.2Q100.2 26.3 100.7 27.1Q101.3 27.8 102.2 27.8ZM108.1 32.1L108.1 32.1Q108.1 31.7 108.3 31.5Q108.5 31.2 109.0 31.2Q109.4 31.2 109.7 31.5Q109.9 31.7 109.9 32.1L109.9 32.1Q109.9 32.4 109.7 32.7Q109.4 32.9 109.0 32.9Q108.5 32.9 108.3 32.7Q108.1 32.4 108.1 32.1ZM118.2 21.5L118.2 29.0L119.8 29.0L119.8 30.2L118.2 30.2L118.2 32.8L116.8 32.8L116.8 30.2L111.6 30.2L111.6 29.4L116.7 21.5L118.2 21.5ZM116.6 23.8L113.2 29.0L116.8 29.0L116.8 23.4L116.6 23.8ZM121.0 24.2L121.0 23.7Q121.0 22.6 121.6 22.0Q122.3 21.3 123.3 21.3L123.3 21.3Q124.4 21.3 125.0 22.0Q125.6 22.6 125.6 23.7L125.6 23.7L125.6 24.3Q125.6 25.3 125.0 25.9Q124.3 26.6 123.3 26.6L123.3 26.6Q122.3 26.6 121.6 25.9Q121.0 25.3 121.0 24.2L121.0 24.2ZM122.1 23.7L122.1 24.3Q122.1 24.9 122.4 25.3Q122.8 25.7 123.3 25.7L123.3 25.7Q123.9 25.7 124.2 25.3Q124.6 24.9 124.6 24.2L124.6 24.2L124.6 23.7Q124.6 23.0 124.2 22.6Q123.9 22.3 123.3 22.3Q122.7 22.3 122.4 22.6Q122.1 23.0 122.1 23.7L122.1 23.7ZM126.5 30.6L126.5 30.1Q126.5 29.0 127.2 28.4Q127.8 27.7 128.9 27.7Q129.9 27.7 130.5 28.4Q131.2 29.0 131.2 30.1L131.2 30.1L131.2 30.7Q131.2 31.7 130.5 32.3Q129.9 33.0 128.9 33.0Q127.9 33.0 127.2 32.4Q126.5 31.7 126.5 30.6L126.5 30.6ZM127.6 30.1L127.6 30.7Q127.6 31.3 127.9 31.7Q128.3 32.1 128.9 32.1L128.9 32.1Q129.4 32.1 129.8 31.7Q130.1 31.3 130.1 30.6L130.1 30.6L130.1 30.1Q130.1 29.4 129.8 29.0Q129.4 28.7 128.9 28.7L128.9 28.7Q128.3 28.7 127.9 29.0Q127.6 29.4 127.6 30.1L127.6 30.1ZM129.2 23.1L123.7 32.0L122.8 31.5L128.4 22.6L129.2 23.1Z "/><mask id="satori_om-id-1-1"><rect x="142" y="18" width="158" height="19" fill="#fff"/></mask><mask id="satori_om-id-1-1-0"><rect x="142" y="19" width="16" height="16" fill="#fff"/></mask><mask id="satori_om-id-1-1-0-0"><rect x="146" y="23" width="8" height="8" fill="#fff"/></mask><path x="146" y="23" width="8" height="8" fill="#f1e05a" d="M150,23 h0 a4,4 0 0 1 4,4 v0 a4,4 0 0 1 -4,4 h0 a4,4 0 0 1 -4,-4 v0 a4,4 0 0 1 4,-4"/><mask id="satori_om-id-1-1-1"><rect x="171" y="18" width="77" height="19" fill="#fff"/></mask><path fill="#fff" d="M176.6 29.3L176.6 21.5L178.9 21.5L178.9 29.3Q178.9 30.4 178.5 31.3Q178.0 32.1 177.1 32.5Q176.2 33 175.1 33L175.1 33Q173.3 33 172.3 32.1Q171.3 31.2 171.3 29.5L171.3 29.5L173.7 29.5Q173.7 30.3 174.0 30.7Q174.4 31.1 175.1 31.1L175.1 31.1Q175.8 31.1 176.2 30.7Q176.6 30.2 176.6 29.3L176.6 29.3ZM188.0 32.8L185.7 32.8Q185.5 32.5 185.5 32.1L185.5 32.1Q184.7 33 183.3 33L183.3 33Q182.1 33 181.3 32.3Q180.5 31.6 180.5 30.5L180.5 30.5Q180.5 29.1 181.5 28.4Q182.5 27.7 184.3 27.7L184.3 27.7L185.4 27.7L185.4 27.2Q185.4 26.6 185.1 26.3Q184.8 25.9 184.1 25.9L184.1 25.9Q183.6 25.9 183.2 26.2Q182.9 26.5 182.9 26.9L182.9 26.9L180.7 26.9Q180.7 26.2 181.1 25.6Q181.6 24.9 182.4 24.6Q183.2 24.2 184.3 24.2L184.3 24.2Q185.8 24.2 186.7 25.0Q187.6 25.8 187.6 27.2L187.6 27.2L187.6 30.9Q187.7 32.1 188.0 32.7L188.0 32.7L188.0 32.8ZM183.8 31.3L183.8 31.3Q184.3 31.3 184.8 31.1Q185.2 30.8 185.4 30.5L185.4 30.5L185.4 29L184.5 29Q182.8 29 182.7 30.2L182.7 30.2L182.7 30.3Q182.7 30.7 183.0 31Q183.3 31.3 183.8 31.3ZM190.9 24.4L192.4 30.1L194 24.4L196.4 24.4L193.5 32.8L191.4 32.8L188.5 24.4L190.9 24.4ZM204.4 32.8L202.1 32.8Q202.0 32.5 201.9 32.1L201.9 32.1Q201.1 33 199.8 33L199.8 33Q198.5 33 197.7 32.3Q196.9 31.6 196.9 30.5L196.9 30.5Q196.9 29.1 197.9 28.4Q198.9 27.7 200.8 27.7L200.8 27.7L201.8 27.7L201.8 27.2Q201.8 26.6 201.5 26.3Q201.2 25.9 200.6 25.9L200.6 25.9Q200.0 25.9 199.7 26.2Q199.3 26.5 199.3 26.9L199.3 26.9L197.1 26.9Q197.1 26.2 197.5 25.6Q198.0 24.9 198.8 24.6Q199.6 24.2 200.7 24.2L200.7 24.2Q202.2 24.2 203.2 25.0Q204.1 25.8 204.1 27.2L204.1 27.2L204.1 30.9Q204.1 32.1 204.4 32.7L204.4 32.7L204.4 32.8ZM200.3 31.3L200.3 31.3Q200.8 31.3 201.2 31.1Q201.6 30.8 201.8 30.5L201.8 30.5L201.8 29L201.0 29Q199.3 29 199.2 30.2L199.2 30.2L199.2 30.3Q199.2 30.7 199.5 31Q199.8 31.3 200.3 31.3ZM211.9 29.9L211.9 29.9Q211.9 29.2 211.4 28.8Q210.9 28.5 209.7 28.1Q208.5 27.7 207.8 27.3L207.8 27.3Q205.8 26.3 205.8 24.5L205.8 24.5Q205.8 23.6 206.4 22.8Q206.9 22.1 207.8 21.7Q208.8 21.3 210.0 21.3L210.0 21.3Q211.3 21.3 212.2 21.8Q213.2 22.2 213.7 23Q214.2 23.8 214.2 24.8L214.2 24.8L211.9 24.8Q211.9 24.0 211.4 23.6Q210.9 23.2 210.0 23.2L210.0 23.2Q209.1 23.2 208.7 23.5Q208.2 23.9 208.2 24.5L208.2 24.5Q208.2 25.1 208.7 25.4Q209.3 25.8 210.4 26.1L210.4 26.1Q212.4 26.7 213.3 27.6Q214.2 28.5 214.2 29.8L214.2 29.8Q214.2 31.3 213.1 32.2Q212.0 33 210.1 33L210.1 33Q208.8 33 207.7 32.5Q206.6 32.0 206.1 31.2Q205.5 30.4 205.5 29.3L205.5 29.3L207.8 29.3Q207.8 31.1 210.1 31.1L210.1 31.1Q210.9 31.1 211.4 30.8Q211.9 30.5 211.9 29.9ZM219.2 31.2L219.2 31.2Q219.8 31.2 220.2 30.8Q220.6 30.5 220.6 29.9L220.6 29.9L222.7 29.9Q222.7 30.8 222.2 31.5Q221.8 32.2 221.0 32.6Q220.2 33 219.2 33L219.2 33Q217.4 33 216.3 31.8Q215.3 30.7 215.3 28.7L215.3 28.7L215.3 28.5Q215.3 26.6 216.3 25.4Q217.4 24.2 219.2 24.2L219.2 24.2Q220.8 24.2 221.7 25.1Q222.7 26.0 222.7 27.5L222.7 27.5L220.6 27.5Q220.6 26.9 220.2 26.5Q219.8 26.1 219.1 26.1L219.1 26.1Q218.4 26.1 218.0 26.6Q217.6 27.2 217.6 28.5L217.6 28.5L217.6 28.7Q217.6 30.0 218.0 30.6Q218.4 31.2 219.2 31.2ZM228.8 24.3L228.7 26.5Q228.3 26.4 227.9 26.4L227.9 26.4Q226.6 26.4 226.3 27.3L226.3 27.3L226.3 32.8L224.0 32.8L224.0 24.4L226.1 24.4L226.2 25.4Q226.9 24.2 228.1 24.2L228.1 24.2Q228.4 24.2 228.8 24.3L228.8 24.3ZM232.2 24.4L232.2 32.8L229.9 32.8L229.9 24.4L232.2 24.4ZM229.8 22.2L229.8 22.2Q229.8 21.7 230.2 21.4Q230.5 21.0 231.1 21.0L231.1 21.0Q231.7 21.0 232 21.4Q232.3 21.7 232.3 22.2L232.3 22.2Q232.3 22.7 232.0 23.0Q231.6 23.4 231.1 23.4Q230.5 23.4 230.2 23.0Q229.8 22.7 229.8 22.2ZM241.7 28.6L241.7 28.7Q241.7 30.6 240.8 31.8Q239.9 33 238.4 33L238.4 33Q237.1 33 236.3 32.1L236.3 32.1L236.3 36.1L234.1 36.1L234.1 24.4L236.2 24.4L236.2 25.2Q237.1 24.2 238.4 24.2L238.4 24.2Q239.9 24.2 240.8 25.4Q241.7 26.5 241.7 28.6L241.7 28.6ZM239.4 28.5L239.4 28.5Q239.4 27.4 239.0 26.7Q238.6 26.1 237.8 26.1L237.8 26.1Q236.7 26.1 236.3 26.9L236.3 26.9L236.3 30.3Q236.7 31.2 237.8 31.2L237.8 31.2Q239.4 31.2 239.4 28.5ZM243.5 22.3L245.8 22.3L245.8 24.4L247.2 24.4L247.2 26.0L245.8 26.0L245.8 30.3Q245.8 30.7 246.0 30.9Q246.1 31.1 246.6 31.1L246.6 31.1Q247.0 31.1 247.3 31.1L247.3 31.1L247.3 32.8Q246.6 33 245.9 33L245.9 33Q243.6 33 243.5 30.6L243.5 30.6L243.5 26.0L242.3 26.0L242.3 24.4L243.5 24.4L243.5 22.3Z "/><mask id="satori_om-id-1-1-2"><rect x="257" y="18" width="43" height="19" fill="#fff"/></mask><path fill="#7d8590" d="M262.7 21.4L262.7 32.8L261.2 32.8L261.2 23.2L258.3 24.3L258.3 23.0L262.5 21.4L262.7 21.4ZM269.0 27.6L269.0 26.5L270.1 26.5Q271.1 26.4 271.7 25.9Q272.3 25.4 272.3 24.5L272.3 24.5Q272.3 22.5 270.3 22.5L270.3 22.5Q269.4 22.5 268.8 23.0Q268.3 23.6 268.3 24.5L268.3 24.5L266.8 24.5Q266.8 23.1 267.8 22.2Q268.8 21.3 270.3 21.3L270.3 21.3Q271.9 21.3 272.8 22.2Q273.8 23.0 273.8 24.5L273.8 24.5Q273.8 25.3 273.3 26.0Q272.8 26.7 272.0 27.0L272.0 27.0Q272.9 27.3 273.4 28.0Q273.9 28.7 273.9 29.7L273.9 29.7Q273.9 31.2 272.9 32.1Q271.9 33 270.3 33Q268.7 33 267.7 32.1Q266.7 31.3 266.7 29.8L266.7 29.8L268.2 29.8Q268.2 30.7 268.8 31.3Q269.3 31.8 270.3 31.8L270.3 31.8Q271.4 31.8 271.9 31.3Q272.5 30.7 272.5 29.7L272.5 29.7Q272.5 28.7 271.9 28.2Q271.3 27.6 270.1 27.6L270.1 27.6L269.0 27.6ZM276.1 32.1L276.1 32.1Q276.1 31.7 276.3 31.5Q276.5 31.2 277.0 31.2Q277.4 31.2 277.7 31.5Q277.9 31.7 277.9 32.1L277.9 32.1Q277.9 32.4 277.7 32.7Q277.4 32.9 277.0 32.9Q276.5 32.9 276.3 32.7Q276.1 32.4 276.1 32.1ZM284.9 21.4L284.9 32.8L283.4 32.8L283.4 23.2L280.5 24.3L280.5 23.0L284.6 21.4L284.9 21.4ZM289.0 24.2L289.0 23.7Q289.0 22.6 289.6 22.0Q290.3 21.3 291.3 21.3L291.3 21.3Q292.4 21.3 293.0 22.0Q293.6 22.6 293.6 23.7L293.6 23.7L293.6 24.3Q293.6 25.3 293.0 25.9Q292.3 26.6 291.3 26.6L291.3 26.6Q290.3 26.6 289.6 25.9Q289.0 25.3 289.0 24.2L289.0 24.2ZM290.1 23.7L290.1 24.3Q290.1 24.9 290.4 25.3Q290.8 25.7 291.3 25.7L291.3 25.7Q291.9 25.7 292.2 25.3Q292.6 24.9 292.6 24.2L292.6 24.2L292.6 23.7Q292.6 23.0 292.2 22.6Q291.9 22.3 291.3 22.3Q290.7 22.3 290.4 22.6Q290.1 23.0 290.1 23.7L290.1 23.7ZM294.5 30.6L294.5 30.1Q294.5 29.0 295.2 28.4Q295.8 27.7 296.9 27.7Q297.9 27.7 298.5 28.4Q299.2 29.0 299.2 30.1L299.2 30.1L299.2 30.7Q299.2 31.7 298.5 32.3Q297.9 33.0 296.9 33.0Q295.9 33.0 295.2 32.4Q294.5 31.7 294.5 30.6L294.5 30.6ZM295.6 30.1L295.6 30.7Q295.6 31.3 295.9 31.7Q296.3 32.1 296.9 32.1L296.9 32.1Q297.4 32.1 297.8 31.7Q298.1 31.3 298.1 30.6L298.1 30.6L298.1 30.1Q298.1 29.4 297.8 29.0Q297.4 28.7 296.9 28.7L296.9 28.7Q296.3 28.7 295.9 29.0Q295.6 29.4 295.6 30.1L295.6 30.1ZM297.2 23.1L291.7 32.0L290.8 31.5L296.4 22.6L297.2 23.1Z "/><mask id="satori_om-id-1-2"><rect x="0" y="47" width="160" height="19" fill="#fff"/></mask><mask id="satori_om-id-1-2-0"><rect x="0" y="48" width="16" height="16" fill="#fff"/></mask><mask id="satori_om-id-1-2-0-0"><rect x="4" y="52" width="8" height="8" fill="#fff"/></mask><path x="4" y="52" width="8" height="8" fill="#3178c6" d="M8,52 h0 a4,4 0 0 1 4,4 v0 a4,4 0 0 1 -4,4 h0 a4,4 0 0 1 -4,-4 v0 a4,4 0 0 1 4,-4"/><mask id="satori_om-id-1-2-1"><rect x="29" y="47" width="79" height="19" fill="#fff"/></mask><path fill="#fff" d="M38.6 50.5L38.6 52.4L35.1 52.4L35.1 61.8L32.8 61.8L32.8 52.4L29.3 52.4L29.3 50.5L38.6 50.5ZM40.7 53.4L42.3 58.6L43.8 53.4L46.3 53.4L42.9 63.2L42.7 63.6Q41.9 65.3 40.2 65.3L40.2 65.3Q39.7 65.3 39.2 65.1L39.2 65.1L39.2 63.4L39.5 63.4Q40.2 63.4 40.5 63.2Q40.8 63.0 41.0 62.6L41.0 62.6L41.2 61.9L38.3 53.4L40.7 53.4ZM54.8 57.6L54.8 57.7Q54.8 59.6 53.9 60.8Q53.0 62 51.5 62L51.5 62Q50.2 62 49.4 61.1L49.4 61.1L49.4 65.1L47.2 65.1L47.2 53.4L49.3 53.4L49.3 54.2Q50.1 53.2 51.5 53.2L51.5 53.2Q53.0 53.2 53.9 54.4Q54.8 55.5 54.8 57.6L54.8 57.6ZM52.5 57.5L52.5 57.5Q52.5 56.4 52.1 55.7Q51.7 55.1 50.9 55.1L50.9 55.1Q49.8 55.1 49.4 55.9L49.4 55.9L49.4 59.3Q49.8 60.2 50.9 60.2L50.9 60.2Q52.5 60.2 52.5 57.5ZM60.1 62L60.1 62Q58.2 62 57.0 60.9Q55.9 59.7 55.9 57.8L55.9 57.8L55.9 57.6Q55.9 56.3 56.4 55.3Q56.8 54.3 57.7 53.8Q58.6 53.2 59.8 53.2L59.8 53.2Q61.5 53.2 62.5 54.3Q63.5 55.4 63.5 57.4L63.5 57.4L63.5 58.4L58.1 58.4Q58.3 59.2 58.8 59.7Q59.4 60.2 60.2 60.2L60.2 60.2Q61.5 60.2 62.2 59.2L62.2 59.2L63.4 60.5Q62.8 61.2 62.0 61.6Q61.1 62 60.1 62ZM59.8 55.1L59.8 55.1Q59.1 55.1 58.7 55.5Q58.3 56.0 58.2 56.8L58.2 56.8L61.3 56.8L61.3 56.6Q61.3 55.9 60.9 55.5Q60.5 55.1 59.8 55.1ZM70.9 58.9L70.9 58.9Q70.9 58.2 70.4 57.8Q69.9 57.5 68.7 57.1Q67.5 56.7 66.8 56.3L66.8 56.3Q64.8 55.3 64.8 53.5L64.8 53.5Q64.8 52.6 65.4 51.8Q65.9 51.1 66.8 50.7Q67.8 50.3 69.0 50.3L69.0 50.3Q70.3 50.3 71.2 50.8Q72.2 51.2 72.7 52Q73.2 52.8 73.2 53.8L73.2 53.8L70.9 53.8Q70.9 53.0 70.4 52.6Q69.9 52.2 69.0 52.2L69.0 52.2Q68.1 52.2 67.7 52.5Q67.2 52.9 67.2 53.5L67.2 53.5Q67.2 54.1 67.7 54.4Q68.3 54.8 69.4 55.1L69.4 55.1Q71.4 55.7 72.3 56.6Q73.2 57.5 73.2 58.8L73.2 58.8Q73.2 60.3 72.1 61.2Q71.0 62 69.1 62L69.1 62Q67.8 62 66.7 61.5Q65.6 61.0 65.1 60.2Q64.5 59.4 64.5 58.3L64.5 58.3L66.8 58.3Q66.8 60.1 69.1 60.1L69.1 60.1Q69.9 60.1 70.4 59.8Q70.9 59.5 70.9 58.9ZM78.2 60.2L78.2 60.2Q78.8 60.2 79.2 59.8Q79.6 59.5 79.6 58.9L79.6 58.9L81.7 58.9Q81.7 59.8 81.2 60.5Q80.8 61.2 80.0 61.6Q79.2 62 78.2 62L78.2 62Q76.4 62 75.3 60.8Q74.3 59.7 74.3 57.7L74.3 57.7L74.3 57.5Q74.3 55.6 75.3 54.4Q76.4 53.2 78.2 53.2L78.2 53.2Q79.8 53.2 80.7 54.1Q81.7 55.0 81.7 56.5L81.7 56.5L79.6 56.5Q79.6 55.9 79.2 55.5Q78.8 55.1 78.1 55.1L78.1 55.1Q77.4 55.1 77.0 55.6Q76.6 56.2 76.6 57.5L76.6 57.5L76.6 57.7Q76.6 59.0 77.0 59.6Q77.4 60.2 78.2 60.2ZM87.8 53.3L87.7 55.5Q87.3 55.4 86.9 55.4L86.9 55.4Q85.6 55.4 85.3 56.3L85.3 56.3L85.3 61.8L83.0 61.8L83.0 53.4L85.1 53.4L85.2 54.4Q85.9 53.2 87.1 53.2L87.1 53.2Q87.4 53.2 87.8 53.3L87.8 53.3ZM91.2 53.4L91.2 61.8L88.9 61.8L88.9 53.4L91.2 53.4ZM88.8 51.2L88.8 51.2Q88.8 50.7 89.2 50.4Q89.5 50.0 90.1 50.0L90.1 50.0Q90.7 50.0 91 50.4Q91.3 50.7 91.3 51.2L91.3 51.2Q91.3 51.7 91.0 52.0Q90.6 52.4 90.1 52.4Q89.5 52.4 89.2 52.0Q88.8 51.7 88.8 51.2ZM100.7 57.6L100.7 57.7Q100.7 59.6 99.8 60.8Q98.9 62 97.4 62L97.4 62Q96.1 62 95.3 61.1L95.3 61.1L95.3 65.1L93.1 65.1L93.1 53.4L95.2 53.4L95.2 54.2Q96.1 53.2 97.4 53.2L97.4 53.2Q98.9 53.2 99.8 54.4Q100.7 55.5 100.7 57.6L100.7 57.6ZM98.4 57.5L98.4 57.5Q98.4 56.4 98.0 55.7Q97.6 55.1 96.8 55.1L96.8 55.1Q95.7 55.1 95.3 55.9L95.3 55.9L95.3 59.3Q95.7 60.2 96.8 60.2L96.8 60.2Q98.4 60.2 98.4 57.5ZM102.5 51.3L104.8 51.3L104.8 53.4L106.2 53.4L106.2 55.0L104.8 55.0L104.8 59.3Q104.8 59.7 105.0 59.9Q105.1 60.1 105.6 60.1L105.6 60.1Q106.0 60.1 106.3 60.1L106.3 60.1L106.3 61.8Q105.6 62 104.9 62L104.9 62Q102.6 62 102.5 59.6L102.5 59.6L102.5 55.0L101.3 55.0L101.3 53.4L102.5 53.4L102.5 51.3Z "/><mask id="satori_om-id-1-2-2"><rect x="117" y="47" width="43" height="19" fill="#fff"/></mask><path fill="#7d8590" d="M122.7 50.4L122.7 61.8L121.2 61.8L121.2 52.2L118.3 53.3L118.3 52.0L122.5 50.4L122.7 50.4ZM131.7 50.4L131.7 61.8L130.2 61.8L130.2 52.2L127.3 53.3L127.3 52.0L131.5 50.4L131.7 50.4ZM136.1 61.1L136.1 61.1Q136.1 60.7 136.3 60.5Q136.5 60.2 137.0 60.2Q137.4 60.2 137.7 60.5Q137.9 60.7 137.9 61.1L137.9 61.1Q137.9 61.4 137.7 61.7Q137.4 61.9 137.0 61.9Q136.5 61.9 136.3 61.7Q136.1 61.4 136.1 61.1ZM147.0 53.4L147.0 53.4Q147.0 54.3 146.6 55.0Q146.1 55.6 145.4 56.0L145.4 56.0Q146.3 56.4 146.8 57.1Q147.3 57.8 147.3 58.8L147.3 58.8Q147.3 60.3 146.3 61.1Q145.3 62 143.7 62L143.7 62Q142.0 62 141.0 61.1Q140.1 60.2 140.1 58.8L140.1 58.8Q140.1 57.9 140.6 57.1Q141.1 56.4 142.0 56.0L142.0 56.0Q141.2 55.6 140.8 54.9Q140.3 54.3 140.3 53.4L140.3 53.4Q140.3 52 141.2 51.2Q142.2 50.3 143.7 50.3L143.7 50.3Q145.2 50.3 146.1 51.2Q147.0 52 147.0 53.4ZM145.8 58.7L145.8 58.7Q145.8 57.8 145.2 57.2Q144.6 56.6 143.7 56.6Q142.7 56.6 142.1 57.2Q141.5 57.8 141.5 58.7Q141.5 59.7 142.1 60.3Q142.6 60.8 143.7 60.8L143.7 60.8Q144.7 60.8 145.3 60.3Q145.8 59.7 145.8 58.7ZM143.7 51.5L143.7 51.5Q142.8 51.5 142.3 52.0Q141.8 52.6 141.8 53.5L141.8 53.5Q141.8 54.3 142.3 54.9Q142.8 55.4 143.7 55.4Q144.5 55.4 145.1 54.9Q145.6 54.3 145.6 53.5Q145.6 52.6 145.0 52.0Q144.5 51.5 143.7 51.5ZM149.0 53.2L149.0 52.7Q149.0 51.6 149.6 51.0Q150.3 50.3 151.3 50.3L151.3 50.3Q152.4 50.3 153.0 51.0Q153.6 51.6 153.6 52.7L153.6 52.7L153.6 53.3Q153.6 54.3 153.0 54.9Q152.3 55.6 151.3 55.6L151.3 55.6Q150.3 55.6 149.6 54.9Q149.0 54.3 149.0 53.2L149.0 53.2ZM150.1 52.7L150.1 53.3Q150.1 53.9 150.4 54.3Q150.8 54.7 151.3 54.7L151.3 54.7Q151.9 54.7 152.2 54.3Q152.6 53.9 152.6 53.2L152.6 53.2L152.6 52.7Q152.6 52.0 152.2 51.6Q151.9 51.3 151.3 51.3Q150.7 51.3 150.4 51.6Q150.1 52.0 150.1 52.7L150.1 52.7ZM154.5 59.6L154.5 59.1Q154.5 58.0 155.2 57.4Q155.8 56.7 156.9 56.7Q157.9 56.7 158.5 57.4Q159.2 58.0 159.2 59.1L159.2 59.1L159.2 59.7Q159.2 60.7 158.5 61.3Q157.9 62.0 156.9 62.0Q155.9 62.0 155.2 61.4Q154.5 60.7 154.5 59.6L154.5 59.6ZM155.6 59.1L155.6 59.7Q155.6 60.3 155.9 60.7Q156.3 61.1 156.9 61.1L156.9 61.1Q157.4 61.1 157.8 60.7Q158.1 60.3 158.1 59.6L158.1 59.6L158.1 59.1Q158.1 58.4 157.8 58.0Q157.4 57.7 156.9 57.7L156.9 57.7Q156.3 57.7 155.9 58.0Q155.6 58.4 155.6 59.1L155.6 59.1ZM157.2 52.1L151.7 61.0L150.8 60.5L156.4 51.6L157.2 52.1Z "/><mask id="satori_om-id-1-3"><rect x="170" y="47" width="92" height="19" fill="#fff"/></mask><mask id="satori_om-id-1-3-0"><rect x="170" y="48" width="16" height="16" fill="#fff"/></mask><mask id="satori_om-id-1-3-0-0"><rect x="174" y="52" width="8" height="8" fill="#fff"/></mask><path x="174" y="52" width="8" height="8" fill="#00ADD8" d="M178,52 h0 a4,4 0 0 1 4,4 v0 a4,4 0 0 1 -4,4 h0 a4,4 0 0 1 -4,-4 v0 a4,4 0 0 1 4,-4"/><mask id="satori_om-id-1-3-1"><rect x="199" y="47" width="20" height="19" fill="#fff"/></mask><path fill="#fff" d="M209.0 55.9L209.0 60.4Q208.4 61.2 207.2 61.6Q206.1 62 204.7 62L204.7 62Q203.2 62 202.1 61.4Q201.0 60.7 200.4 59.5Q199.8 58.3 199.7 56.6L199.7 56.6L199.7 55.8Q199.7 54.1 200.3 52.9Q200.9 51.6 202.0 51.0Q203.0 50.3 204.5 50.3L204.5 50.3Q206.5 50.3 207.7 51.3Q208.8 52.2 209.0 54.1L209.0 54.1L206.7 54.1Q206.6 53.1 206.0 52.7Q205.5 52.2 204.6 52.2L204.6 52.2Q203.4 52.2 202.8 53.1Q202.1 54 202.1 55.8L202.1 55.8L202.1 56.5Q202.1 58.3 202.8 59.2Q203.5 60.1 204.8 60.1L204.8 60.1Q206.1 60.1 206.7 59.6L206.7 59.6L206.7 57.6L204.5 57.6L204.5 55.9L209.0 55.9ZM210.4 57.6L210.4 57.5Q210.4 56.3 210.9 55.3Q211.4 54.3 212.3 53.8Q213.2 53.2 214.4 53.2L214.4 53.2Q216.1 53.2 217.2 54.3Q218.3 55.3 218.4 57.1L218.4 57.1L218.4 57.7Q218.4 59.6 217.3 60.8Q216.3 62 214.4 62Q212.6 62 211.5 60.8Q210.4 59.7 210.4 57.6L210.4 57.6ZM212.7 57.7L212.7 57.7Q212.7 58.9 213.1 59.5Q213.6 60.2 214.4 60.2L214.4 60.2Q215.2 60.2 215.7 59.6Q216.2 58.9 216.2 57.5L216.2 57.5Q216.2 56.4 215.7 55.7Q215.2 55.1 214.4 55.1L214.4 55.1Q213.6 55.1 213.1 55.7Q212.7 56.4 212.7 57.7Z "/><mask id="satori_om-id-1-3-2"><rect x="228" y="47" width="34" height="19" fill="#fff"/></mask><path fill="#7d8590" d="M236.3 50.5L236.3 51.3L231.6 61.8L230.1 61.8L234.8 51.7L228.6 51.7L228.6 50.5L236.3 50.5ZM238.1 61.1L238.1 61.1Q238.1 60.7 238.3 60.5Q238.6 60.2 239 60.2Q239.4 60.2 239.7 60.5Q239.9 60.7 239.9 61.1L239.9 61.1Q239.9 61.4 239.7 61.7Q239.4 61.9 239 61.9Q238.6 61.9 238.3 61.7Q238.1 61.4 238.1 61.1ZM249.0 53.4L249.0 53.4Q249.0 54.3 248.6 55.0Q248.1 55.6 247.4 56.0L247.4 56.0Q248.3 56.4 248.8 57.1Q249.3 57.8 249.3 58.8L249.3 58.8Q249.3 60.3 248.3 61.1Q247.3 62 245.7 62L245.7 62Q244.0 62 243.1 61.1Q242.1 60.2 242.1 58.8L242.1 58.8Q242.1 57.9 242.6 57.1Q243.1 56.4 244.0 56.0L244.0 56.0Q243.2 55.6 242.8 54.9Q242.3 54.3 242.3 53.4L242.3 53.4Q242.3 52 243.3 51.2Q244.2 50.3 245.7 50.3L245.7 50.3Q247.2 50.3 248.1 51.2Q249.0 52 249.0 53.4ZM247.9 58.7L247.9 58.7Q247.9 57.8 247.3 57.2Q246.6 56.6 245.7 56.6Q244.7 56.6 244.1 57.2Q243.5 57.8 243.5 58.7Q243.5 59.7 244.1 60.3Q244.7 60.8 245.7 60.8L245.7 60.8Q246.7 60.8 247.3 60.3Q247.9 59.7 247.9 58.7ZM245.7 51.5L245.7 51.5Q244.8 51.5 244.3 52.0Q243.8 52.6 243.8 53.5L243.8 53.5Q243.8 54.3 244.3 54.9Q244.8 55.4 245.7 55.4Q246.6 55.4 247.1 54.9Q247.6 54.3 247.6 53.5Q247.6 52.6 247.1 52.0Q246.5 51.5 245.7 51.5ZM251 53.2L251 52.7Q251 51.6 251.7 51.0Q252.3 50.3 253.3 50.3L253.3 50.3Q254.4 50.3 255.0 51.0Q255.7 51.6 255.7 52.7L255.7 52.7L255.7 53.3Q255.7 54.3 255.0 54.9Q254.4 55.6 253.3 55.6L253.3 55.6Q252.3 55.6 251.7 54.9Q251 54.3 251 53.2L251 53.2ZM252.1 52.7L252.1 53.3Q252.1 53.9 252.4 54.3Q252.8 54.7 253.3 54.7L253.3 54.7Q253.9 54.7 254.2 54.3Q254.6 53.9 254.6 53.2L254.6 53.2L254.6 52.7Q254.6 52.0 254.2 51.6Q253.9 51.3 253.3 51.3Q252.8 51.3 252.4 51.6Q252.1 52.0 252.1 52.7L252.1 52.7ZM256.5 59.6L256.5 59.1Q256.5 58.0 257.2 57.4Q257.8 56.7 258.9 56.7Q259.9 56.7 260.5 57.4Q261.2 58.0 261.2 59.1L261.2 59.1L261.2 59.7Q261.2 60.7 260.6 61.3Q259.9 62.0 258.9 62.0Q257.9 62.0 257.2 61.4Q256.5 60.7 256.5 59.6L256.5 59.6ZM257.6 59.1L257.6 59.7Q257.6 60.3 258.0 60.7Q258.3 61.1 258.9 61.1L258.9 61.1Q259.4 61.1 259.8 60.7Q260.1 60.3 260.1 59.6L260.1 59.6L260.1 59.1Q260.1 58.4 259.8 58.0Q259.4 57.7 258.9 57.7L258.9 57.7Q258.3 57.7 258.0 58.0Q257.6 58.4 257.6 59.1L257.6 59.1ZM259.2 52.1L253.7 61.0L252.9 60.5L258.4 51.6L259.2 52.1Z "/><mask id="satori_om-id-1-4"><rect x="0" y="76" width="116" height="18" fill="#fff"/></mask><mask id="satori_om-id-1-4-0"><rect x="0" y="77" width="16" height="16" fill="#fff"/></mask><mask id="satori_om-id-1-4-0-0"><rect x="4" y="81" width="8" height="8" fill="#fff"/></mask><path x="4" y="81" width="8" height="8" fill="#e34c26" d="M8,81 h0 a4,4 0 0 1 4,4 v0 a4,4 0 0 1 -4,4 h0 a4,4 0 0 1 -4,-4 v0 a4,4 0 0 1 4,-4"/><mask id="satori_om-id-1-4-1"><rect x="29" y="76" width="44" height="18" fill="#fff"/></mask><path fill="#fff" d="M39.3 79.5L39.3 90.8L36.9 90.8L36.9 86.0L32.4 86.0L32.4 90.8L30.0 90.8L30.0 79.5L32.4 79.5L32.4 84.1L36.9 84.1L36.9 79.5L39.3 79.5ZM49.7 79.5L49.7 81.4L46.2 81.4L46.2 90.8L43.8 90.8L43.8 81.4L40.4 81.4L40.4 79.5L49.7 79.5ZM51.0 79.5L54.1 79.5L57.0 87.7L59.9 79.5L63.0 79.5L63.0 90.8L60.6 90.8L60.6 87.7L60.8 82.4L57.8 90.8L56.2 90.8L53.1 82.4L53.3 87.7L53.3 90.8L51.0 90.8L51.0 79.5ZM67.4 79.5L67.4 89.0L72.3 89.0L72.3 90.8L65.0 90.8L65.0 79.5L67.4 79.5Z "/><mask id="satori_om-id-1-4-2"><rect x="82" y="76" width="34" height="18" fill="#fff"/></mask><path fill="#7d8590" d="M88.4 79.5L88.6 79.5L88.6 80.7L88.4 80.7Q86.7 80.7 85.7 81.7Q84.7 82.7 84.5 84.4L84.5 84.4Q85.4 83.4 87.0 83.4L87.0 83.4Q88.4 83.4 89.3 84.4Q90.2 85.5 90.2 87.1L90.2 87.1Q90.2 88.9 89.3 89.9Q88.3 91 86.7 91L86.7 91Q85.1 91 84.0 89.7Q83.0 88.5 83.0 86.5L83.0 86.5L83.0 86.0Q83.0 82.8 84.4 81.2Q85.7 79.5 88.4 79.5L88.4 79.5ZM86.7 84.6L86.7 84.6Q86.0 84.6 85.4 85.0Q84.7 85.5 84.5 86.1L84.5 86.1L84.5 86.7Q84.5 88.1 85.1 88.9Q85.8 89.8 86.7 89.8L86.7 89.8Q87.7 89.8 88.2 89.1Q88.8 88.4 88.8 87.2L88.8 87.2Q88.8 86.0 88.2 85.3Q87.7 84.6 86.7 84.6ZM92.1 90.1L92.1 90.1Q92.1 89.7 92.3 89.5Q92.6 89.2 93 89.2Q93.4 89.2 93.7 89.5Q93.9 89.7 93.9 90.1L93.9 90.1Q93.9 90.4 93.7 90.7Q93.4 90.9 93 90.9Q92.6 90.9 92.3 90.7Q92.1 90.4 92.1 90.1ZM102.2 79.5L102.2 87.0L103.8 87.0L103.8 88.2L102.2 88.2L102.2 90.8L100.8 90.8L100.8 88.2L95.6 88.2L95.6 87.4L100.7 79.5L102.2 79.5ZM100.6 81.8L97.3 87.0L100.8 87.0L100.8 81.4L100.6 81.8ZM105 82.2L105 81.7Q105 80.6 105.7 80.0Q106.3 79.3 107.3 79.3L107.3 79.3Q108.4 79.3 109.0 80.0Q109.7 80.6 109.7 81.7L109.7 81.7L109.7 82.3Q109.7 83.3 109.0 83.9Q108.4 84.6 107.3 84.6L107.3 84.6Q106.3 84.6 105.7 83.9Q105 83.3 105 82.2L105 82.2ZM106.1 81.7L106.1 82.3Q106.1 82.9 106.4 83.3Q106.8 83.7 107.3 83.7L107.3 83.7Q107.9 83.7 108.2 83.3Q108.6 82.9 108.6 82.2L108.6 82.2L108.6 81.7Q108.6 81.0 108.2 80.6Q107.9 80.3 107.3 80.3Q106.8 80.3 106.4 80.6Q106.1 81.0 106.1 81.7L106.1 81.7ZM110.5 88.6L110.5 88.1Q110.5 87.0 111.2 86.4Q111.8 85.7 112.9 85.7Q113.9 85.7 114.5 86.4Q115.2 87.0 115.2 88.1L115.2 88.1L115.2 88.7Q115.2 89.7 114.6 90.3Q113.9 91.0 112.9 91.0Q111.9 91.0 111.2 90.4Q110.5 89.7 110.5 88.6L110.5 88.6ZM111.6 88.1L111.6 88.7Q111.6 89.3 112.0 89.7Q112.3 90.1 112.9 90.1L112.9 90.1Q113.4 90.1 113.8 89.7Q114.1 89.3 114.1 88.6L114.1 88.6L114.1 88.1Q114.1 87.4 113.8 87.0Q113.4 86.7 112.9 86.7L112.9 86.7Q112.3 86.7 112.0 87.0Q111.6 87.4 111.6 88.1L111.6 88.1ZM113.2 81.1L107.7 90.0L106.9 89.5L112.4 80.6L113.2 81.1Z "/><mask id="satori_om-id-1-5"><rect x="126" y="76" width="103" height="18" fill="#fff"/></mask><mask id="satori_om-id-1-5-0"><rect x="126" y="77" width="16" height="16" fill="#fff"/></mask><mask id="satori_om-id-1-5-0-0"><rect x="130" y="81" width="8" height="8" fill="#fff"/></mask><path x="130" y="81" width="8" height="8" fill="#663399" d="M134,81 h0 a4,4 0 0 1 4,4 v0 a4,4 0 0 1 -4,4 h0 a4,4 0 0 1 -4,-4 v0 a4,4 0 0 1 4,-4"/><mask id="satori_om-id-1-5-1"><rect x="155" y="76" width="31" height="18" fill="#fff"/></mask><path fill="#fff" d="M162.6 87.1L164.9 87.1Q164.8 88.9 163.6 89.9Q162.4 91 160.4 91L160.4 91Q158.2 91 156.9 89.5Q155.7 88.1 155.7 85.5L155.7 85.5L155.7 84.8Q155.7 83.1 156.3 81.9Q156.8 80.6 157.9 80.0Q159.0 79.3 160.4 79.3L160.4 79.3Q162.4 79.3 163.6 80.4Q164.8 81.4 165.0 83.3L165.0 83.3L162.6 83.3Q162.5 82.2 162.0 81.7Q161.5 81.2 160.4 81.2L160.4 81.2Q159.2 81.2 158.6 82.1Q158.1 82.9 158.0 84.7L158.0 84.7L158.0 85.5Q158.0 87.4 158.6 88.2Q159.2 89.1 160.4 89.1L160.4 89.1Q161.5 89.1 162.0 88.6Q162.5 88.1 162.6 87.1L162.6 87.1ZM172.4 87.9L172.4 87.9Q172.4 87.2 171.9 86.8Q171.4 86.5 170.2 86.1Q169.0 85.7 168.3 85.3L168.3 85.3Q166.4 84.3 166.4 82.5L166.4 82.5Q166.4 81.6 166.9 80.8Q167.4 80.1 168.4 79.7Q169.3 79.3 170.6 79.3L170.6 79.3Q171.8 79.3 172.7 79.8Q173.7 80.2 174.2 81Q174.7 81.8 174.7 82.8L174.7 82.8L172.4 82.8Q172.4 82.0 171.9 81.6Q171.4 81.2 170.5 81.2L170.5 81.2Q169.7 81.2 169.2 81.5Q168.7 81.9 168.7 82.5L168.7 82.5Q168.7 83.1 169.3 83.4Q169.8 83.8 170.9 84.1L170.9 84.1Q172.9 84.7 173.8 85.6Q174.7 86.5 174.7 87.8L174.7 87.8Q174.7 89.3 173.6 90.2Q172.5 91 170.6 91L170.6 91Q169.3 91 168.2 90.5Q167.1 90.0 166.6 89.2Q166.0 88.4 166.0 87.3L166.0 87.3L168.4 87.3Q168.4 89.1 170.6 89.1L170.6 89.1Q171.4 89.1 171.9 88.8Q172.4 88.5 172.4 87.9ZM182.2 87.9L182.2 87.9Q182.2 87.2 181.8 86.8Q181.3 86.5 180.1 86.1Q178.8 85.7 178.1 85.3L178.1 85.3Q176.2 84.3 176.2 82.5L176.2 82.5Q176.2 81.6 176.7 80.8Q177.2 80.1 178.2 79.7Q179.2 79.3 180.4 79.3L180.4 79.3Q181.6 79.3 182.6 79.8Q183.5 80.2 184.0 81Q184.6 81.8 184.6 82.8L184.6 82.8L182.2 82.8Q182.2 82.0 181.7 81.6Q181.2 81.2 180.4 81.2L180.4 81.2Q179.5 81.2 179.0 81.5Q178.5 81.9 178.5 82.5L178.5 82.5Q178.5 83.1 179.1 83.4Q179.7 83.8 180.7 84.1L180.7 84.1Q182.7 84.7 183.7 85.6Q184.6 86.5 184.6 87.8L184.6 87.8Q184.6 89.3 183.5 90.2Q182.3 91 180.4 91L180.4 91Q179.1 91 178.1 90.5Q177.0 90.0 176.4 89.2Q175.8 88.4 175.8 87.3L175.8 87.3L178.2 87.3Q178.2 89.1 180.4 89.1L180.4 89.1Q181.3 89.1 181.8 88.8Q182.2 88.5 182.2 87.9Z "/><mask id="satori_om-id-1-5-2"><rect x="195" y="76" width="34" height="18" fill="#fff"/></mask><path fill="#7d8590" d="M197.8 85.4L196.6 85.1L197.2 79.5L203.0 79.5L203.0 80.8L198.4 80.8L198.1 83.9Q198.9 83.4 200.0 83.4L200.0 83.4Q201.5 83.4 202.4 84.4Q203.4 85.5 203.4 87.2L203.4 87.2Q203.4 89.0 202.4 90.0Q201.5 91 199.8 91L199.8 91Q198.2 91 197.3 90.2Q196.3 89.3 196.2 87.9L196.2 87.9L197.6 87.9Q197.7 88.8 198.3 89.3Q198.8 89.8 199.8 89.8L199.8 89.8Q200.8 89.8 201.3 89.1Q201.9 88.4 201.9 87.2L201.9 87.2Q201.9 86.1 201.3 85.4Q200.7 84.7 199.6 84.7L199.6 84.7Q198.7 84.7 198.1 85.1L198.1 85.1L197.8 85.4ZM205.1 90.1L205.1 90.1Q205.1 89.7 205.3 89.5Q205.6 89.2 206 89.2Q206.4 89.2 206.7 89.5Q206.9 89.7 206.9 90.1L206.9 90.1Q206.9 90.4 206.7 90.7Q206.4 90.9 206 90.9Q205.6 90.9 205.3 90.7Q205.1 90.4 205.1 90.1ZM216.5 79.5L216.5 80.3L211.8 90.8L210.3 90.8L215.0 80.7L208.8 80.7L208.8 79.5L216.5 79.5ZM218 82.2L218 81.7Q218 80.6 218.7 80.0Q219.3 79.3 220.3 79.3L220.3 79.3Q221.4 79.3 222.0 80.0Q222.7 80.6 222.7 81.7L222.7 81.7L222.7 82.3Q222.7 83.3 222.0 83.9Q221.4 84.6 220.3 84.6L220.3 84.6Q219.3 84.6 218.7 83.9Q218 83.3 218 82.2L218 82.2ZM219.1 81.7L219.1 82.3Q219.1 82.9 219.4 83.3Q219.8 83.7 220.3 83.7L220.3 83.7Q220.9 83.7 221.2 83.3Q221.6 82.9 221.6 82.2L221.6 82.2L221.6 81.7Q221.6 81.0 221.2 80.6Q220.9 80.3 220.3 80.3Q219.8 80.3 219.4 80.6Q219.1 81.0 219.1 81.7L219.1 81.7ZM223.5 88.6L223.5 88.1Q223.5 87.0 224.2 86.4Q224.8 85.7 225.9 85.7Q226.9 85.7 227.5 86.4Q228.2 87.0 228.2 88.1L228.2 88.1L228.2 88.7Q228.2 89.7 227.6 90.3Q226.9 91.0 225.9 91.0Q224.9 91.0 224.2 90.4Q223.5 89.7 223.5 88.6L223.5 88.6ZM224.6 88.1L224.6 88.7Q224.6 89.3 225.0 89.7Q225.3 90.1 225.9 90.1L225.9 90.1Q226.4 90.1 226.8 89.7Q227.1 89.3 227.1 88.6L227.1 88.6L227.1 88.1Q227.1 87.4 226.8 87.0Q226.4 86.7 225.9 86.7L225.9 86.7Q225.3 86.7 225.0 87.0Q224.6 87.4 224.6 88.1L224.6 88.1ZM226.2 81.1L220.7 90.0L219.9 89.5L225.4 80.6L226.2 81.1Z "/><mask id="satori_om-id-1-6"><rect x="239" y="76" width="105" height="18" fill="#fff"/></mask><mask id="satori_om-id-1-6-0"><rect x="239" y="77" width="16" height="16" fill="#fff"/></mask><mask id="satori_om-id-1-6-0-0"><rect x="243" y="81" width="8" height="8" fill="#fff"/></mask><path x="243" y="81" width="8" height="8" fill="#dea584" d="M247,81 h0 a4,4 0 0 1 4,4 v0 a4,4 0 0 1 -4,4 h0 a4,4 0 0 1 -4,-4 v0 a4,4 0 0 1 4,-4"/><mask id="satori_om-id-1-6-1"><rect x="268" y="76" width="33" height="18" fill="#fff"/></mask><path fill="#fff" d="M275.4 90.8L273.2 86.7L271.4 86.7L271.4 90.8L269.0 90.8L269.0 79.5L273.2 79.5Q275.3 79.5 276.4 80.4Q277.4 81.3 277.4 82.9L277.4 82.9Q277.4 84.1 276.9 84.8Q276.4 85.6 275.4 86.1L275.4 86.1L277.9 90.7L277.9 90.8L275.4 90.8ZM271.4 81.4L271.4 84.8L273.3 84.8Q274.1 84.8 274.6 84.3Q275.1 83.9 275.1 83.1L275.1 83.1Q275.1 82.3 274.6 81.8Q274.2 81.4 273.2 81.4L273.2 81.4L271.4 81.4ZM284.2 90.8L284.1 90.0Q283.3 91 281.8 91L281.8 91Q280.5 91 279.8 90.2Q279.0 89.4 279.0 87.9L279.0 87.9L279.0 82.4L281.3 82.4L281.3 87.9Q281.3 89.2 282.5 89.2L282.5 89.2Q283.6 89.2 284.1 88.4L284.1 88.4L284.1 82.4L286.3 82.4L286.3 90.8L284.2 90.8ZM292.6 88.5L292.6 88.5Q292.6 88.1 292.2 87.9Q291.8 87.6 290.9 87.4L290.9 87.4Q287.9 86.8 287.9 84.9L287.9 84.9Q287.9 83.7 288.8 83.0Q289.7 82.2 291.2 82.2L291.2 82.2Q292.9 82.2 293.8 83.0Q294.8 83.8 294.8 85.0L294.8 85.0L292.5 85.0Q292.5 84.5 292.2 84.2Q291.9 83.8 291.2 83.8L291.2 83.8Q290.7 83.8 290.4 84.1Q290.0 84.4 290.0 84.8L290.0 84.8Q290.0 85.1 290.4 85.4Q290.8 85.6 291.6 85.8Q292.4 85.9 293.0 86.1L293.0 86.1Q294.8 86.8 294.8 88.4L294.8 88.4Q294.8 89.6 293.8 90.3Q292.8 91 291.3 91L291.3 91Q290.2 91 289.4 90.6Q288.5 90.2 288.1 89.6Q287.6 88.9 287.6 88.2L287.6 88.2L289.7 88.2Q289.8 88.8 290.2 89.1Q290.6 89.4 291.3 89.4L291.3 89.4Q291.9 89.4 292.3 89.2Q292.6 88.9 292.6 88.5ZM296.7 80.3L299.0 80.3L299.0 82.4L300.4 82.4L300.4 84.0L299.0 84.0L299.0 88.3Q299.0 88.7 299.1 88.9Q299.3 89.1 299.8 89.1L299.8 89.1Q300.2 89.1 300.5 89.1L300.5 89.1L300.5 90.8Q299.8 91 299.1 91L299.1 91Q296.8 91 296.7 88.6L296.7 88.6L296.7 84.0L295.5 84.0L295.5 82.4L296.7 82.4L296.7 80.3Z "/><mask id="satori_om-id-1-6-2"><rect x="310" y="76" width="34" height="18" fill="#fff"/></mask><path fill="#7d8590" d="M313.0 85.6L313.0 84.5L314.1 84.5Q315.2 84.4 315.7 83.9Q316.3 83.4 316.3 82.5L316.3 82.5Q316.3 80.5 314.3 80.5L314.3 80.5Q313.4 80.5 312.8 81.0Q312.3 81.6 312.3 82.5L312.3 82.5L310.8 82.5Q310.8 81.1 311.8 80.2Q312.8 79.3 314.3 79.3L314.3 79.3Q315.9 79.3 316.9 80.2Q317.8 81.0 317.8 82.5L317.8 82.5Q317.8 83.3 317.3 84.0Q316.8 84.7 316.0 85.0L316.0 85.0Q316.9 85.3 317.4 86.0Q317.9 86.7 317.9 87.7L317.9 87.7Q317.9 89.2 316.9 90.1Q315.9 91 314.3 91Q312.7 91 311.7 90.1Q310.7 89.3 310.7 87.8L310.7 87.8L312.2 87.8Q312.2 88.7 312.8 89.3Q313.4 89.8 314.3 89.8L314.3 89.8Q315.4 89.8 315.9 89.3Q316.5 88.7 316.5 87.7L316.5 87.7Q316.5 86.7 315.9 86.2Q315.3 85.6 314.1 85.6L314.1 85.6L313.0 85.6ZM320.1 90.1L320.1 90.1Q320.1 89.7 320.3 89.5Q320.6 89.2 321 89.2Q321.4 89.2 321.7 89.5Q321.9 89.7 321.9 90.1L321.9 90.1Q321.9 90.4 321.7 90.7Q321.4 90.9 321 90.9Q320.6 90.9 320.3 90.7Q320.1 90.4 320.1 90.1ZM329.6 79.5L329.8 79.5L329.8 80.7L329.5 80.7Q327.9 80.7 326.9 81.7Q325.9 82.7 325.7 84.4L325.7 84.4Q326.6 83.4 328.2 83.4L328.2 83.4Q329.6 83.4 330.5 84.4Q331.4 85.5 331.4 87.1L331.4 87.1Q331.4 88.9 330.5 89.9Q329.5 91 327.9 91L327.9 91Q326.3 91 325.2 89.7Q324.2 88.5 324.2 86.5L324.2 86.5L324.2 86.0Q324.2 82.8 325.6 81.2Q326.9 79.5 329.6 79.5L329.6 79.5ZM327.9 84.6L327.9 84.6Q327.2 84.6 326.5 85.0Q325.9 85.5 325.7 86.1L325.7 86.1L325.7 86.7Q325.7 88.1 326.3 88.9Q326.9 89.8 327.9 89.8L327.9 89.8Q328.9 89.8 329.4 89.1Q330.0 88.4 330.0 87.2L330.0 87.2Q330.0 86.0 329.4 85.3Q328.9 84.6 327.9 84.6ZM333 82.2L333 81.7Q333 80.6 333.7 80.0Q334.3 79.3 335.3 79.3L335.3 79.3Q336.4 79.3 337.0 80.0Q337.7 80.6 337.7 81.7L337.7 81.7L337.7 82.3Q337.7 83.3 337.0 83.9Q336.4 84.6 335.3 84.6L335.3 84.6Q334.3 84.6 333.7 83.9Q333 83.3 333 82.2L333 82.2ZM334.1 81.7L334.1 82.3Q334.1 82.9 334.4 83.3Q334.8 83.7 335.3 83.7L335.3 83.7Q335.9 83.7 336.2 83.3Q336.6 82.9 336.6 82.2L336.6 82.2L336.6 81.7Q336.6 81.0 336.2 80.6Q335.9 80.3 335.3 80.3Q334.8 80.3 334.4 80.6Q334.1 81.0 334.1 81.7L334.1 81.7ZM338.5 88.6L338.5 88.1Q338.5 87.0 339.2 86.4Q339.8 85.7 340.9 85.7Q341.9 85.7 342.5 86.4Q343.2 87.0 343.2 88.1L343.2 88.1L343.2 88.7Q343.2 89.7 342.6 90.3Q341.9 91.0 340.9 91.0Q339.9 91.0 339.2 90.4Q338.5 89.7 338.5 88.6L338.5 88.6ZM339.6 88.1L339.6 88.7Q339.6 89.3 340.0 89.7Q340.3 90.1 340.9 90.1L340.9 90.1Q341.4 90.1 341.8 89.7Q342.1 89.3 342.1 88.6L342.1 88.6L342.1 88.1Q342.1 87.4 341.8 87.0Q341.4 86.7 340.9 86.7L340.9 86.7Q340.3 86.7 340.0 87.0Q339.6 87.4 339.6 88.1L339.6 88.1ZM341.2 81.1L335.7 90.0L334.9 89.5L340.4 80.6L341.2 81.1Z "/><mask id="satori_om-id-1-7"><rect x="0" y="104" width="139" height="19" fill="#fff"/></mask><mask id="satori_om-id-1-7-0"><rect x="0" y="105" width="16" height="16" fill="#fff"/></mask><mask id="satori_om-id-1-7-0-0"><rect x="4" y="109" width="8" height="8" fill="#fff"/></mask><path x="4" y="109" width="8" height="8" fill="#336790" d="M8,109 h0 a4,4 0 0 1 4,4 v0 a4,4 0 0 1 -4,4 h0 a4,4 0 0 1 -4,-4 v0 a4,4 0 0 1 4,-4"/><mask id="satori_om-id-1-7-1"><rect x="29" y="104" width="67" height="19" fill="#fff"/></mask><path fill="#fff" d="M34.4 114.8L32.4 114.8L32.4 118.8L30.0 118.8L30.0 107.5L34.5 107.5Q35.7 107.5 36.7 107.9Q37.7 108.4 38.2 109.3Q38.7 110.1 38.7 111.2L38.7 111.2Q38.7 112.9 37.6 113.9Q36.4 114.8 34.4 114.8L34.4 114.8ZM32.4 109.4L32.4 112.9L34.5 112.9Q35.4 112.9 35.9 112.5Q36.4 112.1 36.4 111.3L36.4 111.3Q36.4 110.4 35.9 109.9Q35.4 109.4 34.5 109.4L34.5 109.4L32.4 109.4ZM42.7 107.5L42.7 117.0L47.7 117.0L47.7 118.8L40.3 118.8L40.3 107.5L42.7 107.5ZM56.5 114.6L56.5 114.7Q56.5 116.6 55.6 117.8Q54.7 119 53.2 119L53.2 119Q51.9 119 51.1 118.1L51.1 118.1L51.1 122.1L48.9 122.1L48.9 110.4L50.9 110.4L51.0 111.2Q51.8 110.2 53.2 110.2L53.2 110.2Q54.7 110.2 55.6 111.4Q56.5 112.5 56.5 114.6L56.5 114.6ZM54.2 114.5L54.2 114.5Q54.2 113.4 53.8 112.7Q53.4 112.1 52.6 112.1L52.6 112.1Q51.5 112.1 51.1 112.9L51.1 112.9L51.1 116.3Q51.5 117.2 52.6 117.2L52.6 117.2Q54.2 117.2 54.2 114.5ZM57.5 114.6L57.5 114.6Q57.5 112.6 58.5 111.4Q59.4 110.2 61.0 110.2L61.0 110.2Q62.3 110.2 63.1 111.2L63.1 111.2L63.2 110.4L65.3 110.4L65.3 118.6Q65.3 119.7 64.8 120.5Q64.3 121.3 63.3 121.7Q62.4 122.2 61.2 122.2L61.2 122.2Q60.3 122.2 59.4 121.8Q58.5 121.4 58.0 120.8L58.0 120.8L59.0 119.5Q59.9 120.4 61.1 120.4L61.1 120.4Q62.0 120.4 62.5 119.9Q63.0 119.5 63.0 118.6L63.0 118.6L63.0 118.1Q62.2 119 60.9 119L60.9 119Q59.4 119 58.5 117.8Q57.5 116.6 57.5 114.6L57.5 114.6ZM59.8 114.7L59.8 114.7Q59.8 115.9 60.3 116.5Q60.7 117.2 61.5 117.2L61.5 117.2Q62.5 117.2 63.0 116.4L63.0 116.4L63.0 112.8Q62.5 112.1 61.5 112.1L61.5 112.1Q60.7 112.1 60.3 112.7Q59.8 113.4 59.8 114.7ZM73.0 115.9L73.0 115.9Q73.0 115.2 72.6 114.8Q72.1 114.5 70.9 114.1Q69.7 113.7 69.0 113.3L69.0 113.3Q67.0 112.3 67.0 110.5L67.0 110.5Q67.0 109.6 67.5 108.8Q68.1 108.1 69.0 107.7Q70 107.3 71.2 107.3L71.2 107.3Q72.4 107.3 73.4 107.8Q74.3 108.2 74.9 109Q75.4 109.8 75.4 110.8L75.4 110.8L73.0 110.8Q73.0 110.0 72.6 109.6Q72.1 109.2 71.2 109.2L71.2 109.2Q70.3 109.2 69.8 109.5Q69.4 109.9 69.4 110.5L69.4 110.5Q69.4 111.1 69.9 111.4Q70.5 111.8 71.6 112.1L71.6 112.1Q73.6 112.7 74.5 113.6Q75.4 114.5 75.4 115.8L75.4 115.8Q75.4 117.3 74.3 118.2Q73.2 119 71.3 119L71.3 119Q70.0 119 68.9 118.5Q67.8 118.0 67.2 117.2Q66.7 116.4 66.7 115.3L66.7 115.3L69.0 115.3Q69.0 117.1 71.3 117.1L71.3 117.1Q72.1 117.1 72.6 116.8Q73.0 116.5 73.0 115.9ZM86.3 112.9L86.3 113.4Q86.3 115.0 85.8 116.2Q85.3 117.4 84.4 118.1L84.4 118.1L86.3 119.6L84.8 120.9L82.3 118.9Q81.9 119 81.5 119L81.5 119Q80.1 119 79.0 118.3Q77.8 117.6 77.2 116.4Q76.6 115.1 76.6 113.5L76.6 113.5L76.6 112.9Q76.6 111.2 77.2 110.0Q77.8 108.7 78.9 108.0Q80.0 107.3 81.5 107.3Q82.9 107.3 84.0 108.0Q85.1 108.7 85.7 110.0Q86.3 111.2 86.3 112.9L86.3 112.9ZM83.9 113.5L83.9 112.9Q83.9 111.1 83.3 110.2Q82.6 109.3 81.5 109.3L81.5 109.3Q80.3 109.3 79.6 110.2Q79 111.1 79.0 112.9L79.0 112.9L79.0 113.4Q79.0 115.2 79.6 116.1Q80.3 117.1 81.5 117.1L81.5 117.1Q82.7 117.1 83.3 116.2Q83.9 115.2 83.9 113.5L83.9 113.5ZM90.4 107.5L90.4 117.0L95.3 117.0L95.3 118.8L88.0 118.8L88.0 107.5L90.4 107.5Z "/><mask id="satori_om-id-1-7-2"><rect x="105" y="104" width="34" height="19" fill="#fff"/></mask><path fill="#7d8590" d="M110.7 107.4L110.7 118.8L109.2 118.8L109.2 109.2L106.3 110.3L106.3 109.0L110.5 107.4L110.7 107.4ZM115.1 118.1L115.1 118.1Q115.1 117.7 115.3 117.5Q115.6 117.2 116 117.2Q116.4 117.2 116.7 117.5Q116.9 117.7 116.9 118.1L116.9 118.1Q116.9 118.4 116.7 118.7Q116.4 118.9 116 118.9Q115.6 118.9 115.3 118.7Q115.1 118.4 115.1 118.1ZM126.6 117.7L126.6 118.8L119.1 118.8L119.1 117.8L123.1 113.4Q124.0 112.4 124.3 111.8Q124.6 111.2 124.6 110.5L124.6 110.5Q124.6 109.6 124.1 109.1Q123.5 108.5 122.6 108.5L122.6 108.5Q121.6 108.5 121.0 109.1Q120.4 109.7 120.4 110.8L120.4 110.8L118.9 110.8Q118.9 109.3 119.9 108.3Q120.9 107.3 122.6 107.3L122.6 107.3Q124.2 107.3 125.1 108.1Q126.1 109.0 126.1 110.4L126.1 110.4Q126.1 112.0 123.9 114.4L123.9 114.4L120.9 117.7L126.6 117.7ZM128 110.2L128 109.7Q128 108.6 128.7 108.0Q129.3 107.3 130.3 107.3L130.3 107.3Q131.4 107.3 132.0 108.0Q132.7 108.6 132.7 109.7L132.7 109.7L132.7 110.3Q132.7 111.3 132.0 111.9Q131.4 112.6 130.3 112.6L130.3 112.6Q129.3 112.6 128.7 111.9Q128 111.3 128 110.2L128 110.2ZM129.1 109.7L129.1 110.3Q129.1 110.9 129.4 111.3Q129.8 111.7 130.3 111.7L130.3 111.7Q130.9 111.7 131.2 111.3Q131.6 110.9 131.6 110.2L131.6 110.2L131.6 109.7Q131.6 109.0 131.2 108.6Q130.9 108.3 130.3 108.3Q129.8 108.3 129.4 108.6Q129.1 109.0 129.1 109.7L129.1 109.7ZM133.5 116.6L133.5 116.1Q133.5 115.0 134.2 114.4Q134.8 113.7 135.9 113.7Q136.9 113.7 137.5 114.4Q138.2 115.0 138.2 116.1L138.2 116.1L138.2 116.7Q138.2 117.7 137.6 118.3Q136.9 119.0 135.9 119.0Q134.9 119.0 134.2 118.4Q133.5 117.7 133.5 116.6L133.5 116.6ZM134.6 116.1L134.6 116.7Q134.6 117.3 135.0 117.7Q135.3 118.1 135.9 118.1L135.9 118.1Q136.4 118.1 136.8 117.7Q137.1 117.3 137.1 116.6L137.1 116.6L137.1 116.1Q137.1 115.4 136.8 115.0Q136.4 114.7 135.9 114.7L135.9 114.7Q135.3 114.7 135.0 115.0Q134.6 115.4 134.6 116.1L134.6 116.1ZM136.2 109.1L130.7 118.0L129.9 117.5L135.4 108.6L136.2 109.1Z "/><mask id="satori_om-id-1-8"><rect x="149" y="104" width="146" height="19" fill="#fff"/></mask><mask id="satori_om-id-1-8-0"><rect x="149" y="105" width="16" height="16" fill="#fff"/></mask><mask id="satori_om-id-1-8-0-0"><rect x="153" y="109" width="8" height="8" fill="#fff"/></mask><path x="153" y="109" width="8" height="8" fill="#384d54" d="M157,109 h0 a4,4 0 0 1 4,4 v0 a4,4 0 0 1 -4,4 h0 a4,4 0 0 1 -4,-4 v0 a4,4 0 0 1 4,-4"/><mask id="satori_om-id-1-8-1"><rect x="178" y="104" width="74" height="19" fill="#fff"/></mask><path fill="#fff" d="M182.5 118.8L179.0 118.8L179.0 107.5L182.5 107.5Q184.0 107.5 185.2 108.1Q186.4 108.8 187.0 110.1Q187.7 111.3 187.7 112.9L187.7 112.9L187.7 113.4Q187.7 115.0 187.1 116.2Q186.4 117.5 185.2 118.2Q184.0 118.8 182.5 118.8L182.5 118.8ZM182.5 109.4L181.4 109.4L181.4 117.0L182.5 117.0Q183.9 117.0 184.6 116.1Q185.3 115.2 185.3 113.5L185.3 113.5L185.3 112.9Q185.3 111.2 184.6 110.3Q183.9 109.4 182.5 109.4L182.5 109.4ZM188.9 114.6L188.9 114.5Q188.9 113.3 189.4 112.3Q189.9 111.3 190.8 110.8Q191.7 110.2 192.9 110.2L192.9 110.2Q194.6 110.2 195.7 111.3Q196.8 112.3 196.9 114.1L196.9 114.1L196.9 114.7Q196.9 116.6 195.8 117.8Q194.8 119 192.9 119Q191.1 119 190.0 117.8Q188.9 116.7 188.9 114.6L188.9 114.6ZM191.2 114.7L191.2 114.7Q191.2 115.9 191.6 116.5Q192.1 117.2 192.9 117.2L192.9 117.2Q193.7 117.2 194.2 116.6Q194.7 115.9 194.7 114.5L194.7 114.5Q194.7 113.4 194.2 112.7Q193.7 112.1 192.9 112.1L192.9 112.1Q192.1 112.1 191.6 112.7Q191.2 113.4 191.2 114.7ZM201.8 117.2L201.8 117.2Q202.5 117.2 202.8 116.8Q203.2 116.5 203.3 115.9L203.3 115.9L205.4 115.9Q205.4 116.8 204.9 117.5Q204.4 118.2 203.6 118.6Q202.8 119 201.9 119L201.9 119Q200.1 119 199.0 117.8Q198.0 116.7 198.0 114.7L198.0 114.7L198.0 114.5Q198.0 112.6 199 111.4Q200.0 110.2 201.9 110.2L201.9 110.2Q203.4 110.2 204.4 111.1Q205.4 112.0 205.4 113.5L205.4 113.5L203.3 113.5Q203.2 112.9 202.8 112.5Q202.5 112.1 201.8 112.1L201.8 112.1Q201.0 112.1 200.6 112.6Q200.2 113.2 200.2 114.5L200.2 114.5L200.2 114.7Q200.2 116.0 200.6 116.6Q201.0 117.2 201.8 117.2ZM211.9 118.8L209.7 115.5L208.9 116.3L208.9 118.8L206.7 118.8L206.7 106.8L208.9 106.8L208.9 113.5L209.4 112.9L211.5 110.4L214.2 110.4L211.2 113.9L214.5 118.8L211.9 118.8ZM218.9 119L218.9 119Q217.1 119 215.9 117.9Q214.7 116.7 214.7 114.8L214.7 114.8L214.7 114.6Q214.7 113.3 215.2 112.3Q215.7 111.3 216.6 110.8Q217.5 110.2 218.7 110.2L218.7 110.2Q220.4 110.2 221.4 111.3Q222.4 112.4 222.4 114.4L222.4 114.4L222.4 115.4L217.0 115.4Q217.1 116.2 217.7 116.7Q218.2 117.2 219.1 117.2L219.1 117.2Q220.4 117.2 221.1 116.2L221.1 116.2L222.2 117.5Q221.7 118.2 220.9 118.6Q220.0 119 218.9 119ZM218.7 112.1L218.7 112.1Q218.0 112.1 217.6 112.5Q217.2 113.0 217.1 113.8L217.1 113.8L220.2 113.8L220.2 113.6Q220.2 112.9 219.8 112.5Q219.4 112.1 218.7 112.1ZM228.5 110.3L228.4 112.5Q228.0 112.4 227.6 112.4L227.6 112.4Q226.4 112.4 226.0 113.3L226.0 113.3L226.0 118.8L223.7 118.8L223.7 110.4L225.8 110.4L225.9 111.4Q226.6 110.2 227.8 110.2L227.8 110.2Q228.1 110.2 228.5 110.3L228.5 110.3ZM232.6 118.8L230.3 118.8L230.3 112.0L229.0 112.0L229.0 110.4L230.3 110.4L230.3 109.7Q230.3 108.3 231.1 107.5Q231.9 106.7 233.4 106.7L233.4 106.7Q233.9 106.7 234.6 106.8L234.6 106.8L234.5 108.6Q234.3 108.5 233.8 108.5L233.8 108.5Q232.6 108.5 232.6 109.7L232.6 109.7L232.6 110.4L234.3 110.4L234.3 112.0L232.6 112.0L232.6 118.8ZM237.8 110.4L237.8 118.8L235.5 118.8L235.5 110.4L237.8 110.4ZM235.4 108.2L235.4 108.2Q235.4 107.7 235.7 107.4Q236.1 107.0 236.7 107.0L236.7 107.0Q237.3 107.0 237.6 107.4Q237.9 107.7 237.9 108.2L237.9 108.2Q237.9 108.7 237.6 109.0Q237.2 109.4 236.7 109.4Q236.1 109.4 235.8 109.0Q235.4 108.7 235.4 108.2ZM242.0 106.8L242.0 118.8L239.8 118.8L239.8 106.8L242.0 106.8ZM247.8 119L247.8 119Q245.9 119 244.8 117.9Q243.6 116.7 243.6 114.8L243.6 114.8L243.6 114.6Q243.6 113.3 244.1 112.3Q244.6 111.3 245.5 110.8Q246.4 110.2 247.5 110.2L247.5 110.2Q249.3 110.2 250.3 111.3Q251.3 112.4 251.3 114.4L251.3 114.4L251.3 115.4L245.9 115.4Q246 116.2 246.6 116.7Q247.1 117.2 247.9 117.2L247.9 117.2Q249.3 117.2 250.0 116.2L250.0 116.2L251.1 117.5Q250.6 118.2 249.7 118.6Q248.9 119 247.8 119ZM247.5 112.1L247.5 112.1Q246.9 112.1 246.4 112.5Q246.0 113.0 245.9 113.8L245.9 113.8L249.1 113.8L249.1 113.6Q249.0 112.9 248.6 112.5Q248.3 112.1 247.5 112.1Z "/><mask id="satori_om-id-1-8-2"><rect x="261" y="104" width="34" height="19" fill="#fff"/></mask><path fill="#7d8590" d="M266.7 107.4L266.7 118.8L265.2 118.8L265.2 109.2L262.3 110.3L262.3 109.0L266.5 107.4L266.7 107.4ZM271.1 118.1L271.1 118.1Q271.1 117.7 271.3 117.5Q271.6 117.2 272 117.2Q272.4 117.2 272.7 117.5Q272.9 117.7 272.9 118.1L272.9 118.1Q272.9 118.4 272.7 118.7Q272.4 118.9 272 118.9Q271.6 118.9 271.3 118.7Q271.1 118.4 271.1 118.1ZM282.3 112.1L282.3 114.0Q282.3 116.5 281.4 117.8Q280.5 119 278.7 119L278.7 119Q276.9 119 276 117.8Q275.1 116.6 275.1 114.2L275.1 114.2L275.1 112.3Q275.1 109.8 276.0 108.5Q276.8 107.3 278.7 107.3L278.7 107.3Q280.5 107.3 281.4 108.5Q282.3 109.7 282.3 112.1L282.3 112.1ZM280.8 114.4L280.8 112.0Q280.8 110.2 280.3 109.3Q279.8 108.5 278.7 108.5L278.7 108.5Q277.6 108.5 277.1 109.3Q276.6 110.2 276.5 111.9L276.5 111.9L276.5 114.2Q276.5 116.1 277.1 116.9Q277.6 117.8 278.7 117.8L278.7 117.8Q279.8 117.8 280.3 117.0Q280.8 116.2 280.8 114.4L280.8 114.4ZM284 110.2L284 109.7Q284 108.6 284.7 108.0Q285.3 107.3 286.3 107.3L286.3 107.3Q287.4 107.3 288.0 108.0Q288.7 108.6 288.7 109.7L288.7 109.7L288.7 110.3Q288.7 111.3 288.0 111.9Q287.4 112.6 286.3 112.6L286.3 112.6Q285.3 112.6 284.7 111.9Q284 111.3 284 110.2L284 110.2ZM285.1 109.7L285.1 110.3Q285.1 110.9 285.4 111.3Q285.8 111.7 286.3 111.7L286.3 111.7Q286.9 111.7 287.2 111.3Q287.6 110.9 287.6 110.2L287.6 110.2L287.6 109.7Q287.6 109.0 287.2 108.6Q286.9 108.3 286.3 108.3Q285.8 108.3 285.4 108.6Q285.1 109.0 285.1 109.7L285.1 109.7ZM289.5 116.6L289.5 116.1Q289.5 115.0 290.2 114.4Q290.8 113.7 291.9 113.7Q292.9 113.7 293.5 114.4Q294.2 115.0 294.2 116.1L294.2 116.1L294.2 116.7Q294.2 117.7 293.6 118.3Q292.9 119.0 291.9 119.0Q290.9 119.0 290.2 118.4Q289.5 117.7 289.5 116.6L289.5 116.6ZM290.6 116.1L290.6 116.7Q290.6 117.3 291.0 117.7Q291.3 118.1 291.9 118.1L291.9 118.1Q292.4 118.1 292.8 117.7Q293.1 117.3 293.1 116.6L293.1 116.6L293.1 116.1Q293.1 115.4 292.8 115.0Q292.4 114.7 291.9 114.7L291.9 114.7Q291.3 114.7 291.0 115.0Q290.6 115.4 290.6 116.1L290.6 116.1ZM292.2 109.1L286.7 118.0L285.9 117.5L291.4 108.6L292.2 109.1Z "/></svg>