<svg width="375" height="200" viewBox="0 0 375 200" xmlns="http://www.w3.org/2000/svg"><mask id="satori_om-id"><rect x="0" y="0" width="375" height="123" fill="#fff"/></mask><clipPath id="satori_cp-id-0"><path x="0" y="0" width="375" height="8" d="M4,0 h367 a4,4 0 0 1 4,4 v0 a4,4 0 0 1 -4,4 h-367 a4,4 0 0 1 -4,-4 v0 a4,4 0 0 1 4,-4"/></clipPath><mask id="satori_om-id-0"><rect x="0" y="0" width="375" height="8" fill="#fff"/></mask><mask id="satori_om-id-0-0"><rect x="0" y="0" width="180" height="8" fill="#fff" mask="url(#satori_om-id-0)"/></mask><rect x="0" y="0" width="180" height="8" fill="#3572A5" clip-path="url(#satori_cp-id-0)" mask="url(#satori_om-id-0)"/><mask id="satori_om-id-0-1"><rect x="180" y="0" width="50" height="8" fill="#fff" mask="url(#satori_om-id-0)"/></mask><rect x="180" y="0" width="50" height="8" fill="#3178c6" clip-path="url(#satori_cp-id-0)" mask="url(#satori_om-id-0)"/><mask id="satori_om-id-0-2"><rect x="230" y="0" width="47" height="8" fill="#fff" mask="url(#satori_om-id-0)"/></mask><rect x="230" y="0" width="47" height="8" fill="#f1e05a" clip-path="url(#satori_cp-id-0)" mask="url(#satori_om-id-0)"/><mask id="satori_om-id-0-3"><rect x="277" y="0" width="33" height="8" fill="#fff" mask="url(#satori_om-id-0)"/></mask><rect x="277" y="0" width="33" height="8" fill="#00ADD8" clip-path="url(#satori_cp-id-0)" mask="url(#satori_om-id-0)"/><mask id="satori_om-id-0-4"><rect x="310" y="0" width="23" height="8" fill="#fff" mask="url(#satori_om-id-0)"/></mask><rect x="310" y="0" width="23" height="8" fill="#e34c26" clip-path="url(#satori_cp-id-0)" mask="url(#satori_om-id-0)"/><mask id="satori_om-id-0-5"><rect x="333" y="0" width="21" height="8" fill="#fff" mask="url(#satori_om-id-0)"/></mask><rect x="333" y="0" width="21" height="8" fill="#663399" clip-path="url(#satori_cp-id-0)" mask="url(#satori_om-id-0)"/><mask id="satori_om-id-0-6"><rect x="354" y="0" width="13" height="8" fill="#fff" mask="url(#satori_om-id-0)"/></mask><rect x="354" y="0" width="13" height="8" fill="#dea584" clip-path="url(#satori_cp-id-0)" mask="url(#satori_om-id-0)"/><mask id="satori_om-id-0-7"><rect x="367" y="0" width="4" height="8" fill="#fff" mask="url(#satori_om-id-0)"/></mask><rect x="367" y="0" width="4" height="8" fill="#336790" clip-path="url(#satori_cp-id-0)" mask="url(#satori_om-id-0)"/><mask id="satori_om-id-0-8"><rect x="371" y="0" width="4" height="8" fill="#fff" mask="url(#satori_om-id-0)"/></mask><rect x="371" y="0" width="4" height="8" fill="#384d54" clip-path="url(#satori_cp-id-0)" mask="url(#satori_om-id-0)"/><mask id="satori_om-id-1"><rect x="0" y="18" width="375" height="105" fill="#fff"/></mask><mask id="satori_om-id-1-0"><rect x="0" y="18" width="132" height="19" fill="#fff"/></mask><mask id="satori_om-id-1-0-0"><rect x="0" y="19" width="16" height="16" fill="#fff"/></mask><mask id="satori_om-id-1-0-0-0"><rect x="4" y="23" width="8" height="8" fill="#fff"/></mask><path x="4" y="23" width="8" height="8" fill="#3572A5" d="M8,23 h0 a4,4 0 0 1 4,4 v0 a4,4 0 0 1 -4,4 h0 a4,4 0 0 1 -4,-4 v0 a4,4 0 0 1 4,-4"/><mask id="satori_om-id-1-0-1"><rect x="29" y="18" width="51" height="19" fill="#fff"/></mask><path fill="#24292f" d="M34.4 28.8L32.4 28.8L32.4 32.8L30.0 32.8L30.0 21.5L34.5 21.5Q35.7 21.5 36.7 21.9Q37.7 22.4 38.2 23.3Q38.7 24.1 38.7 25.2L38.7 25.2Q38.7 26.9 37.6 27.9Q36.4 28.8 34.4 28.8L34.4 28.8ZM32.4 23.4L32.4 26.9L34.5 26.9Q35.4 26.9 35.9 26.5Q36.4 26.1 36.4 25.3L36.4 25.3Q36.4 24.4 35.9 23.9Q35.4 23.4 34.5 23.4L34.5 23.4L32.4 23.4ZM41.9 24.4L43.5 29.6L45.0 24.4L47.4 24.4L44.0 34.2L43.9 34.6Q43.1 36.3 41.4 36.3L41.4 36.3Q40.9 36.3 40.4 36.1L40.4 36.1L40.4 34.4L40.7 34.4Q41.3 34.4 41.7 34.2Q42.0 34.0 42.2 33.6L42.2 33.6L42.4 32.9L39.5 24.4L41.9 24.4ZM48.8 22.3L51.0 22.3L51.0 24.4L52.5 24.4L52.5 26.0L51.0 26.0L51.0 30.3Q51.0 30.7 51.2 30.9Q51.4 31.1 51.9 31.1L51.9 31.1Q52.3 31.1 52.6 31.1L52.6 31.1L52.6 32.8Q51.9 33 51.2 33L51.2 33Q48.8 33 48.8 30.6L48.8 30.6L48.8 26.0L47.5 26.0L47.5 24.4L48.8 24.4L48.8 22.3ZM55.9 20.8L55.9 25.3Q56.8 24.2 58.2 24.2L58.2 24.2Q61.0 24.2 61.0 27.4L61.0 27.4L61.0 32.8L58.7 32.8L58.7 27.5Q58.7 26.8 58.4 26.4Q58.1 26.1 57.4 26.1L57.4 26.1Q56.4 26.1 55.9 26.8L55.9 26.8L55.9 32.8L53.7 32.8L53.7 20.8L55.9 20.8ZM62.3 28.6L62.3 28.5Q62.3 27.3 62.8 26.3Q63.3 25.3 64.2 24.8Q65.1 24.2 66.3 24.2L66.3 24.2Q68.0 24.2 69.1 25.3Q70.2 26.3 70.3 28.1L70.3 28.1L70.4 28.7Q70.4 30.6 69.3 31.8Q68.2 33 66.4 33Q64.5 33 63.4 31.8Q62.3 30.7 62.3 28.6L62.3 28.6ZM64.6 28.7L64.6 28.7Q64.6 29.9 65.1 30.5Q65.5 31.2 66.4 31.2L66.4 31.2Q67.2 31.2 67.6 30.6Q68.1 29.9 68.1 28.5L68.1 28.5Q68.1 27.4 67.6 26.7Q67.2 26.1 66.3 26.1L66.3 26.1Q65.5 26.1 65.1 26.7Q64.6 27.4 64.6 28.7ZM71.7 24.4L73.8 24.4L73.9 25.4Q74.8 24.2 76.3 24.2L76.3 24.2Q77.7 24.2 78.3 25.0Q79.0 25.8 79.0 27.4L79.0 27.4L79.0 32.8L76.7 32.8L76.7 27.4Q76.7 26.7 76.4 26.4Q76.1 26.1 75.4 26.1L75.4 26.1Q74.4 26.1 74.0 26.9L74.0 26.9L74.0 32.8L71.7 32.8L71.7 24.4Z "/><mask id="satori_om-id-1-0-2"><rect x="89" y="18" width="43" height="19" fill="#fff"/></mask><path fill="#57606a" d="M96.0 21.5L96.0 29.0L97.6 29.0L97.6 30.2L96.0 30.2L96.0 32.8L94.6 32.8L94.6 30.2L89.4 30.2L89.4 29.4L94.5 21.5L96.0 21.5ZM94.4 23.8L91.1 29.0L94.6 29.0L94.6 23.4L94.4 23.8ZM105.8 24.4L105.8 24.4Q105.8 25.3 105.4 26.0Q104.9 26.6 104.2 27.0L104.2 27.0Q105.1 27.4 105.6 28.1Q106.1 28.8 106.1 29.8L106.1 29.8Q106.1 31.3 105.1 32.1Q104.1 33 102.5 33L102.5 33Q100.8 33 99.8 32.1Q98.9 31.2 98.9 29.8L98.9 29.8Q98.9 28.9 99.4 28.1Q99.9 27.4 100.8 27.0L100.8 27.0Q100 26.6 99.6 25.9Q99.1 25.3 99.1 24.4L99.1 24.4Q99.1 23 100.0 22.2Q101.0 21.3 102.5 21.3L102.5 21.3Q104.0 21.3 104.9 22.2Q105.8 23 105.8 24.4ZM104.6 29.7L104.6 29.7Q104.6 28.8 104.0 28.2Q103.4 27.6 102.5 27.6Q101.5 27.6 100.9 28.2Q100.3 28.8 100.3 29.7Q100.3 30.7 100.9 31.3Q101.5 31.8 102.5 31.8L102.5 31.8Q103.5 31.8 104.1 31.3Q104.6 30.7 104.6 29.7ZM102.5 22.5L102.5 22.5Q101.6 22.5 101.1 23.0Q100.6 23.6 100.6 24.5L100.6 24.5Q100.6 25.3 101.1 25.9Q101.6 26.4 102.5 26.4Q103.3 26.4 103.9 25.9Q104.4 25.3 104.4 24.5Q104.4 23.6 103.8 23.0Q103.3 22.5 102.5 22.5ZM108.1 32.1L108.1 32.1Q108.1 31.7 108.3 31.5Q108.5 31.2 109.0 31.2Q109.4 31.2 109.7 31.5Q109.9 31.7 109.9 32.1L109.9 32.1Q109.9 32.4 109.7 32.7Q109.4 32.9 109.0 32.9Q108.5 32.9 108.3 32.7Q108.1 32.4 108.1 32.1ZM119.3 26.1L119.3 28.0Q119.3 30.5 118.4 31.8Q117.5 33 115.7 33L115.7 33Q113.9 33 113.0 31.8Q112.1 30.6 112.1 28.2L112.1 28.2L112.1 26.3Q112.1 23.8 112.9 22.5Q113.8 21.3 115.7 21.3L115.7 21.3Q117.5 21.3 118.4 22.5Q119.2 23.7 119.3 26.1L119.3 26.1ZM117.8 28.4L117.8 26.0Q117.8 24.2 117.3 23.3Q116.8 22.5 115.7 22.5L115.7 22.5Q114.6 22.5 114.0 23.3Q113.5 24.2 113.5 25.9L113.5 25.9L113.5 28.2Q113.5 30.1 114.1 30.9Q114.6 31.8 115.7 31.8L115.7 31.8Q116.8 31.8 117.3 31.0Q117.8 30.2 117.8 28.4L117.8 28.4ZM121.0 24.2L121.0 23.7Q121.0 22.6 121.6 22.0Q122.3 21.3 123.3 21.3L123.3 21.3Q124.4 21.3 125.0 22.0Q125.6 22.6 125.6 23.7L125.6 23.7L125.6 24.3Q125.6 25.3 125.0 25.9Q124.3 26.6 123.3 26.6L123.3 26.6Q122.3 26.6 121.6 25.9Q121.0 25.3 121.0 24.2L121.0 24.2ZM122.1 23.7L122.1 24.3Q122.1 24.9 122.4 25.3Q122.8 25.7 123.3 25.7L123.3 25.7Q123.9 25.7 124.2 25.3Q124.6 24.9 124.6 24.2L124.6 24.2L124.6 23.7Q124.6 23.0 124.2 22.6Q123.9 22.3 123.3 22.3Q122.7 22.3 122.4 22.6Q122.1 23.0 122.1 23.7L122.1 23.7ZM126.5 30.6L126.5 30.1Q126.5 29.0 127.2 28.4Q127.8 27.7 128.9 27.7Q129.9 27.7 130.5 28.4Q131.2 29.0 131.2 30.1L131.2 30.1L131.2 30.7Q131.2 31.7 130.5 32.3Q129.9 33.0 128.9 33.0Q127.9 33.0 127.2 32.4Q126.5 31.7 126.5 30.6L126.5 30.6ZM127.6 30.1L127.6 30.7Q127.6 31.3 127.9 31.7Q128.3 32.1 128.9 32.1L128.9 32.1Q129.4 32.1 129.8 31.7Q130.1 31.3 130.1 30.6L130.1 30.6L130.1 30.1Q130.1 29.4 129.8 29.0Q129.4 28.7 128.9 28.7L128.9 28.7Q128.3 28.7 127.9 29.0Q127.6 29.4 127.6 30.1L127.6 30.1ZM129.2 23.1L123.7 32.0L122.8 31.5L128.4 22.6L129.2 23.1Z "/><mask id="satori_om-id-1-1"><rect x="142" y="18" width="160" height="19" fill="#fff"/></mask><mask id="satori_om-id-1-1-0"><rect x="142" y="19" width="16" height="16" fill="#fff"/></mask><mask id="satori_om-id-1-1-0-0"><rect x="146" y="23" width="8" height="8" fill="#fff"/></mask><path x="146" y="23" width="8" height="8" fill="#3178c6" d="M150,23 h0 a4,4 0 0 1 4,4 v0 a4,4 0 0 1 -4,4 h0 a4,4 0 0 1 -4,-4 v0 a4,4 0 0 1 4,-4"/><mask id="satori_om-id-1-1-1"><rect x="171" y="18" width="79" height="19" fill="#fff"/></mask><path fill="#24292f" d="M180.6 21.5L180.6 23.4L177.1 23.4L177.1 32.8L174.8 32.8L174.8 23.4L171.3 23.4L171.3 21.5L180.6 21.5ZM182.7 24.4L184.3 29.6L185.8 24.4L188.3 24.4L184.9 34.2L184.7 34.6Q183.9 36.3 182.2 36.3L182.2 36.3Q181.7 36.3 181.2 36.1L181.2 36.1L181.2 34.4L181.5 34.4Q182.2 34.4 182.5 34.2Q182.8 34.0 183.0 33.6L183.0 33.6L183.2 32.9L180.3 24.4L182.7 24.4ZM196.8 28.6L196.8 28.7Q196.8 30.6 195.9 31.8Q195.0 33 193.5 33L193.5 33Q192.2 33 191.4 32.1L191.4 32.1L191.4 36.1L189.2 36.1L189.2 24.4L191.3 24.4L191.3 25.2Q192.1 24.2 193.5 24.2L193.5 24.2Q195.0 24.2 195.9 25.4Q196.8 26.5 196.8 28.6L196.8 28.6ZM194.5 28.5L194.5 28.5Q194.5 27.4 194.1 26.7Q193.7 26.1 192.9 26.1L192.9 26.1Q191.8 26.1 191.4 26.9L191.4 26.9L191.4 30.3Q191.8 31.2 192.9 31.2L192.9 31.2Q194.5 31.2 194.5 28.5ZM202.1 33L202.1 33Q200.2 33 199.0 31.9Q197.9 30.7 197.9 28.8L197.9 28.8L197.9 28.6Q197.9 27.3 198.4 26.3Q198.8 25.3 199.7 24.8Q200.6 24.2 201.8 24.2L201.8 24.2Q203.5 24.2 204.5 25.3Q205.5 26.4 205.5 28.4L205.5 28.4L205.5 29.4L200.1 29.4Q200.3 30.2 200.8 30.7Q201.4 31.2 202.2 31.2L202.2 31.2Q203.5 31.2 204.2 30.2L204.2 30.2L205.4 31.5Q204.8 32.2 204.0 32.6Q203.1 33 202.1 33ZM201.8 26.1L201.8 26.1Q201.1 26.1 200.7 26.5Q200.3 27.0 200.2 27.8L200.2 27.8L203.3 27.8L203.3 27.6Q203.3 26.9 202.9 26.5Q202.5 26.1 201.8 26.1ZM212.9 29.9L212.9 29.9Q212.9 29.2 212.4 28.8Q211.9 28.5 210.7 28.1Q209.5 27.7 208.8 27.3L208.8 27.3Q206.8 26.3 206.8 24.5L206.8 24.5Q206.8 23.6 207.4 22.8Q207.9 22.1 208.8 21.7Q209.8 21.3 211.0 21.3L211.0 21.3Q212.3 21.3 213.2 21.8Q214.2 22.2 214.7 23Q215.2 23.8 215.2 24.8L215.2 24.8L212.9 24.8Q212.9 24.0 212.4 23.6Q211.9 23.2 211.0 23.2L211.0 23.2Q210.1 23.2 209.7 23.5Q209.2 23.9 209.2 24.5L209.2 24.5Q209.2 25.1 209.7 25.4Q210.3 25.8 211.4 26.1L211.4 26.1Q213.4 26.7 214.3 27.6Q215.2 28.5 215.2 29.8L215.2 29.8Q215.2 31.3 214.1 32.2Q213.0 33 211.1 33L211.1 33Q209.8 33 208.7 32.5Q207.6 32.0 207.1 31.2Q206.5 30.4 206.5 29.3L206.5 29.3L208.8 29.3Q208.8 31.1 211.1 31.1L211.1 31.1Q211.9 31.1 212.4 30.8Q212.9 30.5 212.9 29.9ZM220.2 31.2L220.2 31.2Q220.8 31.2 221.2 30.8Q221.6 30.5 221.6 29.9L221.6 29.9L223.7 29.9Q223.7 30.8 223.2 31.5Q222.8 32.2 222.0 32.6Q221.2 33 220.2 33L220.2 33Q218.4 33 217.3 31.8Q216.3 30.7 216.3 28.7L216.3 28.7L216.3 28.5Q216.3 26.6 217.3 25.4Q218.4 24.2 220.2 24.2L220.2 24.2Q221.8 24.2 222.7 25.1Q223.7 26.0 223.7 27.5L223.7 27.5L221.6 27.5Q221.6 26.9 221.2 26.5Q220.8 26.1 220.1 26.1L220.1 26.1Q219.4 26.1 219.0 26.6Q218.6 27.2 218.6 28.5L218.6 28.5L218.6 28.7Q218.6 30.0 219.0 30.6Q219.4 31.2 220.2 31.2ZM229.8 24.3L229.7 26.5Q229.3 26.4 228.9 26.4L228.9 26.4Q227.6 26.4 227.3 27.3L227.3 27.3L227.3 32.8L225.0 32.8L225.0 24.4L227.1 24.4L227.2 25.4Q227.9 24.2 229.1 24.2L229.1 24.2Q229.4 24.2 229.8 24.3L229.8 24.3ZM233.2 24.4L233.2 32.8L230.9 32.8L230.9 24.4L233.2 24.4ZM230.8 22.2L230.8 22.2Q230.8 21.7 231.2 21.4Q231.5 21.0 232.1 21.0L232.1 21.0Q232.7 21.0 233 21.4Q233.3 21.7 233.3 22.2L233.3 22.2Q233.3 22.7 233.0 23.0Q232.6 23.4 232.1 23.4Q231.5 23.4 231.2 23.0Q230.8 22.7 230.8 22.2ZM242.7 28.6L242.7 28.7Q242.7 30.6 241.8 31.8Q240.9 33 239.4 33L239.4 33Q238.1 33 237.3 32.1L237.3 32.1L237.3 36.1L235.1 36.1L235.1 24.4L237.2 24.4L237.2 25.2Q238.1 24.2 239.4 24.2L239.4 24.2Q240.9 24.2 241.8 25.4Q242.7 26.5 242.7 28.6L242.7 28.6ZM240.4 28.5L240.4 28.5Q240.4 27.4 240.0 26.7Q239.6 26.1 238.8 26.1L238.8 26.1Q237.7 26.1 237.3 26.9L237.3 26.9L237.3 30.3Q237.7 31.2 238.8 31.2L238.8 31.2Q240.4 31.2 240.4 28.5ZM244.5 22.3L246.8 22.3L246.8 24.4L248.2 24.4L248.2 26.0L246.8 26.0L246.8 30.3Q246.8 30.7 247.0 30.9Q247.1 31.1 247.6 31.1L247.6 31.1Q248.0 31.1 248.3 31.1L248.3 31.1L248.3 32.8Q247.6 33 246.9 33L246.9 33Q244.6 33 244.5 30.6L244.5 30.6L244.5 26.0L243.3 26.0L243.3 24.4L244.5 24.4L244.5 22.3Z "/><mask id="satori_om-id-1-1-2"><rect x="259" y="18" width="43" height="19" fill="#fff"/></mask><path fill="#57606a" d="M264.7 21.4L264.7 32.8L263.2 32.8L263.2 23.2L260.3 24.3L260.3 23.0L264.5 21.4L264.7 21.4ZM271.0 27.6L271.0 26.5L272.1 26.5Q273.1 26.4 273.7 25.9Q274.3 25.4 274.3 24.5L274.3 24.5Q274.3 22.5 272.3 22.5L272.3 22.5Q271.4 22.5 270.8 23.0Q270.3 23.6 270.3 24.5L270.3 24.5L268.8 24.5Q268.8 23.1 269.8 22.2Q270.8 21.3 272.3 21.3L272.3 21.3Q273.9 21.3 274.8 22.2Q275.8 23.0 275.8 24.5L275.8 24.5Q275.8 25.3 275.3 26.0Q274.8 26.7 274.0 27.0L274.0 27.0Q274.9 27.3 275.4 28.0Q275.9 28.7 275.9 29.7L275.9 29.7Q275.9 31.2 274.9 32.1Q273.9 33 272.3 33Q270.7 33 269.7 32.1Q268.7 31.3 268.7 29.8L268.7 29.8L270.2 29.8Q270.2 30.7 270.8 31.3Q271.3 31.8 272.3 31.8L272.3 31.8Q273.4 31.8 273.9 31.3Q274.5 30.7 274.5 29.7L274.5 29.7Q274.5 28.7 273.9 28.2Q273.3 27.6 272.1 27.6L272.1 27.6L271.0 27.6ZM278.1 32.1L278.1 32.1Q278.1 31.7 278.3 31.5Q278.5 31.2 279.0 31.2Q279.4 31.2 279.7 31.5Q279.9 31.7 279.9 32.1L279.9 32.1Q279.9 32.4 279.7 32.7Q279.4 32.9 279.0 32.9Q278.5 32.9 278.3 32.7Q278.1 32.4 278.1 32.1ZM284.2 27.6L284.2 26.5L285.3 26.5Q286.3 26.4 286.9 25.9Q287.5 25.4 287.5 24.5L287.5 24.5Q287.5 22.5 285.5 22.5L285.5 22.5Q284.6 22.5 284.0 23.0Q283.5 23.6 283.5 24.5L283.5 24.5L282.0 24.5Q282.0 23.1 283.0 22.2Q284.0 21.3 285.5 21.3L285.5 21.3Q287.1 21.3 288.0 22.2Q289.0 23.0 289.0 24.5L289.0 24.5Q289.0 25.3 288.5 26.0Q288.0 26.7 287.2 27.0L287.2 27.0Q288.1 27.3 288.6 28.0Q289.1 28.7 289.1 29.7L289.1 29.7Q289.1 31.2 288.1 32.1Q287.1 33 285.5 33Q283.9 33 282.9 32.1Q281.9 31.3 281.9 29.8L281.9 29.8L283.4 29.8Q283.4 30.7 284.0 31.3Q284.5 31.8 285.5 31.8L285.5 31.8Q286.6 31.8 287.1 31.3Q287.7 30.7 287.7 29.7L287.7 29.7Q287.7 28.7 287.1 28.2Q286.5 27.6 285.3 27.6L285.3 27.6L284.2 27.6ZM291.0 24.2L291.0 23.7Q291.0 22.6 291.6 22.0Q292.3 21.3 293.3 21.3L293.3 21.3Q294.4 21.3 295.0 22.0Q295.6 22.6 295.6 23.7L295.6 23.7L295.6 24.3Q295.6 25.3 295.0 25.9Q294.3 26.6 293.3 26.6L293.3 26.6Q292.3 26.6 291.6 25.9Q291.0 25.3 291.0 24.2L291.0 24.2ZM292.1 23.7L292.1 24.3Q292.1 24.9 292.4 25.3Q292.8 25.7 293.3 25.7L293.3 25.7Q293.9 25.7 294.2 25.3Q294.6 24.9 294.6 24.2L294.6 24.2L294.6 23.7Q294.6 23.0 294.2 22.6Q293.9 22.3 293.3 22.3Q292.7 22.3 292.4 22.6Q292.1 23.0 292.1 23.7L292.1 23.7ZM296.5 30.6L296.5 30.1Q296.5 29.0 297.2 28.4Q297.8 27.7 298.9 27.7Q299.9 27.7 300.5 28.4Q301.2 29.0 301.2 30.1L301.2 30.1L301.2 30.7Q301.2 31.7 300.5 32.3Q299.9 33.0 298.9 33.0Q297.9 33.0 297.2 32.4Q296.5 31.7 296.5 30.6L296.5 30.6ZM297.6 30.1L297.6 30.7Q297.6 31.3 297.9 31.7Q298.3 32.1 298.9 32.1L298.9 32.1Q299.4 32.1 299.8 31.7Q300.1 31.3 300.1 30.6L300.1 30.6L300.1 30.1Q300.1 29.4 299.8 29.0Q299.4 28.7 298.9 28.7L298.9 28.7Q298.3 28.7 297.9 29.0Q297.6 29.4 297.6 30.1L297.6 30.1ZM299.2 23.1L293.7 32.0L292.8 31.5L298.4 22.6L299.2 23.1Z "/><mask id="satori_om-id-1-2"><rect x="0" y="47" width="158" height="19" fill="#fff"/></mask><mask id="satori_om-id-1-2-0"><rect x="0" y="48" width="16" height="16" fill="#fff"/></mask><mask id="satori_om-id-1-2-0-0"><rect x="4" y="52" width="8" height="8" fill="#fff"/></mask><path x="4" y="52" width="8" height="8" fill="#f1e05a" d="M8,52 h0 a4,4 0 0 1 4,4 v0 a4,4 0 0 1 -4,4 h0 a4,4 0 0 1 -4,-4 v0 a4,4 0 0 1 4,-4"/><mask id="satori_om-id-1-2-1"><rect x="29" y="47" width="77" height="19" fill="#fff"/></mask><path fill="#24292f" d="M34.6 58.3L34.6 50.5L36.9 50.5L36.9 58.3Q36.9 59.4 36.5 60.3Q36.0 61.1 35.1 61.5Q34.2 62 33.1 62L33.1 62Q31.3 62 30.3 61.1Q29.3 60.2 29.3 58.5L29.3 58.5L31.7 58.5Q31.7 59.3 32.0 59.7Q32.4 60.1 33.1 60.1L33.1 60.1Q33.8 60.1 34.2 59.7Q34.6 59.2 34.6 58.3L34.6 58.3ZM46.0 61.8L43.7 61.8Q43.5 61.5 43.5 61.1L43.5 61.1Q42.7 62 41.3 62L41.3 62Q40.1 62 39.3 61.3Q38.5 60.6 38.5 59.5L38.5 59.5Q38.5 58.1 39.5 57.4Q40.5 56.7 42.3 56.7L42.3 56.7L43.4 56.7L43.4 56.2Q43.4 55.6 43.1 55.3Q42.8 54.9 42.1 54.9L42.1 54.9Q41.6 54.9 41.2 55.2Q40.9 55.5 40.9 55.9L40.9 55.9L38.7 55.9Q38.7 55.2 39.1 54.6Q39.6 53.9 40.4 53.6Q41.2 53.2 42.3 53.2L42.3 53.2Q43.8 53.2 44.7 54.0Q45.6 54.8 45.6 56.2L45.6 56.2L45.6 59.9Q45.7 61.1 46.0 61.7L46.0 61.7L46.0 61.8ZM41.8 60.3L41.8 60.3Q42.3 60.3 42.8 60.1Q43.2 59.8 43.4 59.5L43.4 59.5L43.4 58L42.5 58Q40.8 58 40.7 59.2L40.7 59.2L40.7 59.3Q40.7 59.7 41.0 60Q41.3 60.3 41.8 60.3ZM48.9 53.4L50.4 59.1L52 53.4L54.4 53.4L51.5 61.8L49.4 61.8L46.5 53.4L48.9 53.4ZM62.4 61.8L60.1 61.8Q60.0 61.5 59.9 61.1L59.9 61.1Q59.1 62 57.8 62L57.8 62Q56.5 62 55.7 61.3Q54.9 60.6 54.9 59.5L54.9 59.5Q54.9 58.1 55.9 57.4Q56.9 56.7 58.8 56.7L58.8 56.7L59.8 56.7L59.8 56.2Q59.8 55.6 59.5 55.3Q59.2 54.9 58.6 54.9L58.6 54.9Q58.0 54.9 57.7 55.2Q57.3 55.5 57.3 55.9L57.3 55.9L55.1 55.9Q55.1 55.2 55.5 54.6Q56.0 53.9 56.8 53.6Q57.6 53.2 58.7 53.2L58.7 53.2Q60.2 53.2 61.2 54.0Q62.1 54.8 62.1 56.2L62.1 56.2L62.1 59.9Q62.1 61.1 62.4 61.7L62.4 61.7L62.4 61.8ZM58.3 60.3L58.3 60.3Q58.8 60.3 59.2 60.1Q59.6 59.8 59.8 59.5L59.8 59.5L59.8 58L59.0 58Q57.3 58 57.2 59.2L57.2 59.2L57.2 59.3Q57.2 59.7 57.5 60Q57.8 60.3 58.3 60.3ZM69.9 58.9L69.9 58.9Q69.9 58.2 69.4 57.8Q68.9 57.5 67.7 57.1Q66.5 56.7 65.8 56.3L65.8 56.3Q63.8 55.3 63.8 53.5L63.8 53.5Q63.8 52.6 64.4 51.8Q64.9 51.1 65.8 50.7Q66.8 50.3 68.0 50.3L68.0 50.3Q69.3 50.3 70.2 50.8Q71.2 51.2 71.7 52Q72.2 52.8 72.2 53.8L72.2 53.8L69.9 53.8Q69.9 53.0 69.4 52.6Q68.9 52.2 68.0 52.2L68.0 52.2Q67.1 52.2 66.7 52.5Q66.2 52.9 66.2 53.5L66.2 53.5Q66.2 54.1 66.7 54.4Q67.3 54.8 68.4 55.1L68.4 55.1Q70.4 55.7 71.3 56.6Q72.2 57.5 72.2 58.8L72.2 58.8Q72.2 60.3 71.1 61.2Q70.0 62 68.1 62L68.1 62Q66.8 62 65.7 61.5Q64.6 61.0 64.1 60.2Q63.5 59.4 63.5 58.3L63.5 58.3L65.8 58.3Q65.8 60.1 68.1 60.1L68.1 60.1Q68.9 60.1 69.4 59.8Q69.9 59.5 69.9 58.9ZM77.2 60.2L77.2 60.2Q77.8 60.2 78.2 59.8Q78.6 59.5 78.6 58.9L78.6 58.9L80.7 58.9Q80.7 59.8 80.2 60.5Q79.8 61.2 79.0 61.6Q78.2 62 77.2 62L77.2 62Q75.4 62 74.3 60.8Q73.3 59.7 73.3 57.7L73.3 57.7L73.3 57.5Q73.3 55.6 74.3 54.4Q75.4 53.2 77.2 53.2L77.2 53.2Q78.8 53.2 79.7 54.1Q80.7 55.0 80.7 56.5L80.7 56.5L78.6 56.5Q78.6 55.9 78.2 55.5Q77.8 55.1 77.1 55.1L77.1 55.1Q76.4 55.1 76.0 55.6Q75.6 56.2 75.6 57.5L75.6 57.5L75.6 57.7Q75.6 59.0 76.0 59.6Q76.4 60.2 77.2 60.2ZM86.8 53.3L86.7 55.5Q86.3 55.4 85.9 55.4L85.9 55.4Q84.6 55.4 84.3 56.3L84.3 56.3L84.3 61.8L82.0 61.8L82.0 53.4L84.1 53.4L84.2 54.4Q84.9 53.2 86.1 53.2L86.1 53.2Q86.4 53.2 86.8 53.3L86.8 53.3ZM90.2 53.4L90.2 61.8L87.9 61.8L87.9 53.4L90.2 53.4ZM87.8 51.2L87.8 51.2Q87.8 50.7 88.2 50.4Q88.5 50.0 89.1 50.0L89.1 50.0Q89.7 50.0 90 50.4Q90.3 50.7 90.3 51.2L90.3 51.2Q90.3 51.7 90.0 52.0Q89.6 52.4 89.1 52.4Q88.5 52.4 88.2 52.0Q87.8 51.7 87.8 51.2ZM99.7 57.6L99.7 57.7Q99.7 59.6 98.8 60.8Q97.9 62 96.4 62L96.4 62Q95.1 62 94.3 61.1L94.3 61.1L94.3 65.1L92.1 65.1L92.1 53.4L94.2 53.4L94.2 54.2Q95.1 53.2 96.4 53.2L96.4 53.2Q97.9 53.2 98.8 54.4Q99.7 55.5 99.7 57.6L99.7 57.6ZM97.4 57.5L97.4 57.5Q97.4 56.4 97.0 55.7Q96.6 55.1 95.8 55.1L95.8 55.1Q94.7 55.1 94.3 55.9L94.3 55.9L94.3 59.3Q94.7 60.2 95.8 60.2L95.8 60.2Q97.4 60.2 97.4 57.5ZM101.5 51.3L103.8 51.3L103.8 53.4L105.2 53.4L105.2 55.0L103.8 55.0L103.8 59.3Q103.8 59.7 104.0 59.9Q104.1 60.1 104.6 60.1L104.6 60.1Q105.0 60.1 105.3 60.1L105.3 60.1L105.3 61.8Q104.6 62 103.9 62L103.9 62Q101.6 62 101.5 59.6L101.5 59.6L101.5 55.0L100.3 55.0L100.3 53.4L101.5 53.4L101.5 51.3Z "/><mask id="satori_om-id-1-2-2"><rect x="115" y="47" width="43" height="19" fill="#fff"/></mask><path fill="#57606a" d="M120.7 50.4L120.7 61.8L119.2 61.8L119.2 52.2L116.3 53.3L116.3 52.0L120.5 50.4L120.7 50.4ZM132.4 60.7L132.4 61.8L124.9 61.8L124.9 60.8L128.9 56.4Q129.7 55.4 130.1 54.8Q130.4 54.2 130.4 53.5L130.4 53.5Q130.4 52.6 129.9 52.1Q129.3 51.5 128.4 51.5L128.4 51.5Q127.4 51.5 126.8 52.1Q126.2 52.7 126.2 53.8L126.2 53.8L124.7 53.8Q124.7 52.3 125.7 51.3Q126.7 50.3 128.4 50.3L128.4 50.3Q130.0 50.3 130.9 51.1Q131.9 52.0 131.9 53.4L131.9 53.4Q131.9 55.0 129.7 57.4L129.7 57.4L126.7 60.7L132.4 60.7ZM134.1 61.1L134.1 61.1Q134.1 60.7 134.3 60.5Q134.5 60.2 135.0 60.2Q135.4 60.2 135.7 60.5Q135.9 60.7 135.9 61.1L135.9 61.1Q135.9 61.4 135.7 61.7Q135.4 61.9 135.0 61.9Q134.5 61.9 134.3 61.7Q134.1 61.4 134.1 61.1ZM145.5 50.5L145.5 51.3L140.8 61.8L139.2 61.8L143.9 51.7L137.8 51.7L137.8 50.5L145.5 50.5ZM147.0 53.2L147.0 52.7Q147.0 51.6 147.6 51.0Q148.3 50.3 149.3 50.3L149.3 50.3Q150.4 50.3 151.0 51.0Q151.6 51.6 151.6 52.7L151.6 52.7L151.6 53.3Q151.6 54.3 151.0 54.9Q150.3 55.6 149.3 55.6L149.3 55.6Q148.3 55.6 147.6 54.9Q147.0 54.3 147.0 53.2L147.0 53.2ZM148.1 52.7L148.1 53.3Q148.1 53.9 148.4 54.3Q148.8 54.7 149.3 54.7L149.3 54.7Q149.9 54.7 150.2 54.3Q150.6 53.9 150.6 53.2L150.6 53.2L150.6 52.7Q150.6 52.0 150.2 51.6Q149.9 51.3 149.3 51.3Q148.7 51.3 148.4 51.6Q148.1 52.0 148.1 52.7L148.1 52.7ZM152.5 59.6L152.5 59.1Q152.5 58.0 153.2 57.4Q153.8 56.7 154.9 56.7Q155.9 56.7 156.5 57.4Q157.2 58.0 157.2 59.1L157.2 59.1L157.2 59.7Q157.2 60.7 156.5 61.3Q155.9 62.0 154.9 62.0Q153.9 62.0 153.2 61.4Q152.5 60.7 152.5 59.6L152.5 59.6ZM153.6 59.1L153.6 59.7Q153.6 60.3 153.9 60.7Q154.3 61.1 154.9 61.1L154.9 61.1Q155.4 61.1 155.8 60.7Q156.1 60.3 156.1 59.6L156.1 59.6L156.1 59.1Q156.1 58.4 155.8 58.0Q155.4 57.7 154.9 57.7L154.9 57.7Q154.3 57.7 153.9 58.0Q153.6 58.4 153.6 59.1L153.6 59.1ZM155.2 52.1L149.7 61.0L148.8 60.5L154.4 51.6L155.2 52.1Z "/><mask id="satori_om-id-1-3"><rect x="168" y="47" width="92" height="19" fill="#fff"/></mask><mask id="satori_om-id-1-3-0"><rect x="168" y="48" width="16" height="16" fill="#fff"/></mask><mask id="satori_om-id-1-3-0-0"><rect x="172" y="52" width="8" height="8" fill="#fff"/></mask><path x="172" y="52" width="8" height="8" fill="#00ADD8" d="M176,52 h0 a4,4 0 0 1 4,4 v0 a4,4 0 0 1 -4,4 h0 a4,4 0 0 1 -4,-4 v0 a4,4 0 0 1 4,-4"/><mask id="satori_om-id-1-3-1"><rect x="197" y="47" width="20" height="19" fill="#fff"/></mask><path fill="#24292f" d="M207.0 55.9L207.0 60.4Q206.4 61.2 205.2 61.6Q204.1 62 202.7 62L202.7 62Q201.2 62 200.1 61.4Q199.0 60.7 198.4 59.5Q197.8 58.3 197.7 56.6L197.7 56.6L197.7 55.8Q197.7 54.1 198.3 52.9Q198.9 51.6 200.0 51.0Q201.0 50.3 202.5 50.3L202.5 50.3Q204.5 50.3 205.7 51.3Q206.8 52.2 207.0 54.1L207.0 54.1L204.7 54.1Q204.6 53.1 204.0 52.7Q203.5 52.2 202.6 52.2L202.6 52.2Q201.4 52.2 200.8 53.1Q200.1 54 200.1 55.8L200.1 55.8L200.1 56.5Q200.1 58.3 200.8 59.2Q201.5 60.1 202.8 60.1L202.8 60.1Q204.1 60.1 204.7 59.6L204.7 59.6L204.7 57.6L202.5 57.6L202.5 55.9L207.0 55.9ZM208.4 57.6L208.4 57.5Q208.4 56.3 208.9 55.3Q209.4 54.3 210.3 53.8Q211.2 53.2 212.4 53.2L212.4 53.2Q214.1 53.2 215.2 54.3Q216.3 55.3 216.4 57.1L216.4 57.1L216.4 57.7Q216.4 59.6 215.3 60.8Q214.3 62 212.4 62Q210.6 62 209.5 60.8Q208.4 59.7 208.4 57.6L208.4 57.6ZM210.7 57.7L210.7 57.7Q210.7 58.9 211.1 59.5Q211.6 60.2 212.4 60.2L212.4 60.2Q213.2 60.2 213.7 59.6Q214.2 58.9 214.2 57.5L214.2 57.5Q214.2 56.4 213.7 55.7Q213.2 55.1 212.4 55.1L212.4 55.1Q211.6 55.1 211.1 55.7Q210.7 56.4 210.7 57.7Z "/><mask id="satori_om-id-1-3-2"><rect x="226" y="47" width="34" height="19" fill="#fff"/></mask><path fill="#57606a" d="M233.8 53.4L233.8 53.4Q233.8 54.3 233.4 55.0Q232.9 55.6 232.2 56.0L232.2 56.0Q233.1 56.4 233.6 57.1Q234.1 57.8 234.1 58.8L234.1 58.8Q234.1 60.3 233.1 61.1Q232.1 62 230.5 62L230.5 62Q228.9 62 227.9 61.1Q226.9 60.2 226.9 58.8L226.9 58.8Q226.9 57.9 227.4 57.1Q227.9 56.4 228.8 56.0L228.8 56.0Q228.0 55.6 227.6 54.9Q227.1 54.3 227.1 53.4L227.1 53.4Q227.1 52 228.1 51.2Q229.0 50.3 230.5 50.3L230.5 50.3Q232.0 50.3 232.9 51.2Q233.8 52 233.8 53.4ZM232.7 58.7L232.7 58.7Q232.7 57.8 232.1 57.2Q231.5 56.6 230.5 56.6Q229.5 56.6 228.9 57.2Q228.3 57.8 228.3 58.7Q228.3 59.7 228.9 60.3Q229.5 60.8 230.5 60.8L230.5 60.8Q231.5 60.8 232.1 60.3Q232.7 59.7 232.7 58.7ZM230.5 51.5L230.5 51.5Q229.6 51.5 229.1 52.0Q228.6 52.6 228.6 53.5L228.6 53.5Q228.6 54.3 229.1 54.9Q229.6 55.4 230.5 55.4Q231.4 55.4 231.9 54.9Q232.4 54.3 232.4 53.5Q232.4 52.6 231.9 52.0Q231.3 51.5 230.5 51.5ZM236.1 61.1L236.1 61.1Q236.1 60.7 236.3 60.5Q236.6 60.2 237 60.2Q237.4 60.2 237.7 60.5Q237.9 60.7 237.9 61.1L237.9 61.1Q237.9 61.4 237.7 61.7Q237.4 61.9 237 61.9Q236.6 61.9 236.3 61.7Q236.1 61.4 236.1 61.1ZM245.6 50.5L245.8 50.5L245.8 51.7L245.5 51.7Q243.9 51.7 242.9 52.7Q241.9 53.7 241.7 55.4L241.7 55.4Q242.6 54.4 244.2 54.4L244.2 54.4Q245.6 54.4 246.5 55.4Q247.4 56.5 247.4 58.1L247.4 58.1Q247.4 59.9 246.5 60.9Q245.5 62 243.9 62L243.9 62Q242.3 62 241.2 60.7Q240.2 59.5 240.2 57.5L240.2 57.5L240.2 57.0Q240.2 53.8 241.6 52.2Q242.9 50.5 245.6 50.5L245.6 50.5ZM243.9 55.6L243.9 55.6Q243.2 55.6 242.5 56.0Q241.9 56.5 241.7 57.1L241.7 57.1L241.7 57.7Q241.7 59.1 242.3 59.9Q242.9 60.8 243.9 60.8L243.9 60.8Q244.9 60.8 245.4 60.1Q246.0 59.4 246.0 58.2L246.0 58.2Q246.0 57.0 245.4 56.3Q244.9 55.6 243.9 55.6ZM249 53.2L249 52.7Q249 51.6 249.7 51.0Q250.3 50.3 251.3 50.3L251.3 50.3Q252.4 50.3 253.0 51.0Q253.7 51.6 253.7 52.7L253.7 52.7L253.7 53.3Q253.7 54.3 253.0 54.9Q252.4 55.6 251.3 55.6L251.3 55.6Q250.3 55.6 249.7 54.9Q249 54.3 249 53.2L249 53.2ZM250.1 52.7L250.1 53.3Q250.1 53.9 250.4 54.3Q250.8 54.7 251.3 54.7L251.3 54.7Q251.9 54.7 252.2 54.3Q252.6 53.9 252.6 53.2L252.6 53.2L252.6 52.7Q252.6 52.0 252.2 51.6Q251.9 51.3 251.3 51.3Q250.8 51.3 250.4 51.6Q250.1 52.0 250.1 52.7L250.1 52.7ZM254.5 59.6L254.5 59.1Q254.5 58.0 255.2 57.4Q255.8 56.7 256.9 56.7Q257.9 56.7 258.5 57.4Q259.2 58.0 259.2 59.1L259.2 59.1L259.2 59.7Q259.2 60.7 258.6 61.3Q257.9 62.0 256.9 62.0Q255.9 62.0 255.2 61.4Q254.5 60.7 254.5 59.6L254.5 59.6ZM255.6 59.1L255.6 59.7Q255.6 60.3 256.0 60.7Q256.3 61.1 256.9 61.1L256.9 61.1Q257.4 61.1 257.8 60.7Q258.1 60.3 258.1 59.6L258.1 59.6L258.1 59.1Q258.1 58.4 257.8 58.0Q257.4 57.7 256.9 57.7L256.9 57.7Q256.3 57.7 256.0 58.0Q255.6 58.4 255.6 59.1L255.6 59.1ZM257.2 52.1L251.7 61.0L250.9 60.5L256.4 51.6L257.2 52.1Z "/><mask id="satori_om-id-1-4"><rect x="0" y="76" width="116" height="18" fill="#fff"/></mask><mask id="satori_om-id-1-4-0"><rect x="0" y="77" width="16" height="16" fill="#fff"/></mask><mask id="satori_om-id-1-4-0-0"><rect x="4" y="81" width="8" height="8" fill="#fff"/></mask><path x="4" y="81" width="8" height="8" fill="#e34c26" d="M8,81 h0 a4,4 0 0 1 4,4 v0 a4,4 0 0 1 -4,4 h0 a4,4 0 0 1 -4,-4 v0 a4,4 0 0 1 4,-4"/><mask id="satori_om-id-1-4-1"><rect x="29" y="76" width="44" height="18" fill="#fff"/></mask><path fill="#24292f" d="M39.3 79.5L39.3 90.8L36.9 90.8L36.9 86.0L32.4 86.0L32.4 90.8L30.0 90.8L30.0 79.5L32.4 79.5L32.4 84.1L36.9 84.1L36.9 79.5L39.3 79.5ZM49.7 79.5L49.7 81.4L46.2 81.4L46.2 90.8L43.8 90.8L43.8 81.4L40.4 81.4L40.4 79.5L49.7 79.5ZM51.0 79.5L54.1 79.5L57.0 87.7L59.9 79.5L63.0 79.5L63.0 90.8L60.6 90.8L60.6 87.7L60.8 82.4L57.8 90.8L56.2 90.8L53.1 82.4L53.3 87.7L53.3 90.8L51.0 90.8L51.0 79.5ZM67.4 79.5L67.4 89.0L72.3 89.0L72.3 90.8L65.0 90.8L65.0 79.5L67.4 79.5Z "/><mask id="satori_om-id-1-4-2"><rect x="82" y="76" width="34" height="18" fill="#fff"/></mask><path fill="#57606a" d="M88.4 79.5L88.6 79.5L88.6 80.7L88.4 80.7Q86.7 80.7 85.7 81.7Q84.7 82.7 84.5 84.4L84.5 84.4Q85.4 83.4 87.0 83.4L87.0 83.4Q88.4 83.4 89.3 84.4Q90.2 85.5 90.2 87.1L90.2 87.1Q90.2 88.9 89.3 89.9Q88.3 91 86.7 91L86.7 91Q85.1 91 84.0 89.7Q83.0 88.5 83.0 86.5L83.0 86.5L83.0 86.0Q83.0 82.8 84.4 81.2Q85.7 79.5 88.4 79.5L88.4 79.5ZM86.7 84.6L86.7 84.6Q86.0 84.6 85.4 85.0Q84.7 85.5 84.5 86.1L84.5 86.1L84.5 86.7Q84.5 88.1 85.1 88.9Q85.8 89.8 86.7 89.8L86.7 89.8Q87.7 89.8 88.2 89.1Q88.8 88.4 88.8 87.2L88.8 87.2Q88.8 86.0 88.2 85.3Q87.7 84.6 86.7 84.6ZM92.1 90.1L92.1 90.1Q92.1 89.7 92.3 89.5Q92.6 89.2 93 89.2Q93.4 89.2 93.7 89.5Q93.9 89.7 93.9 90.1L93.9 90.1Q93.9 90.4 93.7 90.7Q93.4 90.9 93 90.9Q92.6 90.9 92.3 90.7Q92.1 90.4 92.1 90.1ZM103.6 89.7L103.6 90.8L96.1 90.8L96.1 89.8L100.1 85.4Q101.0 84.4 101.3 83.8Q101.6 83.2 101.6 82.5L101.6 82.5Q101.6 81.6 101.1 81.1Q100.5 80.5 99.6 80.5L99.6 80.5Q98.6 80.5 98.0 81.1Q97.4 81.7 97.4 82.8L97.4 82.8L95.9 82.8Q95.9 81.3 96.9 80.3Q97.9 79.3 99.6 79.3L99.6 79.3Q101.2 79.3 102.1 80.1Q103.1 81.0 103.1 82.4L103.1 82.4Q103.1 84.0 100.9 86.4L100.9 86.4L97.9 89.7L103.6 89.7ZM105 82.2L105 81.7Q105 80.6 105.7 80.0Q106.3 79.3 107.3 79.3L107.3 79.3Q108.4 79.3 109.0 80.0Q109.7 80.6 109.7 81.7L109.7 81.7L109.7 82.3Q109.7 83.3 109.0 83.9Q108.4 84.6 107.3 84.6L107.3 84.6Q106.3 84.6 105.7 83.9Q105 83.3 105 82.2L105 82.2ZM106.1 81.7L106.1 82.3Q106.1 82.9 106.4 83.3Q106.8 83.7 107.3 83.7L107.3 83.7Q107.9 83.7 108.2 83.3Q108.6 82.9 108.6 82.2L108.6 82.2L108.6 81.7Q108.6 81.0 108.2 80.6Q107.9 80.3 107.3 80.3Q106.8 80.3 106.4 80.6Q106.1 81.0 106.1 81.7L106.1 81.7ZM110.5 88.6L110.5 88.1Q110.5 87.0 111.2 86.4Q111.8 85.7 112.9 85.7Q113.9 85.7 114.5 86.4Q115.2 87.0 115.2 88.1L115.2 88.1L115.2 88.7Q115.2 89.7 114.6 90.3Q113.9 91.0 112.9 91.0Q111.9 91.0 111.2 90.4Q110.5 89.7 110.5 88.6L110.5 88.6ZM111.6 88.1L111.6 88.7Q111.6 89.3 112.0 89.7Q112.3 90.1 112.9 90.1L112.9 90.1Q113.4 90.1 113.8 89.7Q114.1 89.3 114.1 88.6L114.1 88.6L114.1 88.1Q114.1 87.4 113.8 87.0Q113.4 86.7 112.9 86.7L112.9 86.7Q112.3 86.7 112.0 87.0Q111.6 87.4 111.6 88.1L111.6 88.1ZM113.2 81.1L107.7 90.0L106.9 89.5L112.4 80.6L113.2 81.1Z "/><mask id="satori_om-id-1-5"><rect x="126" y="76" width="103" height="18" fill="#fff"/></mask><mask id="satori_om-id-1-5-0"><rect x="126" y="77" width="16" height="16" fill="#fff"/></mask><mask id="satori_om-id-1-5-0-0"><rect x="130" y="81" width="8" height="8" fill="#fff"/></mask><path x="130" y="81" width="8" height="8" fill="#663399" d="M134,81 h0 a4,4 0 0 1 4,4 v0 a4,4 0 0 1 -4,4 h0 a4,4 0 0 1 -4,-4 v0 a4,4 0 0 1 4,-4"/><mask id="satori_om-id-1-5-1"><rect x="155" y="76" width="31" height="18" fill="#fff"/></mask><path fill="#24292f" d="M162.6 87.1L164.9 87.1Q164.8 88.9 163.6 89.9Q162.4 91 160.4 91L160.4 91Q158.2 91 156.9 89.5Q155.7 88.1 155.7 85.5L155.7 85.5L155.7 84.8Q155.7 83.1 156.3 81.9Q156.8 80.6 157.9 80.0Q159.0 79.3 160.4 79.3L160.4 79.3Q162.4 79.3 163.6 80.4Q164.8 81.4 165.0 83.3L165.0 83.3L162.6 83.3Q162.5 82.2 162.0 81.7Q161.5 81.2 160.4 81.2L160.4 81.2Q159.2 81.2 158.6 82.1Q158.1 82.9 158.0 84.7L158.0 84.7L158.0 85.5Q158.0 87.4 158.6 88.2Q159.2 89.1 160.4 89.1L160.4 89.1Q161.5 89.1 162.0 88.6Q162.5 88.1 162.6 87.1L162.6 87.1ZM172.4 87.9L172.4 87.9Q172.4 87.2 171.9 86.8Q171.4 86.5 170.2 86.1Q169.0 85.7 168.3 85.3L168.3 85.3Q166.4 84.3 166.4 82.5L166.4 82.5Q166.4 81.6 166.9 80.8Q167.4 80.1 168.4 79.7Q169.3 79.3 170.6 79.3L170.6 79.3Q171.8 79.3 172.7 79.8Q173.7 80.2 174.2 81Q174.7 81.8 174.7 82.8L174.7 82.8L172.4 82.8Q172.4 82.0 171.9 81.6Q171.4 81.2 170.5 81.2L170.5 81.2Q169.7 81.2 169.2 81.5Q168.7 81.9 168.7 82.5L168.7 82.5Q168.7 83.1 169.3 83.4Q169.8 83.8 170.9 84.1L170.9 84.1Q172.9 84.7 173.8 85.6Q174.7 86.5 174.7 87.8L174.7 87.8Q174.7 89.3 173.6 90.2Q172.5 91 170.6 91L170.6 91Q169.3 91 168.2 90.5Q167.1 90.0 166.6 89.2Q166.0 88.4 166.0 87.3L166.0 87.3L168.4 87.3Q168.4 89.1 170.6 89.1L170.6 89.1Q171.4 89.1 171.9 88.8Q172.4 88.5 172.4 87.9ZM182.2 87.9L182.2 87.9Q182.2 87.2 181.8 86.8Q181.3 86.5 180.1 86.1Q178.8 85.7 178.1 85.3L178.1 85.3Q176.2 84.3 176.2 82.5L176.2 82.5Q176.2 81.6 176.7 80.8Q177.2 80.1 178.2 79.7Q179.2 79.3 180.4 79.3L180.4 79.3Q181.6 79.3 182.6 79.8Q183.5 80.2 184.0 81Q184.6 81.8 184.6 82.8L184.6 82.8L182.2 82.8Q182.2 82.0 181.7 81.6Q181.2 81.2 180.4 81.2L180.4 81.2Q179.5 81.2 179.0 81.5Q178.5 81.9 178.5 82.5L178.5 82.5Q178.5 83.1 179.1 83.4Q179.7 83.8 180.7 84.1L180.7 84.1Q182.7 84.7 183.7 85.6Q184.6 86.5 184.6 87.8L184.6 87.8Q184.6 89.3 183.5 90.2Q182.3 91 180.4 91L180.4 91Q179.1 91 178.1 90.5Q177.0 90.0 176.4 89.2Q175.8 88.4 175.8 87.3L175.8 87.3L178.2 87.3Q178.2 89.1 180.4 89.1L180.4 89.1Q181.3 89.1 181.8 88.8Q182.2 88.5 182.2 87.9Z "/><mask id="satori_om-id-1-5-2"><rect x="195" y="76" width="34" height="18" fill="#fff"/></mask><path fill="#57606a" d="M197.8 85.4L196.6 85.1L197.2 79.5L203.0 79.5L203.0 80.8L198.4 80.8L198.1 83.9Q198.9 83.4 200.0 83.4L200.0 83.4Q201.5 83.4 202.4 84.4Q203.4 85.5 203.4 87.2L203.4 87.2Q203.4 89.0 202.4 90.0Q201.5 91 199.8 91L199.8 91Q198.2 91 197.3 90.2Q196.3 89.3 196.2 87.9L196.2 87.9L197.6 87.9Q197.7 88.8 198.3 89.3Q198.8 89.8 199.8 89.8L199.8 89.8Q200.8 89.8 201.3 89.1Q201.9 88.4 201.9 87.2L201.9 87.2Q201.9 86.1 201.3 85.4Q200.7 84.7 199.6 84.7L199.6 84.7Q198.7 84.7 198.1 85.1L198.1 85.1L197.8 85.4ZM205.1 90.1L205.1 90.1Q205.1 89.7 205.3 89.5Q205.6 89.2 206 89.2Q206.4 89.2 206.7 89.5Q206.9 89.7 206.9 90.1L206.9 90.1Q206.9 90.4 206.7 90.7Q206.4 90.9 206 90.9Q205.6 90.9 205.3 90.7Q205.1 90.4 205.1 90.1ZM211.0 85.4L209.8 85.1L210.4 79.5L216.2 79.5L216.2 80.8L211.6 80.8L211.3 83.9Q212.1 83.4 213.2 83.4L213.2 83.4Q214.7 83.4 215.6 84.4Q216.5 85.5 216.5 87.2L216.5 87.2Q216.5 89.0 215.6 90.0Q214.6 91 212.9 91L212.9 91Q211.4 91 210.5 90.2Q209.5 89.3 209.4 87.9L209.4 87.9L210.8 87.9Q210.9 88.8 211.5 89.3Q212.0 89.8 212.9 89.8L212.9 89.8Q214.0 89.8 214.5 89.1Q215.1 88.4 215.1 87.2L215.1 87.2Q215.1 86.1 214.5 85.4Q213.9 84.7 212.8 84.7L212.8 84.7Q211.9 84.7 211.3 85.1L211.3 85.1L211.0 85.4ZM218 82.2L218 81.7Q218 80.6 218.7 80.0Q219.3 79.3 220.3 79.3L220.3 79.3Q221.4 79.3 222.0 80.0Q222.7 80.6 222.7 81.7L222.7 81.7L222.7 82.3Q222.7 83.3 222.0 83.9Q221.4 84.6 220.3 84.6L220.3 84.6Q219.3 84.6 218.7 83.9Q218 83.3 218 82.2L218 82.2ZM219.1 81.7L219.1 82.3Q219.1 82.9 219.4 83.3Q219.8 83.7 220.3 83.7L220.3 83.7Q220.9 83.7 221.2 83.3Q221.6 82.9 221.6 82.2L221.6 82.2L221.6 81.7Q221.6 81.0 221.2 80.6Q220.9 80.3 220.3 80.3Q219.8 80.3 219.4 80.6Q219.1 81.0 219.1 81.7L219.1 81.7ZM223.5 88.6L223.5 88.1Q223.5 87.0 224.2 86.4Q224.8 85.7 225.9 85.7Q226.9 85.7 227.5 86.4Q228.2 87.0 228.2 88.1L228.2 88.1L228.2 88.7Q228.2 89.7 227.6 90.3Q226.9 91.0 225.9 91.0Q224.9 91.0 224.2 90.4Q223.5 89.7 223.5 88.6L223.5 88.6ZM224.6 88.1L224.6 88.7Q224.6 89.3 225.0 89.7Q225.3 90.1 225.9 90.1L225.9 90.1Q226.4 90.1 226.8 89.7Q227.1 89.3 227.1 88.6L227.1 88.6L227.1 88.1Q227.1 87.4 226.8 87.0Q226.4 86.7 225.9 86.7L225.9 86.7Q225.3 86.7 225.0 87.0Q224.6 87.4 224.6 88.1L224.6 88.1ZM226.2 81.1L220.7 90.0L219.9 89.5L225.4 80.6L226.2 81.1Z "/><mask id="satori_om-id-1-6"><rect x="239" y="76" width="105" height="18" fill="#fff"/></mask><mask id="satori_om-id-1-6-0"><rect x="239" y="77" width="16" height="16" fill="#fff"/></mask><mask id="satori_om-id-1-6-0-0"><rect x="243" y="81" width="8" height="8" fill="#fff"/></mask><path x="243" y="81" width="8" height="8" fill="#dea584" d="M247,81 h0 a4,4 0 0 1 4,4 v0 a4,4 0 0 1 -4,4 h0 a4,4 0 0 1 -4,-4 v0 a4,4 0 0 1 4,-4"/><mask id="satori_om-id-1-6-1"><rect x="268" y="76" width="33" height="18" fill="#fff"/></mask><path fill="#24292f" d="M275.4 90.8L273.2 86.7L271.4 86.7L271.4 90.8L269.0 90.8L269.0 79.5L273.2 79.5Q275.3 79.5 276.4 80.4Q277.4 81.3 277.4 82.9L277.4 82.9Q277.4 84.1 276.9 84.8Q276.4 85.6 275.4 86.1L275.4 86.1L277.9 90.7L277.9 90.8L275.4 90.8ZM271.4 81.4L271.4 84.8L273.3 84.8Q274.1 84.8 274.6 84.3Q275.1 83.9 275.1 83.1L275.1 83.1Q275.1 82.3 274.6 81.8Q274.2 81.4 273.2 81.4L273.2 81.4L271.4 81.4ZM284.2 90.8L284.1 90.0Q283.3 91 281.8 91L281.8 91Q280.5 91 279.8 90.2Q279.0 89.4 279.0 87.9L279.0 87.9L279.0 82.4L281.3 82.4L281.3 87.9Q281.3 89.2 282.5 89.2L282.5 89.2Q283.6 89.2 284.1 88.4L284.1 88.4L284.1 82.4L286.3 82.4L286.3 90.8L284.2 90.8ZM292.6 88.5L292.6 88.5Q292.6 88.1 292.2 87.9Q291.8 87.6 290.9 87.4L290.9 87.4Q287.9 86.8 287.9 84.9L287.9 84.9Q287.9 83.7 288.8 83.0Q289.7 82.2 291.2 82.2L291.2 82.2Q292.9 82.2 293.8 83.0Q294.8 83.8 294.8 85.0L294.8 85.0L292.5 85.0Q292.5 84.5 292.2 84.2Q291.9 83.8 291.2 83.8L291.2 83.8Q290.7 83.8 290.4 84.1Q290.0 84.4 290.0 84.8L290.0 84.8Q290.0 85.1 290.4 85.4Q290.8 85.6 291.6 85.8Q292.4 85.9 293.0 86.1L293.0 86.1Q294.8 86.8 294.8 88.4L294.8 88.4Q294.8 89.6 293.8 90.3Q292.8 91 291.3 91L291.3 91Q290.2 91 289.4 90.6Q288.5 90.2 288.1 89.6Q287.6 88.9 287.6 88.2L287.6 88.2L289.7 88.2Q289.8 88.8 290.2 89.1Q290.6 89.4 291.3 89.4L291.3 89.4Q291.9 89.4 292.3 89.2Q292.6 88.9 292.6 88.5ZM296.7 80.3L299.0 80.3L299.0 82.4L300.4 82.4L300.4 84.0L299.0 84.0L299.0 88.3Q299.0 88.7 299.1 88.9Q299.3 89.1 299.8 89.1L299.8 89.1Q300.2 89.1 300.5 89.1L300.5 89.1L300.5 90.8Q299.8 91 299.1 91L299.1 91Q296.8 91 296.7 88.6L296.7 88.6L296.7 84.0L295.5 84.0L295.5 82.4L296.7 82.4L296.7 80.3Z "/><mask id="satori_om-id-1-6-2"><rect x="310" y="76" width="34" height="18" fill="#fff"/></mask><path fill="#57606a" d="M313.0 85.6L313.0 84.5L314.1 84.5Q315.2 84.4 315.7 83.9Q316.3 83.4 316.3 82.5L316.3 82.5Q316.3 80.5 314.3 80.5L314.3 80.5Q313.4 80.5 312.8 81.0Q312.3 81.6 312.3 82.5L312.3 82.5L310.8 82.5Q310.8 81.1 311.8 80.2Q312.8 79.3 314.3 79.3L314.3 79.3Q315.9 79.3 316.9 80.2Q317.8 81.0 317.8 82.5L317.8 82.5Q317.8 83.3 317.3 84.0Q316.8 84.7 316.0 85.0L316.0 85.0Q316.9 85.3 317.4 86.0Q317.9 86.7 317.9 87.7L317.9 87.7Q317.9 89.2 316.9 90.1Q315.9 91 314.3 91Q312.7 91 311.7 90.1Q310.7 89.3 310.7 87.8L310.7 87.8L312.2 87.8Q312.2 88.7 312.8 89.3Q313.4 89.8 314.3 89.8L314.3 89.8Q315.4 89.8 315.9 89.3Q316.5 88.7 316.5 87.7L316.5 87.7Q316.5 86.7 315.9 86.2Q315.3 85.6 314.1 85.6L314.1 85.6L313.0 85.6ZM320.1 90.1L320.1 90.1Q320.1 89.7 320.3 89.5Q320.6 89.2 321 89.2Q321.4 89.2 321.7 89.5Q321.9 89.7 321.9 90.1L321.9 90.1Q321.9 90.4 321.7 90.7Q321.4 90.9 321 90.9Q320.6 90.9 320.3 90.7Q320.1 90.4 320.1 90.1ZM326.0 85.4L324.8 85.1L325.4 79.5L331.2 79.5L331.2 80.8L326.6 80.8L326.3 83.9Q327.1 83.4 328.2 83.4L328.2 83.4Q329.7 83.4 330.6 84.4Q331.5 85.5 331.5 87.2L331.5 87.2Q331.5 89.0 330.6 90.0Q329.6 91 327.9 91L327.9 91Q326.4 91 325.5 90.2Q324.5 89.3 324.4 87.9L324.4 87.9L325.8 87.9Q325.9 88.8 326.5 89.3Q327.0 89.8 327.9 89.8L327.9 89.8Q329.0 89.8 329.5 89.1Q330.1 88.4 330.1 87.2L330.1 87.2Q330.1 86.1 329.5 85.4Q328.9 84.7 327.8 84.7L327.8 84.7Q326.9 84.7 326.3 85.1L326.3 85.1L326.0 85.4ZM333 82.2L333 81.7Q333 80.6 333.7 80.0Q334.3 79.3 335.3 79.3L335.3 79.3Q336.4 79.3 337.0 80.0Q337.7 80.6 337.7 81.7L337.7 81.7L337.7 82.3Q337.7 83.3 337.0 83.9Q336.4 84.6 335.3 84.6L335.3 84.6Q334.3 84.6 333.7 83.9Q333 83.3 333 82.2L333 82.2ZM334.1 81.7L334.1 82.3Q334.1 82.9 334.4 83.3Q334.8 83.7 335.3 83.7L335.3 83.7Q335.9 83.7 336.2 83.3Q336.6 82.9 336.6 82.2L336.6 82.2L336.6 81.7Q336.6 81.0 336.2 80.6Q335.9 80.3 335.3 80.3Q334.8 80.3 334.4 80.6Q334.1 81.0 334.1 81.7L334.1 81.7ZM338.5 88.6L338.5 88.1Q338.5 87.0 339.2 86.4Q339.8 85.7 340.9 85.7Q341.9 85.7 342.5 86.4Q343.2 87.0 343.2 88.1L343.2 88.1L343.2 88.7Q343.2 89.7 342.6 90.3Q341.9 91.0 340.9 91.0Q339.9 91.0 339.2 90.4Q338.5 89.7 338.5 88.6L338.5 88.6ZM339.6 88.1L339.6 88.7Q339.6 89.3 340.0 89.7Q340.3 90.1 340.9 90.1L340.9 90.1Q341.4 90.1 341.8 89.7Q342.1 89.3 342.1 88.6L342.1 88.6L342.1 88.1Q342.1 87.4 341.8 87.0Q341.4 86.7 340.9 86.7L340.9 86.7Q340.3 86.7 340.0 87.0Q339.6 87.4 339.6 88.1L339.6 88.1ZM341.2 81.1L335.7 90.0L334.9 89.5L340.4 80.6L341.2 81.1Z "/><mask id="satori_om-id-1-7"><rect x="0" y="104" width="139" height="19" fill="#fff"/></mask><mask id="satori_om-id-1-7-0"><rect x="0" y="105" width="16" height="16" fill="#fff"/></mask><mask id="satori_om-id-1-7-0-0"><rect x="4" y="109" width="8" height="8" fill="#fff"/></mask><path x="4" y="109" width="8" height="8" fill="#336790" d="M8,109 h0 a4,4 0 0 1 4,4 v0 a4,4 0 0 1 -4,4 h0 a4,4 0 0 1 -4,-4 v0 a4,4 0 0 1 4,-4"/><mask id="satori_om-id-1-7-1"><rect x="29" y="104" width="67" height="19" fill="#fff"/></mask><path fill="#24292f" d="M34.4 114.8L32.4 114.8L32.4 118.8L30.0 118.8L30.0 107.5L34.5 107.5Q35.7 107.5 36.7 107.9Q37.7 108.4 38.2 109.3Q38.7 110.1 38.7 111.2L38.7 111.2Q38.7 112.9 37.6 113.9Q36.4 114.8 34.4 114.8L34.4 114.8ZM32.4 109.4L32.4 112.9L34.5 112.9Q35.4 112.9 35.9 112.5Q36.4 112.1 36.4 111.3L36.4 111.3Q36.4 110.4 35.9 109.9Q35.4 109.4 34.5 109.4L34.5 109.4L32.4 109.4ZM42.7 107.5L42.7 117.0L47.7 117.0L47.7 118.8L40.3 118.8L40.3 107.5L42.7 107.5ZM56.5 114.6L56.5 114.7Q56.5 116.6 55.6 117.8Q54.7 119 53.2 119L53.2 119Q51.9 119 51.1 118.1L51.1 118.1L51.1 122.1L48.9 122.1L48.9 110.4L50.9 110.4L51.0 111.2Q51.8 110.2 53.2 110.2L53.2 110.2Q54.7 110.2 55.6 111.4Q56.5 112.5 56.5 114.6L56.5 114.6ZM54.2 114.5L54.2 114.5Q54.2 113.4 53.8 112.7Q53.4 112.1 52.6 112.1L52.6 112.1Q51.5 112.1 51.1 112.9L51.1 112.9L51.1 116.3Q51.5 117.2 52.6 117.2L52.6 117.2Q54.2 117.2 54.2 114.5ZM57.5 114.6L57.5 114.6Q57.5 112.6 58.5 111.4Q59.4 110.2 61.0 110.2L61.0 110.2Q62.3 110.2 63.1 111.2L63.1 111.2L63.2 110.4L65.3 110.4L65.3 118.6Q65.3 119.7 64.8 120.5Q64.3 121.3 63.3 121.7Q62.4 122.2 61.2 122.2L61.2 122.2Q60.3 122.2 59.4 121.8Q58.5 121.4 58.0 120.8L58.0 120.8L59.0 119.5Q59.9 120.4 61.1 120.4L61.1 120.4Q62.0 120.4 62.5 119.9Q63.0 119.5 63.0 118.6L63.0 118.6L63.0 118.1Q62.2 119 60.9 119L60.9 119Q59.4 119 58.5 117.8Q57.5 116.6 57.5 114.6L57.5 114.6ZM59.8 114.7L59.8 114.7Q59.8 115.9 60.3 116.5Q60.7 117.2 61.5 117.2L61.5 117.2Q62.5 117.2 63.0 116.4L63.0 116.4L63.0 112.8Q62.5 112.1 61.5 112.1L61.5 112.1Q60.7 112.1 60.3 112.7Q59.8 113.4 59.8 114.7ZM73.0 115.9L73.0 115.9Q73.0 115.2 72.6 114.8Q72.1 114.5 70.9 114.1Q69.7 113.7 69.0 113.3L69.0 113.3Q67.0 112.3 67.0 110.5L67.0 110.5Q67.0 109.6 67.5 108.8Q68.1 108.1 69.0 107.7Q70 107.3 71.2 107.3L71.2 107.3Q72.4 107.3 73.4 107.8Q74.3 108.2 74.9 109Q75.4 109.8 75.4 110.8L75.4 110.8L73.0 110.8Q73.0 110.0 72.6 109.6Q72.1 109.2 71.2 109.2L71.2 109.2Q70.3 109.2 69.8 109.5Q69.4 109.9 69.4 110.5L69.4 110.5Q69.4 111.1 69.9 111.4Q70.5 111.8 71.6 112.1L71.6 112.1Q73.6 112.7 74.5 113.6Q75.4 114.5 75.4 115.8L75.4 115.8Q75.4 117.3 74.3 118.2Q73.2 119 71.3 119L71.3 119Q70.0 119 68.9 118.5Q67.8 118.0 67.2 117.2Q66.7 116.4 66.7 115.3L66.7 115.3L69.0 115.3Q69.0 117.1 71.3 117.1L71.3 117.1Q72.1 117.1 72.6 116.8Q73.0 116.5 73.0 115.9ZM86.3 112.9L86.3 113.4Q86.3 115.0 85.8 116.2Q85.3 117.4 84.4 118.1L84.4 118.1L86.3 119.6L84.8 120.9L82.3 118.9Q81.9 119 81.5 119L81.5 119Q80.1 119 79.0 118.3Q77.8 117.6 77.2 116.4Q76.6 115.1 76.6 113.5L76.6 113.5L76.6 112.9Q76.6 111.2 77.2 110.0Q77.8 108.7 78.9 108.0Q80.0 107.3 81.5 107.3Q82.9 107.3 84.0 108.0Q85.1 108.7 85.7 110.0Q86.3 111.2 86.3 112.9L86.3 112.9ZM83.9 113.5L83.9 112.9Q83.9 111.1 83.3 110.2Q82.6 109.3 81.5 109.3L81.5 109.3Q80.3 109.3 79.6 110.2Q79 111.1 79.0 112.9L79.0 112.9L79.0 113.4Q79.0 115.2 79.6 116.1Q80.3 117.1 81.5 117.1L81.5 117.1Q82.7 117.1 83.3 116.2Q83.9 115.2 83.9 113.5L83.9 113.5ZM90.4 107.5L90.4 117.0L95.3 117.0L95.3 118.8L88.0 118.8L88.0 107.5L90.4 107.5Z "/><mask id="satori_om-id-1-7-2"><rect x="105" y="104" width="34" height="19" fill="#fff"/></mask><path fill="#57606a" d="M110.7 107.4L110.7 118.8L109.2 118.8L109.2 109.2L106.3 110.3L106.3 109.0L110.5 107.4L110.7 107.4ZM115.1 118.1L115.1 118.1Q115.1 117.7 115.3 117.5Q115.6 117.2 116 117.2Q116.4 117.2 116.7 117.5Q116.9 117.7 116.9 118.1L116.9 118.1Q116.9 118.4 116.7 118.7Q116.4 118.9 116 118.9Q115.6 118.9 115.3 118.7Q115.1 118.4 115.1 118.1ZM126.6 117.7L126.6 118.8L119.1 118.8L119.1 117.8L123.1 113.4Q124.0 112.4 124.3 111.8Q124.6 111.2 124.6 110.5L124.6 110.5Q124.6 109.6 124.1 109.1Q123.5 108.5 122.6 108.5L122.6 108.5Q121.6 108.5 121.0 109.1Q120.4 109.7 120.4 110.8L120.4 110.8L118.9 110.8Q118.9 109.3 119.9 108.3Q120.9 107.3 122.6 107.3L122.6 107.3Q124.2 107.3 125.1 108.1Q126.1 109.0 126.1 110.4L126.1 110.4Q126.1 112.0 123.9 114.4L123.9 114.4L120.9 117.7L126.6 117.7ZM128 110.2L128 109.7Q128 108.6 128.7 108.0Q129.3 107.3 130.3 107.3L130.3 107.3Q131.4 107.3 132.0 108.0Q132.7 108.6 132.7 109.7L132.7 109.7L132.7 110.3Q132.7 111.3 132.0 111.9Q131.4 112.6 130.3 112.6L130.3 112.6Q129.3 112.6 128.7 111.9Q128 111.3 128 110.2L128 110.2ZM129.1 109.7L129.1 110.3Q129.1 110.9 129.4 111.3Q129.8 111.7 130.3 111.7L130.3 111.7Q130.9 111.7 131.2 111.3Q131.6 110.9 131.6 110.2L131.6 110.2L131.6 109.7Q131.6 109.0 131.2 108.6Q130.9 108.3 130.3 108.3Q129.8 108.3 129.4 108.6Q129.1 109.0 129.1 109.7L129.1 109.7ZM133.5 116.6L133.5 116.1Q133.5 115.0 134.2 114.4Q134.8 113.7 135.9 113.7Q136.9 113.7 137.5 114.4Q138.2 115.0 138.2 116.1L138.2 116.1L138.2 116.7Q138.2 117.7 137.6 118.3Q136.9 119.0 135.9 119.0Q134.9 119.0 134.2 118.4Q133.5 117.7 133.5 116.6L133.5 116.6ZM134.6 116.1L134.6 116.7Q134.6 117.3 135.0 117.7Q135.3 118.1 135.9 118.1L135.9 118.1Q136.4 118.1 136.8 117.7Q137.1 117.3 137.1 116.6L137.1 116.6L137.1 116.1Q137.1 115.4 136.8 115.0Q136.4 114.7 135.9 114.7L135.9 114.7Q135.3 114.7 135.0 115.0Q134.6 115.4 134.6 116.1L134.6 116.1ZM136.2 109.1L130.7 118.0L129.9 117.5L135.4 108.6L136.2 109.1Z "/><mask id="satori_om-id-1-8"><rect x="149" y="104" width="146" height="19" fill="#fff"/></mask><mask id="satori_om-id-1-8-0"><rect x="149" y="105" width="16" height="16" fill="#fff"/></mask><mask id="satori_om-id-1-8-0-0"><rect x="153" y="109" width="8" height="8" fill="#fff"/></mask><path x="153" y="109" width="8" height="8" fill="#384d54" d="M157,109 h0 a4,4 0 0 1 4,4 v0 a4,4 0 0 1 -4,4 h0 a4,4 0 0 1 -4,-4 v0 a4,4 0 0 1 4,-4"/><mask id="satori_om-id-1-8-1"><rect x="178" y="104" width="74" height="19" fill="#fff"/></mask><path fill="#24292f" d="M182.5 118.8L179.0 118.8L179.0 107.5L182.5 107.5Q184.0 107.5 185.2 108.1Q186.4 108.8 187.0 110.1Q187.7 111.3 187.7 112.9L187.7 112.9L187.7 113.4Q187.7 115.0 187.1 116.2Q186.4 117.5 185.2 118.2Q184.0 118.8 182.5 118.8L182.5 118.8ZM182.5 109.4L181.4 109.4L181.4 117.0L182.5 117.0Q183.9 117.0 184.6 116.1Q185.3 115.2 185.3 113.5L185.3 113.5L185.3 112.9Q185.3 111.2 184.6 110.3Q183.9 109.4 182.5 109.4L182.5 109.4ZM188.9 114.6L188.9 114.5Q188.9 113.3 189.4 112.3Q189.9 111.3 190.8 110.8Q191.7 110.2 192.9 110.2L192.9 110.2Q194.6 110.2 195.7 111.3Q196.8 112.3 196.9 114.1L196.9 114.1L196.9 114.7Q196.9 116.6 195.8 117.8Q194.8 119 192.9 119Q191.1 119 190.0 117.8Q188.9 116.7 188.9 114.6L188.9 114.6ZM191.2 114.7L191.2 114.7Q191.2 115.9 191.6 116.5Q192.1 117.2 192.9 117.2L192.9 117.2Q193.7 117.2 194.2 116.6Q194.7 115.9 194.7 114.5L194.7 114.5Q194.7 113.4 194.2 112.7Q193.7 112.1 192.9 112.1L192.9 112.1Q192.1 112.1 191.6 112.7Q191.2 113.4 191.2 114.7ZM201.8 117.2L201.8 117.2Q202.5 117.2 202.8 116.8Q203.2 116.5 203.3 115.9L203.3 115.9L205.4 115.9Q205.4 116.8 204.9 117.5Q204.4 118.2 203.6 118.6Q202.8 119 201.9 119L201.9 119Q200.1 119 199.0 117.8Q198.0 116.7 198.0 114.7L198.0 114.7L198.0 114.5Q198.0 112.6 199 111.4Q200.0 110.2 201.9 110.2L201.9 110.2Q203.4 110.2 204.4 111.1Q205.4 112.0 205.4 113.5L205.4 113.5L203.3 113.5Q203.2 112.9 202.8 112.5Q202.5 112.1 201.8 112.1L201.8 112.1Q201.0 112.1 200.6 112.6Q200.2 113.2 200.2 114.5L200.2 114.5L200.2 114.7Q200.2 116.0 200.6 116.6Q201.0 117.2 201.8 117.2ZM211.9 118.8L209.7 115.5L208.9 116.3L208.9 118.8L206.7 118.8L206.7 106.8L208.9 106.8L208.9 113.5L209.4 112.9L211.5 110.4L214.2 110.4L211.2 113.9L214.5 118.8L211.9 118.8ZM218.9 119L218.9 119Q217.1 119 215.9 117.9Q214.7 116.7 214.7 114.8L214.7 114.8L214.7 114.6Q214.7 113.3 215.2 112.3Q215.7 111.3 216.6 110.8Q217.5 110.2 218.7 110.2L218.7 110.2Q220.4 110.2 221.4 111.3Q222.4 112.4 222.4 114.4L222.4 114.4L222.4 115.4L217.0 115.4Q217.1 116.2 217.7 116.7Q218.2 117.2 219.1 117.2L219.1 117.2Q220.4 117.2 221.1 116.2L221.1 116.2L222.2 117.5Q221.7 118.2 220.9 118.6Q220.0 119 218.9 119ZM218.7 112.1L218.7 112.1Q218.0 112.1 217.6 112.5Q217.2 113.0 217.1 113.8L217.1 113.8L220.2 113.8L220.2 113.6Q220.2 112.9 219.8 112.5Q219.4 112.1 218.7 112.1ZM228.5 110.3L228.4 112.5Q228.0 112.4 227.6 112.4L227.6 112.4Q226.4 112.4 226.0 113.3L226.0 113.3L226.0 118.8L223.7 118.8L223.7 110.4L225.8 110.4L225.9 111.4Q226.6 110.2 227.8 110.2L227.8 110.2Q228.1 110.2 228.5 110.3L228.5 110.3ZM232.6 118.8L230.3 118.8L230.3 112.0L229.0 112.0L229.0 110.4L230.3 110.4L230.3 109.7Q230.3 108.3 231.1 107.5Q231.9 106.7 233.4 106.7L233.4 106.7Q233.9 106.7 234.6 106.8L234.6 106.8L234.5 108.6Q234.3 108.5 233.8 108.5L233.8 108.5Q232.6 108.5 232.6 109.7L232.6 109.7L232.6 110.4L234.3 110.4L234.3 112.0L232.6 112.0L232.6 118.8ZM237.8 110.4L237.8 118.8L235.5 118.8L235.5 110.4L237.8 110.4ZM235.4 108.2L235.4 108.2Q235.4 107.7 235.7 107.4Q236.1 107.0 236.7 107.0L236.7 107.0Q237.3 107.0 237.6 107.4Q237.9 107.7 237.9 108.2L237.9 108.2Q237.9 108.7 237.6 109.0Q237.2 109.4 236.7 109.4Q236.1 109.4 235.8 109.0Q235.4 108.7 235.4 108.2ZM242.0 106.8L242.0 118.8L239.8 118.8L239.8 106.8L242.0 106.8ZM247.8 119L247.8 119Q245.9 119 244.8 117.9Q243.6 116.7 243.6 114.8L243.6 114.8L243.6 114.6Q243.6 113.3 244.1 112.3Q244.6 111.3 245.5 110.8Q246.4 110.2 247.5 110.2L247.5 110.2Q249.3 110.2 250.3 111.3Q251.3 112.4 251.3 114.4L251.3 114.4L251.3 115.4L245.9 115.4Q246 116.2 246.6 116.7Q247.1 117.2 247.9 117.2L247.9 117.2Q249.3 117.2 250.0 116.2L250.0 116.2L251.1 117.5Q250.6 118.2 249.7 118.6Q248.9 119 247.8 119ZM247.5 112.1L247.5 112.1Q246.9 112.1 246.4 112.5Q246.0 113.0 245.9 113.8L245.9 113.8L249.1 113.8L249.1 113.6Q249.0 112.9 248.6 112.5Q248.3 112.1 247.5 112.1Z "/><mask id="satori_om-id-1-8-2"><rect x="261" y="104" width="34" height="19" fill="#fff"/></mask><path fill="#57606a" d="M266.7 107.4L266.7 118.8L265.2 118.8L265.2 109.2L262.3 110.3L262.3 109.0L266.5 107.4L266.7 107.4ZM271.1 118.1L271.1 118.1Q271.1 117.7 271.3 117.5Q271.6 117.2 272 117.2Q272.4 117.2 272.7 117.5Q272.9 117.7 272.9 118.1L272.9 118.1Q272.9 118.4 272.7 118.7Q272.4 118.9 272 118.9Q271.6 118.9 271.3 118.7Q271.1 118.4 271.1 118.1ZM282.3 112.1L282.3 114.0Q282.3 116.5 281.4 117.8Q280.5 119 278.7 119L278.7 119Q276.9 119 276 117.8Q275.1 116.6 275.1 114.2L275.1 114.2L275.1 112.3Q275.1 109.8 276.0 108.5Q276.8 107.3 278.7 107.3L278.7 107.3Q280.5 107.3 281.4 108.5Q282.3 109.7 282.3 112.1L282.3 112.1ZM280.8 114.4L280.8 112.0Q280.8 110.2 280.3 109.3Q279.8 108.5 278.7 108.5L278.7 108.5Q277.6 108.5 277.1 109.3Q276.6 110.2 276.5 111.9L276.5 111.9L276.5 114.2Q276.5 116.1 277.1 116.9Q277.6 117.8 278.7 117.8L278.7 117.8Q279.8 117.8 280.3 117.0Q280.8 116.2 280.8 114.4L280.8 114.4ZM284 110.2L284 109.7Q284 108.6 284.7 108.0Q285.3 107.3 286.3 107.3L286.3 107.3Q287.4 107.3 288.0 108.0Q288.7 108.6 288.7 109.7L288.7 109.7L288.7 110.3Q288.7 111.3 288.0 111.9Q287.4 112.6 286.3 112.6L286.3 112.6Q285.3 112.6 284.7 111.9Q284 111.3 284 110.2L284 110.2ZM285.1 109.7L285.1 110.3Q285.1 110.9 285.4 111.3Q285.8 111.7 286.3 111.7L286.3 111.7Q286.9 111.7 287.2 111.3Q287.6 110.9 287.6 110.2L287.6 110.2L287.6 109.7Q287.6 109.0 287.2 108.6Q286.9 108.3 286.3 108.3Q285.8 108.3 285.4 108.6Q285.1 109.0 285.1 109.7L285.1 109.7ZM289.5 116.6L289.5 116.1Q289.5 115.0 290.2 114.4Q290.8 113.7 291.9 113.7Q292.9 113.7 293.5 114.4Q294.2 115.0 294.2 116.1L294.2 116.1L294.2 116.7Q294.2 117.7 293.6 118.3Q292.9 119.0 291.9 119.0Q290.9 119.0 290.2 118.4Q289.5 117.7 289.5 116.6L289.5 116.6ZM290.6 116.1L290.6 116.7Q290.6 117.3 291.0 117.7Q291.3 118.1 291.9 118.1L291.9 118.1Q292.4 118.1 292.8 117.7Q293.1 117.3 293.1 116.6L293.1 116.6L293.1 116.1Q293.1 115.4 292.8 115.0Q292.4 114.7 291.9 114.7L291.9 114.7Q291.3 114.7 291.0 115.0Q290.6 115.4 290.6 116.1L290.6 116.1ZM292.2 109.1L286.7 118.0L285.9 117.5L291.4 108.6L292.2 109.1Z "/></svg>