<svg width="375" height="200" viewBox="0 0 375 200" xmlns="http://www.w3.org/2000/svg"><mask id="satori_om-id"><rect x="0" y="0" width="375" height="123" fill="#fff"/></mask><clipPath id="satori_cp-id-0"><path x="0" y="0" width="375" height="8" d="M4,0 h367 a4,4 0 0 1 4,4 v0 a4,4 0 0 1 -4,4 h-367 a4,4 0 0 1 -4,-4 v0 a4,4 0 0 1 4,-4"/></clipPath><mask id="satori_om-id-0"><rect x="0" y="0" width="375" height="8" fill="#fff"/></mask><mask id="satori_om-id-0-0"><rect x="0" y="0" width="202" height="8" fill="#fff" mask="url(#satori_om-id-0)"/></mask><rect x="0" y="0" width="202" height="8" fill="#3572A5" clip-path="url(#satori_cp-id-0)" mask="url(#satori_om-id-0)"/><mask id="satori_om-id-0-1"><rect x="202" y="0" width="50" height="8" fill="#fff" mask="url(#satori_om-id-0)"/></mask><rect x="202" y="0" width="50" height="8" fill="#f1e05a" clip-path="url(#satori_cp-id-0)" mask="url(#satori_om-id-0)"/><mask id="satori_om-id-0-2"><rect x="252" y="0" width="49" height="8" fill="#fff" mask="url(#satori_om-id-0)"/></mask><rect x="252" y="0" width="49" height="8" fill="#3178c6" clip-path="url(#satori_cp-id-0)" mask="url(#satori_om-id-0)"/><mask id="satori_om-id-0-3"><rect x="301" y="0" width="26" height="8" fill="#fff" mask="url(#satori_om-id-0)"/></mask><rect x="301" y="0" width="26" height="8" fill="#e34c26" clip-path="url(#satori_cp-id-0)" mask="url(#satori_om-id-0)"/><mask id="satori_om-id-0-4"><rect x="327" y="0" width="23" height="8" fill="#fff" mask="url(#satori_om-id-0)"/></mask><rect x="327" y="0" width="23" height="8" fill="#663399" clip-path="url(#satori_cp-id-0)" mask="url(#satori_om-id-0)"/><mask id="satori_om-id-0-5"><rect x="350" y="0" width="15" height="8" fill="#fff" mask="url(#satori_om-id-0)"/></mask><rect x="350" y="0" width="15" height="8" fill="#dea584" clip-path="url(#satori_cp-id-0)" mask="url(#satori_om-id-0)"/><mask id="satori_om-id-0-6"><rect x="365" y="0" width="7" height="8" fill="#fff" mask="url(#satori_om-id-0)"/></mask><rect x="365" y="0" width="7" height="8" fill="#00ADD8" clip-path="url(#satori_cp-id-0)" mask="url(#satori_om-id-0)"/><mask id="satori_om-id-0-7"><rect x="372" y="0" width="3" height="8" fill="#fff" mask="url(#satori_om-id-0)"/></mask><rect x="372" y="0" width="3" height="8" fill="#384d54" clip-path="url(#satori_cp-id-0)" mask="url(#satori_om-id-0)"/><mask id="satori_om-id-1"><rect x="0" y="18" width="375" height="105" fill="#fff"/></mask><mask id="satori_om-id-1-0"><rect x="0" y="18" width="132" height="19" fill="#fff"/></mask><mask id="satori_om-id-1-0-0"><rect x="0" y="19" width="16" height="16" fill="#fff"/></mask><mask id="satori_om-id-1-0-0-0"><rect x="4" y="23" width="8" height="8" fill="#fff"/></mask><path x="4" y="23" width="8" height="8" fill="#3572A5" d="M8,23 h0 a4,4 0 0 1 4,4 v0 a4,4 0 0 1 -4,4 h0 a4,4 0 0 1 -4,-4 v0 a4,4 0 0 1 4,-4"/><mask id="satori_om-id-1-0-1"><rect x="29" y="18" width="51" height="19" fill="#fff"/></mask><path fill="#fff" d="M34.4 28.8L32.4 28.8L32.4 32.8L30.0 32.8L30.0 21.5L34.5 21.5Q35.7 21.5 36.7 21.9Q37.7 22.4 38.2 23.3Q38.7 24.1 38.7 25.2L38.7 25.2Q38.7 26.9 37.6 27.9Q36.4 28.8 34.4 28.8L34.4 28.8ZM32.4 23.4L32.4 26.9L34.5 26.9Q35.4 26.9 35.9 26.5Q36.4 26.1 36.4 25.3L36.4 25.3Q36.4 24.4 35.9 23.9Q35.4 23.4 34.5 23.4L34.5 23.4L32.4 23.4ZM41.9 24.4L43.5 29.6L45.0 24.4L47.4 24.4L44.0 34.2L43.9 34.6Q43.1 36.3 41.4 36.3L41.4 36.3Q40.9 36.3 40.4 36.1L40.4 36.1L40.4 34.4L40.7 34.4Q41.3 34.4 41.7 34.2Q42.0 34.0 42.2 33.6L42.2 33.6L42.4 32.9L39.5 24.4L41.9 24.4ZM48.8 22.3L51.0 22.3L51.0 24.4L52.5 24.4L52.5 26.0L51.0 26.0L51.0 30.3Q51.0 30.7 51.2 30.9Q51.4 31.1 51.9 31.1L51.9 31.1Q52.3 31.1 52.6 31.1L52.6 31.1L52.6 32.8Q51.9 33 51.2 33L51.2 33Q48.8 33 48.8 30.6L48.8 30.6L48.8 26.0L47.5 26.0L47.5 24.4L48.8 24.4L48.8 22.3ZM55.9 20.8L55.9 25.3Q56.8 24.2 58.2 24.2L58.2 24.2Q61.0 24.2 61.0 27.4L61.0 27.4L61.0 32.8L58.7 32.8L58.7 27.5Q58.7 26.8 58.4 26.4Q58.1 26.1 57.4 26.1L57.4 26.1Q56.4 26.1 55.9 26.8L55.9 26.8L55.9 32.8L53.7 32.8L53.7 20.8L55.9 20.8ZM62.3 28.6L62.3 28.5Q62.3 27.3 62.8 26.3Q63.3 25.3 64.2 24.8Q65.1 24.2 66.3 24.2L66.3 24.2Q68.0 24.2 69.1 25.3Q70.2 26.3 70.3 28.1L70.3 28.1L70.4 28.7Q70.4 30.6 69.3 31.8Q68.2 33 66.4 33Q64.5 33 63.4 31.8Q62.3 30.7 62.3 28.6L62.3 28.6ZM64.6 28.7L64.6 28.7Q64.6 29.9 65.1 30.5Q65.5 31.2 66.4 31.2L66.4 31.2Q67.2 31.2 67.6 30.6Q68.1 29.9 68.1 28.5L68.1 28.5Q68.1 27.4 67.6 26.7Q67.2 26.1 66.3 26.1L66.3 26.1Q65.5 26.1 65.1 26.7Q64.6 27.4 64.6 28.7ZM71.7 24.4L73.8 24.4L73.9 25.4Q74.8 24.2 76.3 24.2L76.3 24.2Q77.7 24.2 78.3 25.0Q79.0 25.8 79.0 27.4L79.0 27.4L79.0 32.8L76.7 32.8L76.7 27.4Q76.7 26.7 76.4 26.4Q76.1 26.1 75.4 26.1L75.4 26.1Q74.4 26.1 74.0 26.9L74.0 26.9L74.0 32.8L71.7 32.8L71.7 24.4Z "/><mask id="satori_om-id-1-0-2"><rect x="89" y="18" width="43" height="19" fill="#fff"/></mask><path fill="#7d8590" d="M91.8 27.4L90.6 27.1L91.2 21.5L97.0 21.5L97.0 22.8L92.4 22.8L92.1 25.9Q92.9 25.4 94.0 25.4L94.0 25.4Q95.5 25.4 96.4 26.4Q97.4 27.5 97.4 29.2L97.4 29.2Q97.4 31.0 96.4 32.0Q95.5 33 93.8 33L93.8 33Q92.2 33 91.3 32.2Q90.3 31.3 90.2 29.9L90.2 29.9L91.6 29.9Q91.7 30.8 92.3 31.3Q92.8 31.8 93.8 31.8L93.8 31.8Q94.8 31.8 95.3 31.1Q95.9 30.4 95.9 29.2L95.9 29.2Q95.9 28.1 95.3 27.4Q94.7 26.7 93.6 26.7L93.6 26.7Q92.7 26.7 92.1 27.1L92.1 27.1L91.8 27.4ZM101.0 27.6L101.0 26.5L102.1 26.5Q103.1 26.4 103.7 25.9Q104.3 25.4 104.3 24.5L104.3 24.5Q104.3 22.5 102.3 22.5L102.3 22.5Q101.4 22.5 100.8 23.0Q100.3 23.6 100.3 24.5L100.3 24.5L98.8 24.5Q98.8 23.1 99.8 22.2Q100.8 21.3 102.3 21.3L102.3 21.3Q103.9 21.3 104.8 22.2Q105.8 23.0 105.8 24.5L105.8 24.5Q105.8 25.3 105.3 26.0Q104.8 26.7 104.0 27.0L104.0 27.0Q104.9 27.3 105.4 28.0Q105.9 28.7 105.9 29.7L105.9 29.7Q105.9 31.2 104.9 32.1Q103.9 33 102.3 33Q100.7 33 99.7 32.1Q98.7 31.3 98.7 29.8L98.7 29.8L100.2 29.8Q100.2 30.7 100.8 31.3Q101.3 31.8 102.3 31.8L102.3 31.8Q103.4 31.8 103.9 31.3Q104.5 30.7 104.5 29.7L104.5 29.7Q104.5 28.7 103.9 28.2Q103.3 27.6 102.1 27.6L102.1 27.6L101.0 27.6ZM108.1 32.1L108.1 32.1Q108.1 31.7 108.3 31.5Q108.5 31.2 109.0 31.2Q109.4 31.2 109.7 31.5Q109.9 31.7 109.9 32.1L109.9 32.1Q109.9 32.4 109.7 32.7Q109.4 32.9 109.0 32.9Q108.5 32.9 108.3 32.7Q108.1 32.4 108.1 32.1ZM119.0 24.4L119.0 24.4Q119.0 25.3 118.6 26.0Q118.1 26.6 117.4 27.0L117.4 27.0Q118.3 27.4 118.8 28.1Q119.3 28.8 119.3 29.8L119.3 29.8Q119.3 31.3 118.3 32.1Q117.3 33 115.7 33L115.7 33Q114.0 33 113.0 32.1Q112.1 31.2 112.1 29.8L112.1 29.8Q112.1 28.9 112.6 28.1Q113.1 27.4 114.0 27.0L114.0 27.0Q113.2 26.6 112.8 25.9Q112.3 25.3 112.3 24.4L112.3 24.4Q112.3 23 113.2 22.2Q114.2 21.3 115.7 21.3L115.7 21.3Q117.2 21.3 118.1 22.2Q119.0 23 119.0 24.4ZM117.8 29.7L117.8 29.7Q117.8 28.8 117.2 28.2Q116.6 27.6 115.7 27.6Q114.7 27.6 114.1 28.2Q113.5 28.8 113.5 29.7Q113.5 30.7 114.1 31.3Q114.6 31.8 115.7 31.8L115.7 31.8Q116.7 31.8 117.3 31.3Q117.8 30.7 117.8 29.7ZM115.7 22.5L115.7 22.5Q114.8 22.5 114.3 23.0Q113.8 23.6 113.8 24.5L113.8 24.5Q113.8 25.3 114.3 25.9Q114.8 26.4 115.7 26.4Q116.5 26.4 117.1 25.9Q117.6 25.3 117.6 24.5Q117.6 23.6 117.0 23.0Q116.5 22.5 115.7 22.5ZM121.0 24.2L121.0 23.7Q121.0 22.6 121.6 22.0Q122.3 21.3 123.3 21.3L123.3 21.3Q124.4 21.3 125.0 22.0Q125.6 22.6 125.6 23.7L125.6 23.7L125.6 24.3Q125.6 25.3 125.0 25.9Q124.3 26.6 123.3 26.6L123.3 26.6Q122.3 26.6 121.6 25.9Q121.0 25.3 121.0 24.2L121.0 24.2ZM122.1 23.7L122.1 24.3Q122.1 24.9 122.4 25.3Q122.8 25.7 123.3 25.7L123.3 25.7Q123.9 25.7 124.2 25.3Q124.6 24.9 124.6 24.2L124.6 24.2L124.6 23.7Q124.6 23.0 124.2 22.6Q123.9 22.3 123.3 22.3Q122.7 22.3 122.4 22.6Q122.1 23.0 122.1 23.7L122.1 23.7ZM126.5 30.6L126.5 30.1Q126.5 29.0 127.2 28.4Q127.8 27.7 128.9 27.7Q129.9 27.7 130.5 28.4Q131.2 29.0 131.2 30.1L131.2 30.1L131.2 30.7Q131.2 31.7 130.5 32.3Q129.9 33.0 128.9 33.0Q127.9 33.0 127.2 32.4Q126.5 31.7 126.5 30.6L126.5 30.6ZM127.6 30.1L127.6 30.7Q127.6 31.3 127.9 31.7Q128.3 32.1 128.9 32.1L128.9 32.1Q129.4 32.1 129.8 31.7Q130.1 31.3 130.1 30.6L130.1 30.6L130.1 30.1Q130.1 29.4 129.8 29.0Q129.4 28.7 128.9 28.7L128.9 28.7Q128.3 28.7 127.9 29.0Q127.6 29.4 127.6 30.1L127.6 30.1ZM129.2 23.1L123.7 32.0L122.8 31.5L128.4 22.6L129.2 23.1Z "/><mask id="satori_om-id-1-1"><rect x="142" y="18" width="158" height="19" fill="#fff"/></mask><mask id="satori_om-id-1-1-0"><rect x="142" y="19" width="16" height="16" fill="#fff"/></mask><mask id="satori_om-id-1-1-0-0"><rect x="146" y="23" width="8" height="8" fill="#fff"/></mask><path x="146" y="23" width="8" height="8" fill="#f1e05a" d="M150,23 h0 a4,4 0 0 1 4,4 v0 a4,4 0 0 1 -4,4 h0 a4,4 0 0 1 -4,-4 v0 a4,4 0 0 1 4,-4"/><mask id="satori_om-id-1-1-1"><rect x="171" y="18" width="77" height="19" fill="#fff"/></mask><path fill="#fff" d="M176.6 29.3L176.6 21.5L178.9 21.5L178.9 29.3Q178.9 30.4 178.5 31.3Q178.0 32.1 177.1 32.5Q176.2 33 175.1 33L175.1 33Q173.3 33 172.3 32.1Q171.3 31.2 171.3 29.5L171.3 29.5L173.7 29.5Q173.7 30.3 174.0 30.7Q174.4 31.1 175.1 31.1L175.1 31.1Q175.8 31.1 176.2 30.7Q176.6 30.2 176.6 29.3L176.6 29.3ZM188.0 32.8L185.7 32.8Q185.5 32.5 185.5 32.1L185.5 32.1Q184.7 33 183.3 33L183.3 33Q182.1 33 181.3 32.3Q180.5 31.6 180.5 30.5L180.5 30.5Q180.5 29.1 181.5 28.4Q182.5 27.7 184.3 27.7L184.3 27.7L185.4 27.7L185.4 27.2Q185.4 26.6 185.1 26.3Q184.8 25.9 184.1 25.9L184.1 25.9Q183.6 25.9 183.2 26.2Q182.9 26.5 182.9 26.9L182.9 26.9L180.7 26.9Q180.7 26.2 181.1 25.6Q181.6 24.9 182.4 24.6Q183.2 24.2 184.3 24.2L184.3 24.2Q185.8 24.2 186.7 25.0Q187.6 25.8 187.6 27.2L187.6 27.2L187.6 30.9Q187.7 32.1 188.0 32.7L188.0 32.7L188.0 32.8ZM183.8 31.3L183.8 31.3Q184.3 31.3 184.8 31.1Q185.2 30.8 185.4 30.5L185.4 30.5L185.4 29L184.5 29Q182.8 29 182.7 30.2L182.7 30.2L182.7 30.3Q182.7 30.7 183.0 31Q183.3 31.3 183.8 31.3ZM190.9 24.4L192.4 30.1L194 24.4L196.4 24.4L193.5 32.8L191.4 32.8L188.5 24.4L190.9 24.4ZM204.4 32.8L202.1 32.8Q202.0 32.5 201.9 32.1L201.9 32.1Q201.1 33 199.8 33L199.8 33Q198.5 33 197.7 32.3Q196.9 31.6 196.9 30.5L196.9 30.5Q196.9 29.1 197.9 28.4Q198.9 27.7 200.8 27.7L200.8 27.7L201.8 27.7L201.8 27.2Q201.8 26.6 201.5 26.3Q201.2 25.9 200.6 25.9L200.6 25.9Q200.0 25.9 199.7 26.2Q199.3 26.5 199.3 26.9L199.3 26.9L197.1 26.9Q197.1 26.2 197.5 25.6Q198.0 24.9 198.8 24.6Q199.6 24.2 200.7 24.2L200.7 24.2Q202.2 24.2 203.2 25.0Q204.1 25.8 204.1 27.2L204.1 27.2L204.1 30.9Q204.1 32.1 204.4 32.7L204.4 32.7L204.4 32.8ZM200.3 31.3L200.3 31.3Q200.8 31.3 201.2 31.1Q201.6 30.8 201.8 30.5L201.8 30.5L201.8 29L201.0 29Q199.3 29 199.2 30.2L199.2 30.2L199.2 30.3Q199.2 30.7 199.5 31Q199.8 31.3 200.3 31.3ZM211.9 29.9L211.9 29.9Q211.9 29.2 211.4 28.8Q210.9 28.5 209.7 28.1Q208.5 27.7 207.8 27.3L207.8 27.3Q205.8 26.3 205.8 24.5L205.8 24.5Q205.8 23.6 206.4 22.8Q206.9 22.1 207.8 21.7Q208.8 21.3 210.0 21.3L210.0 21.3Q211.3 21.3 212.2 21.8Q213.2 22.2 213.7 23Q214.2 23.8 214.2 24.8L214.2 24.8L211.9 24.8Q211.9 24.0 211.4 23.6Q210.9 23.2 210.0 23.2L210.0 23.2Q209.1 23.2 208.7 23.5Q208.2 23.9 208.2 24.5L208.2 24.5Q208.2 25.1 208.7 25.4Q209.3 25.8 210.4 26.1L210.4 26.1Q212.4 26.7 213.3 27.6Q214.2 28.5 214.2 29.8L214.2 29.8Q214.2 31.3 213.1 32.2Q212.0 33 210.1 33L210.1 33Q208.8 33 207.7 32.5Q206.6 32.0 206.1 31.2Q205.5 30.4 205.5 29.3L205.5 29.3L207.8 29.3Q207.8 31.1 210.1 31.1L210.1 31.1Q210.9 31.1 211.4 30.8Q211.9 30.5 211.9 29.9ZM219.2 31.2L219.2 31.2Q219.8 31.2 220.2 30.8Q220.6 30.5 220.6 29.9L220.6 29.9L222.7 29.9Q222.7 30.8 222.2 31.5Q221.8 32.2 221.0 32.6Q220.2 33 219.2 33L219.2 33Q217.4 33 216.3 31.8Q215.3 30.7 215.3 28.7L215.3 28.7L215.3 28.5Q215.3 26.6 216.3 25.4Q217.4 24.2 219.2 24.2L219.2 24.2Q220.8 24.2 221.7 25.1Q222.7 26.0 222.7 27.5L222.7 27.5L220.6 27.5Q220.6 26.9 220.2 26.5Q219.8 26.1 219.1 26.1L219.1 26.1Q218.4 26.1 218.0 26.6Q217.6 27.2 217.6 28.5L217.6 28.5L217.6 28.7Q217.6 30.0 218.0 30.6Q218.4 31.2 219.2 31.2ZM228.8 24.3L228.7 26.5Q228.3 26.4 227.9 26.4L227.9 26.4Q226.6 26.4 226.3 27.3L226.3 27.3L226.3 32.8L224.0 32.8L224.0 24.4L226.1 24.4L226.2 25.4Q226.9 24.2 228.1 24.2L228.1 24.2Q228.4 24.2 228.8 24.3L228.8 24.3ZM232.2 24.4L232.2 32.8L229.9 32.8L229.9 24.4L232.2 24.4ZM229.8 22.2L229.8 22.2Q229.8 21.7 230.2 21.4Q230.5 21.0 231.1 21.0L231.1 21.0Q231.7 21.0 232 21.4Q232.3 21.7 232.3 22.2L232.3 22.2Q232.3 22.7 232.0 23.0Q231.6 23.4 231.1 23.4Q230.5 23.4 230.2 23.0Q229.8 22.7 229.8 22.2ZM241.7 28.6L241.7 28.7Q241.7 30.6 240.8 31.8Q239.9 33 238.4 33L238.4 33Q237.1 33 236.3 32.1L236.3 32.1L236.3 36.1L234.1 36.1L234.1 24.4L236.2 24.4L236.2 25.2Q237.1 24.2 238.4 24.2L238.4 24.2Q239.9 24.2 240.8 25.4Q241.7 26.5 241.7 28.6L241.7 28.6ZM239.4 28.5L239.4 28.5Q239.4 27.4 239.0 26.7Q238.6 26.1 237.8 26.1L237.8 26.1Q236.7 26.1 236.3 26.9L236.3 26.9L236.3 30.3Q236.7 31.2 237.8 31.2L237.8 31.2Q239.4 31.2 239.4 28.5ZM243.5 22.3L245.8 22.3L245.8 24.4L247.2 24.4L247.2 26.0L245.8 26.0L245.8 30.3Q245.8 30.7 246.0 30.9Q246.1 31.1 246.6 31.1L246.6 31.1Q247.0 31.1 247.3 31.1L247.3 31.1L247.3 32.8Q246.6 33 245.9 33L245.9 33Q243.6 33 243.5 30.6L243.5 30.6L243.5 26.0L242.3 26.0L242.3 24.4L243.5 24.4L243.5 22.3Z "/><mask id="satori_om-id-1-1-2"><rect x="257" y="18" width="43" height="19" fill="#fff"/></mask><path fill="#7d8590" d="M262.7 21.4L262.7 32.8L261.2 32.8L261.2 23.2L258.3 24.3L258.3 23.0L262.5 21.4L262.7 21.4ZM269.0 27.6L269.0 26.5L270.1 26.5Q271.1 26.4 271.7 25.9Q272.3 25.4 272.3 24.5L272.3 24.5Q272.3 22.5 270.3 22.5L270.3 22.5Q269.4 22.5 268.8 23.0Q268.3 23.6 268.3 24.5L268.3 24.5L266.8 24.5Q266.8 23.1 267.8 22.2Q268.8 21.3 270.3 21.3L270.3 21.3Q271.9 21.3 272.8 22.2Q273.8 23.0 273.8 24.5L273.8 24.5Q273.8 25.3 273.3 26.0Q272.8 26.7 272.0 27.0L272.0 27.0Q272.9 27.3 273.4 28.0Q273.9 28.7 273.9 29.7L273.9 29.7Q273.9 31.2 272.9 32.1Q271.9 33 270.3 33Q268.7 33 267.7 32.1Q266.7 31.3 266.7 29.8L266.7 29.8L268.2 29.8Q268.2 30.7 268.8 31.3Q269.3 31.8 270.3 31.8L270.3 31.8Q271.4 31.8 271.9 31.3Q272.5 30.7 272.5 29.7L272.5 29.7Q272.5 28.7 271.9 28.2Q271.3 27.6 270.1 27.6L270.1 27.6L269.0 27.6ZM276.1 32.1L276.1 32.1Q276.1 31.7 276.3 31.5Q276.5 31.2 277.0 31.2Q277.4 31.2 277.7 31.5Q277.9 31.7 277.9 32.1L277.9 32.1Q277.9 32.4 277.7 32.7Q277.4 32.9 277.0 32.9Q276.5 32.9 276.3 32.7Q276.1 32.4 276.1 32.1ZM281.9 27.4L280.8 27.1L281.4 21.5L287.2 21.5L287.2 22.8L282.6 22.8L282.3 25.9Q283.1 25.4 284.1 25.4L284.1 25.4Q285.7 25.4 286.6 26.4Q287.5 27.5 287.5 29.2L287.5 29.2Q287.5 31.0 286.6 32.0Q285.6 33 283.9 33L283.9 33Q282.4 33 281.5 32.2Q280.5 31.3 280.4 29.9L280.4 29.9L281.8 29.9Q281.9 30.8 282.4 31.3Q283.0 31.8 283.9 31.8L283.9 31.8Q284.9 31.8 285.5 31.1Q286.1 30.4 286.1 29.2L286.1 29.2Q286.1 28.1 285.5 27.4Q284.8 26.7 283.8 26.7L283.8 26.7Q282.9 26.7 282.3 27.1L282.3 27.1L281.9 27.4ZM289.0 24.2L289.0 23.7Q289.0 22.6 289.6 22.0Q290.3 21.3 291.3 21.3L291.3 21.3Q292.4 21.3 293.0 22.0Q293.6 22.6 293.6 23.7L293.6 23.7L293.6 24.3Q293.6 25.3 293.0 25.9Q292.3 26.6 291.3 26.6L291.3 26.6Q290.3 26.6 289.6 25.9Q289.0 25.3 289.0 24.2L289.0 24.2ZM290.1 23.7L290.1 24.3Q290.1 24.9 290.4 25.3Q290.8 25.7 291.3 25.7L291.3 25.7Q291.9 25.7 292.2 25.3Q292.6 24.9 292.6 24.2L292.6 24.2L292.6 23.7Q292.6 23.0 292.2 22.6Q291.9 22.3 291.3 22.3Q290.7 22.3 290.4 22.6Q290.1 23.0 290.1 23.7L290.1 23.7ZM294.5 30.6L294.5 30.1Q294.5 29.0 295.2 28.4Q295.8 27.7 296.9 27.7Q297.9 27.7 298.5 28.4Q299.2 29.0 299.2 30.1L299.2 30.1L299.2 30.7Q299.2 31.7 298.5 32.3Q297.9 33.0 296.9 33.0Q295.9 33.0 295.2 32.4Q294.5 31.7 294.5 30.6L294.5 30.6ZM295.6 30.1L295.6 30.7Q295.6 31.3 295.9 31.7Q296.3 32.1 296.9 32.1L296.9 32.1Q297.4 32.1 297.8 31.7Q298.1 31.3 298.1 30.6L298.1 30.6L298.1 30.1Q298.1 29.4 297.8 29.0Q297.4 28.7 296.9 28.7L296.9 28.7Q296.3 28.7 295.9 29.0Q295.6 29.4 295.6 30.1L295.6 30.1ZM297.2 23.1L291.7 32.0L290.8 31.5L296.4 22.6L297.2 23.1Z "/><mask id="satori_om-id-1-2"><rect x="0" y="47" width="160" height="19" fill="#fff"/></mask><mask id="satori_om-id-1-2-0"><rect x="0" y="48" width="16" height="16" fill="#fff"/></mask><mask id="satori_om-id-1-2-0-0"><rect x="4" y="52" width="8" height="8" fill="#fff"/></mask><path x="4" y="52" width="8" height="8" fill="#3178c6" d="M8,52 h0 a4,4 0 0 1 4,4 v0 a4,4 0 0 1 -4,4 h0 a4,4 0 0 1 -4,-4 v0 a4,4 0 0 1 4,-4"/><mask id="satori_om-id-1-2-1"><rect x="29" y="47" width="79" height="19" fill="#fff"/></mask><path fill="#fff" d="M38.6 50.5L38.6 52.4L35.1 52.4L35.1 61.8L32.8 61.8L32.8 52.4L29.3 52.4L29.3 50.5L38.6 50.5ZM40.7 53.4L42.3 58.6L43.8 53.4L46.3 53.4L42.9 63.2L42.7 63.6Q41.9 65.3 40.2 65.3L40.2 65.3Q39.7 65.3 39.2 65.1L39.2 65.1L39.2 63.4L39.5 63.4Q40.2 63.4 40.5 63.2Q40.8 63.0 41.0 62.6L41.0 62.6L41.2 61.9L38.3 53.4L40.7 53.4ZM54.8 57.6L54.8 57.7Q54.8 59.6 53.9 60.8Q53.0 62 51.5 62L51.5 62Q50.2 62 49.4 61.1L49.4 61.1L49.4 65.1L47.2 65.1L47.2 53.4L49.3 53.4L49.3 54.2Q50.1 53.2 51.5 53.2L51.5 53.2Q53.0 53.2 53.9 54.4Q54.8 55.5 54.8 57.6L54.8 57.6ZM52.5 57.5L52.5 57.5Q52.5 56.4 52.1 55.7Q51.7 55.1 50.9 55.1L50.9 55.1Q49.8 55.1 49.4 55.9L49.4 55.9L49.4 59.3Q49.8 60.2 50.9 60.2L50.9 60.2Q52.5 60.2 52.5 57.5ZM60.1 62L60.1 62Q58.2 62 57.0 60.9Q55.9 59.7 55.9 57.8L55.9 57.8L55.9 57.6Q55.9 56.3 56.4 55.3Q56.8 54.3 57.7 53.8Q58.6 53.2 59.8 53.2L59.8 53.2Q61.5 53.2 62.5 54.3Q63.5 55.4 63.5 57.4L63.5 57.4L63.5 58.4L58.1 58.4Q58.3 59.2 58.8 59.7Q59.4 60.2 60.2 60.2L60.2 60.2Q61.5 60.2 62.2 59.2L62.2 59.2L63.4 60.5Q62.8 61.2 62.0 61.6Q61.1 62 60.1 62ZM59.8 55.1L59.8 55.1Q59.1 55.1 58.7 55.5Q58.3 56.0 58.2 56.8L58.2 56.8L61.3 56.8L61.3 56.6Q61.3 55.9 60.9 55.5Q60.5 55.1 59.8 55.1ZM70.9 58.9L70.9 58.9Q70.9 58.2 70.4 57.8Q69.9 57.5 68.7 57.1Q67.5 56.7 66.8 56.3L66.8 56.3Q64.8 55.3 64.8 53.5L64.8 53.5Q64.8 52.6 65.4 51.8Q65.9 51.1 66.8 50.7Q67.8 50.3 69.0 50.3L69.0 50.3Q70.3 50.3 71.2 50.8Q72.2 51.2 72.7 52Q73.2 52.8 73.2 53.8L73.2 53.8L70.9 53.8Q70.9 53.0 70.4 52.6Q69.9 52.2 69.0 52.2L69.0 52.2Q68.1 52.2 67.7 52.5Q67.2 52.9 67.2 53.5L67.2 53.5Q67.2 54.1 67.7 54.4Q68.3 54.8 69.4 55.1L69.4 55.1Q71.4 55.7 72.3 56.6Q73.2 57.5 73.2 58.8L73.2 58.8Q73.2 60.3 72.1 61.2Q71.0 62 69.1 62L69.1 62Q67.8 62 66.7 61.5Q65.6 61.0 65.1 60.2Q64.5 59.4 64.5 58.3L64.5 58.3L66.8 58.3Q66.8 60.1 69.1 60.1L69.1 60.1Q69.9 60.1 70.4 59.8Q70.9 59.5 70.9 58.9ZM78.2 60.2L78.2 60.2Q78.8 60.2 79.2 59.8Q79.6 59.5 79.6 58.9L79.6 58.9L81.7 58.9Q81.7 59.8 81.2 60.5Q80.8 61.2 80.0 61.6Q79.2 62 78.2 62L78.2 62Q76.4 62 75.3 60.8Q74.3 59.7 74.3 57.7L74.3 57.7L74.3 57.5Q74.3 55.6 75.3 54.4Q76.4 53.2 78.2 53.2L78.2 53.2Q79.8 53.2 80.7 54.1Q81.7 55.0 81.7 56.5L81.7 56.5L79.6 56.5Q79.6 55.9 79.2 55.5Q78.8 55.1 78.1 55.1L78.1 55.1Q77.4 55.1 77.0 55.6Q76.6 56.2 76.6 57.5L76.6 57.5L76.6 57.7Q76.6 59.0 77.0 59.6Q77.4 60.2 78.2 60.2ZM87.8 53.3L87.7 55.5Q87.3 55.4 86.9 55.4L86.9 55.4Q85.6 55.4 85.3 56.3L85.3 56.3L85.3 61.8L83.0 61.8L83.0 53.4L85.1 53.4L85.2 54.4Q85.9 53.2 87.1 53.2L87.1 53.2Q87.4 53.2 87.8 53.3L87.8 53.3ZM91.2 53.4L91.2 61.8L88.9 61.8L88.9 53.4L91.2 53.4ZM88.8 51.2L88.8 51.2Q88.8 50.7 89.2 50.4Q89.5 50.0 90.1 50.0L90.1 50.0Q90.7 50.0 91 50.4Q91.3 50.7 91.3 51.2L91.3 51.2Q91.3 51.7 91.0 52.0Q90.6 52.4 90.1 52.4Q89.5 52.4 89.2 52.0Q88.8 51.7 88.8 51.2ZM100.7 57.6L100.7 57.7Q100.7 59.6 99.8 60.8Q98.9 62 97.4 62L97.4 62Q96.1 62 95.3 61.1L95.3 61.1L95.3 65.1L93.1 65.1L93.1 53.4L95.2 53.4L95.2 54.2Q96.1 53.2 97.4 53.2L97.4 53.2Q98.9 53.2 99.8 54.4Q100.7 55.5 100.7 57.6L100.7 57.6ZM98.4 57.5L98.4 57.5Q98.4 56.4 98.0 55.7Q97.6 55.1 96.8 55.1L96.8 55.1Q95.7 55.1 95.3 55.9L95.3 55.9L95.3 59.3Q95.7 60.2 96.8 60.2L96.8 60.2Q98.4 60.2 98.4 57.5ZM102.5 51.3L104.8 51.3L104.8 53.4L106.2 53.4L106.2 55.0L104.8 55.0L104.8 59.3Q104.8 59.7 105.0 59.9Q105.1 60.1 105.6 60.1L105.6 60.1Q106.0 60.1 106.3 60.1L106.3 60.1L106.3 61.8Q105.6 62 104.9 62L104.9 62Q102.6 62 102.5 59.6L102.5 59.6L102.5 55.0L101.3 55.0L101.3 53.4L102.5 53.4L102.5 51.3Z "/><mask id="satori_om-id-1-2-2"><rect x="117" y="47" width="43" height="19" fill="#fff"/></mask><path fill="#7d8590" d="M122.7 50.4L122.7 61.8L121.2 61.8L121.2 52.2L118.3 53.3L118.3 52.0L122.5 50.4L122.7 50.4ZM134.4 60.7L134.4 61.8L126.9 61.8L126.9 60.8L130.9 56.4Q131.7 55.4 132.1 54.8Q132.4 54.2 132.4 53.5L132.4 53.5Q132.4 52.6 131.9 52.1Q131.3 51.5 130.4 51.5L130.4 51.5Q129.4 51.5 128.8 52.1Q128.2 52.7 128.2 53.8L128.2 53.8L126.7 53.8Q126.7 52.3 127.7 51.3Q128.7 50.3 130.4 50.3L130.4 50.3Q132.0 50.3 132.9 51.1Q133.9 52.0 133.9 53.4L133.9 53.4Q133.9 55.0 131.7 57.4L131.7 57.4L128.7 60.7L134.4 60.7ZM136.1 61.1L136.1 61.1Q136.1 60.7 136.3 60.5Q136.5 60.2 137.0 60.2Q137.4 60.2 137.7 60.5Q137.9 60.7 137.9 61.1L137.9 61.1Q137.9 61.4 137.7 61.7Q137.4 61.9 137.0 61.9Q136.5 61.9 136.3 61.7Q136.1 61.4 136.1 61.1ZM145.7 56.8L145.7 56.8Q145.2 57.4 144.6 57.7Q144.0 58.0 143.2 58.0L143.2 58.0Q142.2 58.0 141.5 57.6Q140.8 57.1 140.4 56.2Q140.0 55.3 140.0 54.3L140.0 54.3Q140.0 53.1 140.4 52.2Q140.8 51.3 141.6 50.8Q142.4 50.3 143.5 50.3L143.5 50.3Q145.2 50.3 146.1 51.6Q147.1 52.8 147.1 55.0L147.1 55.0L147.1 55.4Q147.1 58.8 145.8 60.3Q144.5 61.8 141.8 61.9L141.8 61.9L141.6 61.9L141.6 60.6L141.9 60.6Q143.7 60.6 144.6 59.7Q145.6 58.8 145.7 56.8ZM143.4 56.8L143.4 56.8Q144.2 56.8 144.8 56.4Q145.4 56.0 145.7 55.3L145.7 55.3L145.7 54.7Q145.7 53.3 145.1 52.4Q144.4 51.5 143.5 51.5L143.5 51.5Q142.5 51.5 142.0 52.2Q141.4 53.0 141.4 54.2L141.4 54.2Q141.4 55.3 141.9 56.1Q142.5 56.8 143.4 56.8ZM149.0 53.2L149.0 52.7Q149.0 51.6 149.6 51.0Q150.3 50.3 151.3 50.3L151.3 50.3Q152.4 50.3 153.0 51.0Q153.6 51.6 153.6 52.7L153.6 52.7L153.6 53.3Q153.6 54.3 153.0 54.9Q152.3 55.6 151.3 55.6L151.3 55.6Q150.3 55.6 149.6 54.9Q149.0 54.3 149.0 53.2L149.0 53.2ZM150.1 52.7L150.1 53.3Q150.1 53.9 150.4 54.3Q150.8 54.7 151.3 54.7L151.3 54.7Q151.9 54.7 152.2 54.3Q152.6 53.9 152.6 53.2L152.6 53.2L152.6 52.7Q152.6 52.0 152.2 51.6Q151.9 51.3 151.3 51.3Q150.7 51.3 150.4 51.6Q150.1 52.0 150.1 52.7L150.1 52.7ZM154.5 59.6L154.5 59.1Q154.5 58.0 155.2 57.4Q155.8 56.7 156.9 56.7Q157.9 56.7 158.5 57.4Q159.2 58.0 159.2 59.1L159.2 59.1L159.2 59.7Q159.2 60.7 158.5 61.3Q157.9 62.0 156.9 62.0Q155.9 62.0 155.2 61.4Q154.5 60.7 154.5 59.6L154.5 59.6ZM155.6 59.1L155.6 59.7Q155.6 60.3 155.9 60.7Q156.3 61.1 156.9 61.1L156.9 61.1Q157.4 61.1 157.8 60.7Q158.1 60.3 158.1 59.6L158.1 59.6L158.1 59.1Q158.1 58.4 157.8 58.0Q157.4 57.7 156.9 57.7L156.9 57.7Q156.3 57.7 155.9 58.0Q155.6 58.4 155.6 59.1L155.6 59.1ZM157.2 52.1L151.7 61.0L150.8 60.5L156.4 51.6L157.2 52.1Z "/><mask id="satori_om-id-1-3"><rect x="170" y="47" width="116" height="19" fill="#fff"/></mask><mask id="satori_om-id-1-3-0"><rect x="170" y="48" width="16" height="16" fill="#fff"/></mask><mask id="satori_om-id-1-3-0-0"><rect x="174" y="52" width="8" height="8" fill="#fff"/></mask><path x="174" y="52" width="8" height="8" fill="#e34c26" d="M178,52 h0 a4,4 0 0 1 4,4 v0 a4,4 0 0 1 -4,4 h0 a4,4 0 0 1 -4,-4 v0 a4,4 0 0 1 4,-4"/><mask id="satori_om-id-1-3-1"><rect x="199" y="47" width="44" height="19" fill="#fff"/></mask><path fill="#fff" d="M209.3 50.5L209.3 61.8L206.9 61.8L206.9 57.0L202.4 57.0L202.4 61.8L200.0 61.8L200.0 50.5L202.4 50.5L202.4 55.1L206.9 55.1L206.9 50.5L209.3 50.5ZM219.7 50.5L219.7 52.4L216.2 52.4L216.2 61.8L213.8 61.8L213.8 52.4L210.4 52.4L210.4 50.5L219.7 50.5ZM221.0 50.5L224.1 50.5L227.0 58.7L229.9 50.5L233.0 50.5L233.0 61.8L230.6 61.8L230.6 58.7L230.8 53.4L227.8 61.8L226.2 61.8L223.1 53.4L223.3 58.7L223.3 61.8L221.0 61.8L221.0 50.5ZM237.4 50.5L237.4 60.0L242.3 60.0L242.3 61.8L235.0 61.8L235.0 50.5L237.4 50.5Z "/><mask id="satori_om-id-1-3-2"><rect x="252" y="47" width="34" height="19" fill="#fff"/></mask><path fill="#7d8590" d="M260.3 50.5L260.3 51.3L255.6 61.8L254.1 61.8L258.8 51.7L252.6 51.7L252.6 50.5L260.3 50.5ZM262.1 61.1L262.1 61.1Q262.1 60.7 262.3 60.5Q262.6 60.2 263 60.2Q263.4 60.2 263.7 60.5Q263.9 60.7 263.9 61.1L263.9 61.1Q263.9 61.4 263.7 61.7Q263.4 61.9 263 61.9Q262.6 61.9 262.3 61.7Q262.1 61.4 262.1 61.1ZM273.3 55.1L273.3 57.0Q273.3 59.5 272.4 60.8Q271.5 62 269.7 62L269.7 62Q267.9 62 267 60.8Q266.1 59.6 266.1 57.2L266.1 57.2L266.1 55.3Q266.1 52.8 267.0 51.5Q267.8 50.3 269.7 50.3L269.7 50.3Q271.5 50.3 272.4 51.5Q273.3 52.7 273.3 55.1L273.3 55.1ZM271.8 57.4L271.8 55.0Q271.8 53.2 271.3 52.3Q270.8 51.5 269.7 51.5L269.7 51.5Q268.6 51.5 268.1 52.3Q267.6 53.2 267.5 54.9L267.5 54.9L267.5 57.2Q267.5 59.1 268.1 59.9Q268.6 60.8 269.7 60.8L269.7 60.8Q270.8 60.8 271.3 60.0Q271.8 59.2 271.8 57.4L271.8 57.4ZM275 53.2L275 52.7Q275 51.6 275.7 51.0Q276.3 50.3 277.3 50.3L277.3 50.3Q278.4 50.3 279.0 51.0Q279.7 51.6 279.7 52.7L279.7 52.7L279.7 53.3Q279.7 54.3 279.0 54.9Q278.4 55.6 277.3 55.6L277.3 55.6Q276.3 55.6 275.7 54.9Q275 54.3 275 53.2L275 53.2ZM276.1 52.7L276.1 53.3Q276.1 53.9 276.4 54.3Q276.8 54.7 277.3 54.7L277.3 54.7Q277.9 54.7 278.2 54.3Q278.6 53.9 278.6 53.2L278.6 53.2L278.6 52.7Q278.6 52.0 278.2 51.6Q277.9 51.3 277.3 51.3Q276.8 51.3 276.4 51.6Q276.1 52.0 276.1 52.7L276.1 52.7ZM280.5 59.6L280.5 59.1Q280.5 58.0 281.2 57.4Q281.8 56.7 282.9 56.7Q283.9 56.7 284.5 57.4Q285.2 58.0 285.2 59.1L285.2 59.1L285.2 59.7Q285.2 60.7 284.6 61.3Q283.9 62.0 282.9 62.0Q281.9 62.0 281.2 61.4Q280.5 60.7 280.5 59.6L280.5 59.6ZM281.6 59.1L281.6 59.7Q281.6 60.3 282.0 60.7Q282.3 61.1 282.9 61.1L282.9 61.1Q283.4 61.1 283.8 60.7Q284.1 60.3 284.1 59.6L284.1 59.6L284.1 59.1Q284.1 58.4 283.8 58.0Q283.4 57.7 282.9 57.7L282.9 57.7Q282.3 57.7 282.0 58.0Q281.6 58.4 281.6 59.1L281.6 59.1ZM283.2 52.1L277.7 61.0L276.9 60.5L282.4 51.6L283.2 52.1Z "/><mask id="satori_om-id-1-4"><rect x="0" y="76" width="103" height="18" fill="#fff"/></mask><mask id="satori_om-id-1-4-0"><rect x="0" y="77" width="16" height="16" fill="#fff"/></mask><mask id="satori_om-id-1-4-0-0"><rect x="4" y="81" width="8" height="8" fill="#fff"/></mask><path x="4" y="81" width="8" height="8" fill="#663399" d="M8,81 h0 a4,4 0 0 1 4,4 v0 a4,4 0 0 1 -4,4 h0 a4,4 0 0 1 -4,-4 v0 a4,4 0 0 1 4,-4"/><mask id="satori_om-id-1-4-1"><rect x="29" y="76" width="31" height="18" fill="#fff"/></mask><path fill="#fff" d="M36.6 87.1L38.9 87.1Q38.8 88.9 37.6 89.9Q36.4 91 34.4 91L34.4 91Q32.2 91 30.9 89.5Q29.7 88.1 29.7 85.5L29.7 85.5L29.7 84.8Q29.7 83.1 30.3 81.9Q30.8 80.6 31.9 80.0Q33.0 79.3 34.4 79.3L34.4 79.3Q36.4 79.3 37.6 80.4Q38.8 81.4 39.0 83.3L39.0 83.3L36.6 83.3Q36.5 82.2 36.0 81.7Q35.5 81.2 34.4 81.2L34.4 81.2Q33.2 81.2 32.6 82.1Q32.1 82.9 32.0 84.7L32.0 84.7L32.0 85.5Q32.0 87.4 32.6 88.2Q33.2 89.1 34.4 89.1L34.4 89.1Q35.5 89.1 36.0 88.6Q36.5 88.1 36.6 87.1L36.6 87.1ZM46.4 87.9L46.4 87.9Q46.4 87.2 45.9 86.8Q45.4 86.5 44.2 86.1Q43.0 85.7 42.3 85.3L42.3 85.3Q40.4 84.3 40.4 82.5L40.4 82.5Q40.4 81.6 40.9 80.8Q41.4 80.1 42.4 79.7Q43.3 79.3 44.6 79.3L44.6 79.3Q45.8 79.3 46.7 79.8Q47.7 80.2 48.2 81Q48.7 81.8 48.7 82.8L48.7 82.8L46.4 82.8Q46.4 82.0 45.9 81.6Q45.4 81.2 44.5 81.2L44.5 81.2Q43.7 81.2 43.2 81.5Q42.7 81.9 42.7 82.5L42.7 82.5Q42.7 83.1 43.3 83.4Q43.8 83.8 44.9 84.1L44.9 84.1Q46.9 84.7 47.8 85.6Q48.7 86.5 48.7 87.8L48.7 87.8Q48.7 89.3 47.6 90.2Q46.5 91 44.6 91L44.6 91Q43.3 91 42.2 90.5Q41.1 90.0 40.6 89.2Q40.0 88.4 40.0 87.3L40.0 87.3L42.4 87.3Q42.4 89.1 44.6 89.1L44.6 89.1Q45.4 89.1 45.9 88.8Q46.4 88.5 46.4 87.9ZM56.2 87.9L56.2 87.9Q56.2 87.2 55.8 86.8Q55.3 86.5 54.1 86.1Q52.8 85.7 52.1 85.3L52.1 85.3Q50.2 84.3 50.2 82.5L50.2 82.5Q50.2 81.6 50.7 80.8Q51.2 80.1 52.2 79.7Q53.2 79.3 54.4 79.3L54.4 79.3Q55.6 79.3 56.6 79.8Q57.5 80.2 58.0 81Q58.6 81.8 58.6 82.8L58.6 82.8L56.2 82.8Q56.2 82.0 55.7 81.6Q55.2 81.2 54.4 81.2L54.4 81.2Q53.5 81.2 53.0 81.5Q52.5 81.9 52.5 82.5L52.5 82.5Q52.5 83.1 53.1 83.4Q53.7 83.8 54.7 84.1L54.7 84.1Q56.7 84.7 57.7 85.6Q58.6 86.5 58.6 87.8L58.6 87.8Q58.6 89.3 57.5 90.2Q56.3 91 54.4 91L54.4 91Q53.1 91 52.1 90.5Q51.0 90.0 50.4 89.2Q49.8 88.4 49.8 87.3L49.8 87.3L52.2 87.3Q52.2 89.1 54.4 89.1L54.4 89.1Q55.3 89.1 55.8 88.8Q56.2 88.5 56.2 87.9Z "/><mask id="satori_om-id-1-4-2"><rect x="69" y="76" width="34" height="18" fill="#fff"/></mask><path fill="#7d8590" d="M75.4 79.5L75.6 79.5L75.6 80.7L75.4 80.7Q73.7 80.7 72.7 81.7Q71.7 82.7 71.5 84.4L71.5 84.4Q72.4 83.4 74.0 83.4L74.0 83.4Q75.4 83.4 76.3 84.4Q77.2 85.5 77.2 87.1L77.2 87.1Q77.2 88.9 76.3 89.9Q75.3 91 73.7 91L73.7 91Q72.1 91 71.0 89.7Q70.0 88.5 70.0 86.5L70.0 86.5L70.0 86.0Q70.0 82.8 71.4 81.2Q72.7 79.5 75.4 79.5L75.4 79.5ZM73.7 84.6L73.7 84.6Q73.0 84.6 72.4 85.0Q71.7 85.5 71.5 86.1L71.5 86.1L71.5 86.7Q71.5 88.1 72.1 88.9Q72.8 89.8 73.7 89.8L73.7 89.8Q74.7 89.8 75.2 89.1Q75.8 88.4 75.8 87.2L75.8 87.2Q75.8 86.0 75.2 85.3Q74.7 84.6 73.7 84.6ZM79.1 90.1L79.1 90.1Q79.1 89.7 79.3 89.5Q79.6 89.2 80 89.2Q80.4 89.2 80.7 89.5Q80.9 89.7 80.9 90.1L80.9 90.1Q80.9 90.4 80.7 90.7Q80.4 90.9 80 90.9Q79.6 90.9 79.3 90.7Q79.1 90.4 79.1 90.1ZM90.6 89.7L90.6 90.8L83.1 90.8L83.1 89.8L87.1 85.4Q88.0 84.4 88.3 83.8Q88.6 83.2 88.6 82.5L88.6 82.5Q88.6 81.6 88.1 81.1Q87.5 80.5 86.6 80.5L86.6 80.5Q85.6 80.5 85.0 81.1Q84.4 81.7 84.4 82.8L84.4 82.8L82.9 82.8Q82.9 81.3 83.9 80.3Q84.9 79.3 86.6 79.3L86.6 79.3Q88.2 79.3 89.1 80.1Q90.1 81.0 90.1 82.4L90.1 82.4Q90.1 84.0 87.9 86.4L87.9 86.4L84.9 89.7L90.6 89.7ZM92 82.2L92 81.7Q92 80.6 92.7 80.0Q93.3 79.3 94.3 79.3L94.3 79.3Q95.4 79.3 96.0 80.0Q96.7 80.6 96.7 81.7L96.7 81.7L96.7 82.3Q96.7 83.3 96.0 83.9Q95.4 84.6 94.3 84.6L94.3 84.6Q93.3 84.6 92.7 83.9Q92 83.3 92 82.2L92 82.2ZM93.1 81.7L93.1 82.3Q93.1 82.9 93.4 83.3Q93.8 83.7 94.3 83.7L94.3 83.7Q94.9 83.7 95.2 83.3Q95.6 82.9 95.6 82.2L95.6 82.2L95.6 81.7Q95.6 81.0 95.2 80.6Q94.9 80.3 94.3 80.3Q93.8 80.3 93.4 80.6Q93.1 81.0 93.1 81.7L93.1 81.7ZM97.5 88.6L97.5 88.1Q97.5 87.0 98.2 86.4Q98.8 85.7 99.9 85.7Q100.9 85.7 101.5 86.4Q102.2 87.0 102.2 88.1L102.2 88.1L102.2 88.7Q102.2 89.7 101.6 90.3Q100.9 91.0 99.9 91.0Q98.9 91.0 98.2 90.4Q97.5 89.7 97.5 88.6L97.5 88.6ZM98.6 88.1L98.6 88.7Q98.6 89.3 99.0 89.7Q99.3 90.1 99.9 90.1L99.9 90.1Q100.4 90.1 100.8 89.7Q101.1 89.3 101.1 88.6L101.1 88.6L101.1 88.1Q101.1 87.4 100.8 87.0Q100.4 86.7 99.9 86.7L99.9 86.7Q99.3 86.7 99.0 87.0Q98.6 87.4 98.6 88.1L98.6 88.1ZM100.2 81.1L94.7 90.0L93.9 89.5L99.4 80.6L100.2 81.1Z "/><mask id="satori_om-id-1-5"><rect x="113" y="76" width="105" height="18" fill="#fff"/></mask><mask id="satori_om-id-1-5-0"><rect x="113" y="77" width="16" height="16" fill="#fff"/></mask><mask id="satori_om-id-1-5-0-0"><rect x="117" y="81" width="8" height="8" fill="#fff"/></mask><path x="117" y="81" width="8" height="8" fill="#dea584" d="M121,81 h0 a4,4 0 0 1 4,4 v0 a4,4 0 0 1 -4,4 h0 a4,4 0 0 1 -4,-4 v0 a4,4 0 0 1 4,-4"/><mask id="satori_om-id-1-5-1"><rect x="142" y="76" width="33" height="18" fill="#fff"/></mask><path fill="#fff" d="M149.4 90.8L147.2 86.7L145.4 86.7L145.4 90.8L143.0 90.8L143.0 79.5L147.2 79.5Q149.3 79.5 150.4 80.4Q151.4 81.3 151.4 82.9L151.4 82.9Q151.4 84.1 150.9 84.8Q150.4 85.6 149.4 86.1L149.4 86.1L151.9 90.7L151.9 90.8L149.4 90.8ZM145.4 81.4L145.4 84.8L147.3 84.8Q148.1 84.8 148.6 84.3Q149.1 83.9 149.1 83.1L149.1 83.1Q149.1 82.3 148.6 81.8Q148.2 81.4 147.2 81.4L147.2 81.4L145.4 81.4ZM158.2 90.8L158.1 90.0Q157.3 91 155.8 91L155.8 91Q154.5 91 153.8 90.2Q153.0 89.4 153.0 87.9L153.0 87.9L153.0 82.4L155.3 82.4L155.3 87.9Q155.3 89.2 156.5 89.2L156.5 89.2Q157.6 89.2 158.1 88.4L158.1 88.4L158.1 82.4L160.3 82.4L160.3 90.8L158.2 90.8ZM166.6 88.5L166.6 88.5Q166.6 88.1 166.2 87.9Q165.8 87.6 164.9 87.4L164.9 87.4Q161.9 86.8 161.9 84.9L161.9 84.9Q161.9 83.7 162.8 83.0Q163.7 82.2 165.2 82.2L165.2 82.2Q166.9 82.2 167.8 83.0Q168.8 83.8 168.8 85.0L168.8 85.0L166.5 85.0Q166.5 84.5 166.2 84.2Q165.9 83.8 165.2 83.8L165.2 83.8Q164.7 83.8 164.4 84.1Q164.0 84.4 164.0 84.8L164.0 84.8Q164.0 85.1 164.4 85.4Q164.8 85.6 165.6 85.8Q166.4 85.9 167.0 86.1L167.0 86.1Q168.8 86.8 168.8 88.4L168.8 88.4Q168.8 89.6 167.8 90.3Q166.8 91 165.3 91L165.3 91Q164.2 91 163.4 90.6Q162.5 90.2 162.1 89.6Q161.6 88.9 161.6 88.2L161.6 88.2L163.7 88.2Q163.8 88.8 164.2 89.1Q164.6 89.4 165.3 89.4L165.3 89.4Q165.9 89.4 166.3 89.2Q166.6 88.9 166.6 88.5ZM170.7 80.3L173.0 80.3L173.0 82.4L174.4 82.4L174.4 84.0L173.0 84.0L173.0 88.3Q173.0 88.7 173.1 88.9Q173.3 89.1 173.8 89.1L173.8 89.1Q174.2 89.1 174.5 89.1L174.5 89.1L174.5 90.8Q173.8 91 173.1 91L173.1 91Q170.8 91 170.7 88.6L170.7 88.6L170.7 84.0L169.5 84.0L169.5 82.4L170.7 82.4L170.7 80.3Z "/><mask id="satori_om-id-1-5-2"><rect x="184" y="76" width="34" height="18" fill="#fff"/></mask><path fill="#7d8590" d="M187.0 85.6L187.0 84.5L188.1 84.5Q189.2 84.4 189.7 83.9Q190.3 83.4 190.3 82.5L190.3 82.5Q190.3 80.5 188.3 80.5L188.3 80.5Q187.4 80.5 186.8 81.0Q186.3 81.6 186.3 82.5L186.3 82.5L184.8 82.5Q184.8 81.1 185.8 80.2Q186.8 79.3 188.3 79.3L188.3 79.3Q189.9 79.3 190.9 80.2Q191.8 81.0 191.8 82.5L191.8 82.5Q191.8 83.3 191.3 84.0Q190.8 84.7 190.0 85.0L190.0 85.0Q190.9 85.3 191.4 86.0Q191.9 86.7 191.9 87.7L191.9 87.7Q191.9 89.2 190.9 90.1Q189.9 91 188.3 91Q186.7 91 185.7 90.1Q184.7 89.3 184.7 87.8L184.7 87.8L186.2 87.8Q186.2 88.7 186.8 89.3Q187.4 89.8 188.3 89.8L188.3 89.8Q189.4 89.8 189.9 89.3Q190.5 88.7 190.5 87.7L190.5 87.7Q190.5 86.7 189.9 86.2Q189.3 85.6 188.1 85.6L188.1 85.6L187.0 85.6ZM194.1 90.1L194.1 90.1Q194.1 89.7 194.3 89.5Q194.6 89.2 195 89.2Q195.4 89.2 195.7 89.5Q195.9 89.7 195.9 90.1L195.9 90.1Q195.9 90.4 195.7 90.7Q195.4 90.9 195 90.9Q194.6 90.9 194.3 90.7Q194.1 90.4 194.1 90.1ZM203.7 85.8L203.7 85.8Q203.2 86.4 202.6 86.7Q202.0 87.0 201.2 87.0L201.2 87.0Q200.2 87.0 199.5 86.6Q198.8 86.1 198.4 85.2Q198.0 84.3 198.0 83.3L198.0 83.3Q198.0 82.1 198.4 81.2Q198.8 80.3 199.6 79.8Q200.4 79.3 201.5 79.3L201.5 79.3Q203.2 79.3 204.2 80.6Q205.1 81.8 205.1 84.0L205.1 84.0L205.1 84.4Q205.1 87.8 203.8 89.3Q202.5 90.8 199.9 90.9L199.9 90.9L199.6 90.9L199.6 89.6L199.9 89.6Q201.7 89.6 202.6 88.7Q203.6 87.8 203.7 85.8ZM201.5 85.8L201.5 85.8Q202.2 85.8 202.8 85.4Q203.4 85.0 203.7 84.3L203.7 84.3L203.7 83.7Q203.7 82.3 203.1 81.4Q202.5 80.5 201.5 80.5L201.5 80.5Q200.6 80.5 200.0 81.2Q199.4 82.0 199.4 83.2L199.4 83.2Q199.4 84.3 200.0 85.1Q200.5 85.8 201.5 85.8ZM207 82.2L207 81.7Q207 80.6 207.7 80.0Q208.3 79.3 209.3 79.3L209.3 79.3Q210.4 79.3 211.0 80.0Q211.7 80.6 211.7 81.7L211.7 81.7L211.7 82.3Q211.7 83.3 211.0 83.9Q210.4 84.6 209.3 84.6L209.3 84.6Q208.3 84.6 207.7 83.9Q207 83.3 207 82.2L207 82.2ZM208.1 81.7L208.1 82.3Q208.1 82.9 208.4 83.3Q208.8 83.7 209.3 83.7L209.3 83.7Q209.9 83.7 210.2 83.3Q210.6 82.9 210.6 82.2L210.6 82.2L210.6 81.7Q210.6 81.0 210.2 80.6Q209.9 80.3 209.3 80.3Q208.8 80.3 208.4 80.6Q208.1 81.0 208.1 81.7L208.1 81.7ZM212.5 88.6L212.5 88.1Q212.5 87.0 213.2 86.4Q213.8 85.7 214.9 85.7Q215.9 85.7 216.5 86.4Q217.2 87.0 217.2 88.1L217.2 88.1L217.2 88.7Q217.2 89.7 216.6 90.3Q215.9 91.0 214.9 91.0Q213.9 91.0 213.2 90.4Q212.5 89.7 212.5 88.6L212.5 88.6ZM213.6 88.1L213.6 88.7Q213.6 89.3 214.0 89.7Q214.3 90.1 214.9 90.1L214.9 90.1Q215.4 90.1 215.8 89.7Q216.1 89.3 216.1 88.6L216.1 88.6L216.1 88.1Q216.1 87.4 215.8 87.0Q215.4 86.7 214.9 86.7L214.9 86.7Q214.3 86.7 214.0 87.0Q213.6 87.4 213.6 88.1L213.6 88.1ZM215.2 81.1L209.7 90.0L208.9 89.5L214.4 80.6L215.2 81.1Z "/><mask id="satori_om-id-1-6"><rect x="228" y="76" width="92" height="18" fill="#fff"/></mask><mask id="satori_om-id-1-6-0"><rect x="228" y="77" width="16" height="16" fill="#fff"/></mask><mask id="satori_om-id-1-6-0-0"><rect x="232" y="81" width="8" height="8" fill="#fff"/></mask><path x="232" y="81" width="8" height="8" fill="#00ADD8" d="M236,81 h0 a4,4 0 0 1 4,4 v0 a4,4 0 0 1 -4,4 h0 a4,4 0 0 1 -4,-4 v0 a4,4 0 0 1 4,-4"/><mask id="satori_om-id-1-6-1"><rect x="257" y="76" width="20" height="18" fill="#fff"/></mask><path fill="#fff" d="M267.0 84.9L267.0 89.4Q266.4 90.2 265.2 90.6Q264.1 91 262.7 91L262.7 91Q261.2 91 260.1 90.4Q259.0 89.7 258.4 88.5Q257.8 87.3 257.7 85.6L257.7 85.6L257.7 84.8Q257.7 83.1 258.3 81.9Q258.9 80.6 260.0 80.0Q261.0 79.3 262.5 79.3L262.5 79.3Q264.5 79.3 265.7 80.3Q266.8 81.2 267.0 83.1L267.0 83.1L264.7 83.1Q264.6 82.1 264.0 81.7Q263.5 81.2 262.6 81.2L262.6 81.2Q261.4 81.2 260.8 82.1Q260.1 83 260.1 84.8L260.1 84.8L260.1 85.5Q260.1 87.3 260.8 88.2Q261.5 89.1 262.8 89.1L262.8 89.1Q264.1 89.1 264.7 88.6L264.7 88.6L264.7 86.6L262.5 86.6L262.5 84.9L267.0 84.9ZM268.4 86.6L268.4 86.5Q268.4 85.3 268.9 84.3Q269.4 83.3 270.3 82.8Q271.2 82.2 272.4 82.2L272.4 82.2Q274.1 82.2 275.2 83.3Q276.3 84.3 276.4 86.1L276.4 86.1L276.4 86.7Q276.4 88.6 275.3 89.8Q274.3 91 272.4 91Q270.6 91 269.5 89.8Q268.4 88.7 268.4 86.6L268.4 86.6ZM270.7 86.7L270.7 86.7Q270.7 87.9 271.1 88.5Q271.6 89.2 272.4 89.2L272.4 89.2Q273.2 89.2 273.7 88.6Q274.2 87.9 274.2 86.5L274.2 86.5Q274.2 85.4 273.7 84.7Q273.2 84.1 272.4 84.1L272.4 84.1Q271.6 84.1 271.1 84.7Q270.7 85.4 270.7 86.7Z "/><mask id="satori_om-id-1-6-2"><rect x="286" y="76" width="34" height="18" fill="#fff"/></mask><path fill="#7d8590" d="M294.4 89.7L294.4 90.8L286.9 90.8L286.9 89.8L290.9 85.4Q291.8 84.4 292.1 83.8Q292.4 83.2 292.4 82.5L292.4 82.5Q292.4 81.6 291.9 81.1Q291.3 80.5 290.4 80.5L290.4 80.5Q289.4 80.5 288.8 81.1Q288.2 81.7 288.2 82.8L288.2 82.8L286.7 82.8Q286.7 81.3 287.7 80.3Q288.8 79.3 290.4 79.3L290.4 79.3Q292.0 79.3 293.0 80.1Q293.9 81.0 293.9 82.4L293.9 82.4Q293.9 84.0 291.7 86.4L291.7 86.4L288.7 89.7L294.4 89.7ZM296.1 90.1L296.1 90.1Q296.1 89.7 296.3 89.5Q296.6 89.2 297 89.2Q297.4 89.2 297.7 89.5Q297.9 89.7 297.9 90.1L297.9 90.1Q297.9 90.4 297.7 90.7Q297.4 90.9 297 90.9Q296.6 90.9 296.3 90.7Q296.1 90.4 296.1 90.1ZM307.3 84.1L307.3 86.0Q307.3 88.5 306.4 89.8Q305.5 91 303.7 91L303.7 91Q301.9 91 301 89.8Q300.1 88.6 300.1 86.2L300.1 86.2L300.1 84.3Q300.1 81.8 301.0 80.5Q301.8 79.3 303.7 79.3L303.7 79.3Q305.5 79.3 306.4 80.5Q307.3 81.7 307.3 84.1L307.3 84.1ZM305.8 86.4L305.8 84.0Q305.8 82.2 305.3 81.3Q304.8 80.5 303.7 80.5L303.7 80.5Q302.6 80.5 302.1 81.3Q301.6 82.2 301.5 83.9L301.5 83.9L301.5 86.2Q301.5 88.1 302.1 88.9Q302.6 89.8 303.7 89.8L303.7 89.8Q304.8 89.8 305.3 89.0Q305.8 88.2 305.8 86.4L305.8 86.4ZM309 82.2L309 81.7Q309 80.6 309.7 80.0Q310.3 79.3 311.3 79.3L311.3 79.3Q312.4 79.3 313.0 80.0Q313.7 80.6 313.7 81.7L313.7 81.7L313.7 82.3Q313.7 83.3 313.0 83.9Q312.4 84.6 311.3 84.6L311.3 84.6Q310.3 84.6 309.7 83.9Q309 83.3 309 82.2L309 82.2ZM310.1 81.7L310.1 82.3Q310.1 82.9 310.4 83.3Q310.8 83.7 311.3 83.7L311.3 83.7Q311.9 83.7 312.2 83.3Q312.6 82.9 312.6 82.2L312.6 82.2L312.6 81.7Q312.6 81.0 312.2 80.6Q311.9 80.3 311.3 80.3Q310.8 80.3 310.4 80.6Q310.1 81.0 310.1 81.7L310.1 81.7ZM314.5 88.6L314.5 88.1Q314.5 87.0 315.2 86.4Q315.8 85.7 316.9 85.7Q317.9 85.7 318.5 86.4Q319.2 87.0 319.2 88.1L319.2 88.1L319.2 88.7Q319.2 89.7 318.6 90.3Q317.9 91.0 316.9 91.0Q315.9 91.0 315.2 90.4Q314.5 89.7 314.5 88.6L314.5 88.6ZM315.6 88.1L315.6 88.7Q315.6 89.3 316.0 89.7Q316.3 90.1 316.9 90.1L316.9 90.1Q317.4 90.1 317.8 89.7Q318.1 89.3 318.1 88.6L318.1 88.6L318.1 88.1Q318.1 87.4 317.8 87.0Q317.4 86.7 316.9 86.7L316.9 86.7Q316.3 86.7 316.0 87.0Q315.6 87.4 315.6 88.1L315.6 88.1ZM317.2 81.1L311.7 90.0L310.9 89.5L316.4 80.6L317.2 81.1Z "/><mask id="satori_om-id-1-7"><rect x="0" y="104" width="146" height="19" fill="#fff"/></mask><mask id="satori_om-id-1-7-0"><rect x="0" y="105" width="16" height="16" fill="#fff"/></mask><mask id="satori_om-id-1-7-0-0"><rect x="4" y="109" width="8" height="8" fill="#fff"/></mask><path x="4" y="109" width="8" height="8" fill="#384d54" d="M8,109 h0 a4,4 0 0 1 4,4 v0 a4,4 0 0 1 -4,4 h0 a4,4 0 0 1 -4,-4 v0 a4,4 0 0 1 4,-4"/><mask id="satori_om-id-1-7-1"><rect x="29" y="104" width="74" height="19" fill="#fff"/></mask><path fill="#fff" d="M33.5 118.8L30.0 118.8L30.0 107.5L33.5 107.5Q35.0 107.5 36.2 108.1Q37.4 108.8 38.0 110.1Q38.7 111.3 38.7 112.9L38.7 112.9L38.7 113.4Q38.7 115.0 38.1 116.2Q37.4 117.5 36.2 118.2Q35.0 118.8 33.5 118.8L33.5 118.8ZM33.5 109.4L32.4 109.4L32.4 117.0L33.5 117.0Q34.9 117.0 35.6 116.1Q36.3 115.2 36.3 113.5L36.3 113.5L36.3 112.9Q36.3 111.2 35.6 110.3Q34.9 109.4 33.5 109.4L33.5 109.4ZM39.9 114.6L39.9 114.5Q39.9 113.3 40.4 112.3Q40.9 111.3 41.8 110.8Q42.7 110.2 43.9 110.2L43.9 110.2Q45.6 110.2 46.7 111.3Q47.8 112.3 47.9 114.1L47.9 114.1L47.9 114.7Q47.9 116.6 46.8 117.8Q45.8 119 43.9 119Q42.1 119 41.0 117.8Q39.9 116.7 39.9 114.6L39.9 114.6ZM42.2 114.7L42.2 114.7Q42.2 115.9 42.6 116.5Q43.1 117.2 43.9 117.2L43.9 117.2Q44.7 117.2 45.2 116.6Q45.7 115.9 45.7 114.5L45.7 114.5Q45.7 113.4 45.2 112.7Q44.7 112.1 43.9 112.1L43.9 112.1Q43.1 112.1 42.6 112.7Q42.2 113.4 42.2 114.7ZM52.8 117.2L52.8 117.2Q53.5 117.2 53.8 116.8Q54.2 116.5 54.3 115.9L54.3 115.9L56.4 115.9Q56.4 116.8 55.9 117.5Q55.4 118.2 54.6 118.6Q53.8 119 52.9 119L52.9 119Q51.1 119 50.0 117.8Q49.0 116.7 49.0 114.7L49.0 114.7L49.0 114.5Q49.0 112.6 50 111.4Q51.0 110.2 52.9 110.2L52.9 110.2Q54.4 110.2 55.4 111.1Q56.4 112.0 56.4 113.5L56.4 113.5L54.3 113.5Q54.2 112.9 53.8 112.5Q53.5 112.1 52.8 112.1L52.8 112.1Q52.0 112.1 51.6 112.6Q51.2 113.2 51.2 114.5L51.2 114.5L51.2 114.7Q51.2 116.0 51.6 116.6Q52.0 117.2 52.8 117.2ZM62.9 118.8L60.7 115.5L59.9 116.3L59.9 118.8L57.7 118.8L57.7 106.8L59.9 106.8L59.9 113.5L60.4 112.9L62.5 110.4L65.2 110.4L62.2 113.9L65.5 118.8L62.9 118.8ZM69.9 119L69.9 119Q68.1 119 66.9 117.9Q65.7 116.7 65.7 114.8L65.7 114.8L65.7 114.6Q65.7 113.3 66.2 112.3Q66.7 111.3 67.6 110.8Q68.5 110.2 69.7 110.2L69.7 110.2Q71.4 110.2 72.4 111.3Q73.4 112.4 73.4 114.4L73.4 114.4L73.4 115.4L68.0 115.4Q68.1 116.2 68.7 116.7Q69.2 117.2 70.1 117.2L70.1 117.2Q71.4 117.2 72.1 116.2L72.1 116.2L73.2 117.5Q72.7 118.2 71.9 118.6Q71.0 119 69.9 119ZM69.7 112.1L69.7 112.1Q69.0 112.1 68.6 112.5Q68.2 113.0 68.1 113.8L68.1 113.8L71.2 113.8L71.2 113.6Q71.2 112.9 70.8 112.5Q70.4 112.1 69.7 112.1ZM79.5 110.3L79.4 112.5Q79.0 112.4 78.6 112.4L78.6 112.4Q77.4 112.4 77.0 113.3L77.0 113.3L77.0 118.8L74.7 118.8L74.7 110.4L76.8 110.4L76.9 111.4Q77.6 110.2 78.8 110.2L78.8 110.2Q79.1 110.2 79.5 110.3L79.5 110.3ZM83.6 118.8L81.3 118.8L81.3 112.0L80.0 112.0L80.0 110.4L81.3 110.4L81.3 109.7Q81.3 108.3 82.1 107.5Q82.9 106.7 84.4 106.7L84.4 106.7Q84.9 106.7 85.6 106.8L85.6 106.8L85.5 108.6Q85.3 108.5 84.8 108.5L84.8 108.5Q83.6 108.5 83.6 109.7L83.6 109.7L83.6 110.4L85.3 110.4L85.3 112.0L83.6 112.0L83.6 118.8ZM88.8 110.4L88.8 118.8L86.5 118.8L86.5 110.4L88.8 110.4ZM86.4 108.2L86.4 108.2Q86.4 107.7 86.7 107.4Q87.1 107.0 87.7 107.0L87.7 107.0Q88.3 107.0 88.6 107.4Q88.9 107.7 88.9 108.2L88.9 108.2Q88.9 108.7 88.6 109.0Q88.2 109.4 87.7 109.4Q87.1 109.4 86.8 109.0Q86.4 108.7 86.4 108.2ZM93.0 106.8L93.0 118.8L90.8 118.8L90.8 106.8L93.0 106.8ZM98.8 119L98.8 119Q96.9 119 95.8 117.9Q94.6 116.7 94.6 114.8L94.6 114.8L94.6 114.6Q94.6 113.3 95.1 112.3Q95.6 111.3 96.5 110.8Q97.4 110.2 98.5 110.2L98.5 110.2Q100.3 110.2 101.3 111.3Q102.3 112.4 102.3 114.4L102.3 114.4L102.3 115.4L96.9 115.4Q97 116.2 97.6 116.7Q98.1 117.2 98.9 117.2L98.9 117.2Q100.3 117.2 101.0 116.2L101.0 116.2L102.1 117.5Q101.6 118.2 100.7 118.6Q99.9 119 98.8 119ZM98.5 112.1L98.5 112.1Q97.9 112.1 97.4 112.5Q97.0 113.0 96.9 113.8L96.9 113.8L100.1 113.8L100.1 113.6Q100.0 112.9 99.6 112.5Q99.3 112.1 98.5 112.1Z "/><mask id="satori_om-id-1-7-2"><rect x="112" y="104" width="34" height="19" fill="#fff"/></mask><path fill="#7d8590" d="M120.1 112.1L120.1 114.0Q120.1 116.5 119.2 117.8Q118.3 119 116.5 119L116.5 119Q114.7 119 113.8 117.8Q112.9 116.6 112.9 114.2L112.9 114.2L112.9 112.3Q112.9 109.8 113.8 108.5Q114.6 107.3 116.5 107.3L116.5 107.3Q118.3 107.3 119.2 108.5Q120.1 109.7 120.1 112.1L120.1 112.1ZM118.6 114.4L118.6 112.0Q118.6 110.2 118.1 109.3Q117.6 108.5 116.5 108.5L116.5 108.5Q115.4 108.5 114.9 109.3Q114.4 110.2 114.3 111.9L114.3 111.9L114.3 114.2Q114.3 116.1 114.9 116.9Q115.4 117.8 116.5 117.8L116.5 117.8Q117.6 117.8 118.1 117.0Q118.6 116.2 118.6 114.4L118.6 114.4ZM122.1 118.1L122.1 118.1Q122.1 117.7 122.3 117.5Q122.6 117.2 123 117.2Q123.4 117.2 123.7 117.5Q123.9 117.7 123.9 118.1L123.9 118.1Q123.9 118.4 123.7 118.7Q123.4 118.9 123 118.9Q122.6 118.9 122.3 118.7Q122.1 118.4 122.1 118.1ZM133.0 110.4L133.0 110.4Q133.0 111.3 132.6 112.0Q132.1 112.6 131.4 113.0L131.4 113.0Q132.3 113.4 132.8 114.1Q133.3 114.8 133.3 115.8L133.3 115.8Q133.3 117.3 132.3 118.1Q131.3 119 129.7 119L129.7 119Q128.0 119 127.1 118.1Q126.1 117.2 126.1 115.8L126.1 115.8Q126.1 114.9 126.6 114.1Q127.1 113.4 128.0 113.0L128.0 113.0Q127.2 112.6 126.8 111.9Q126.3 111.3 126.3 110.4L126.3 110.4Q126.3 109 127.3 108.2Q128.2 107.3 129.7 107.3L129.7 107.3Q131.2 107.3 132.1 108.2Q133.0 109 133.0 110.4ZM131.9 115.7L131.9 115.7Q131.9 114.8 131.3 114.2Q130.6 113.6 129.7 113.6Q128.7 113.6 128.1 114.2Q127.5 114.8 127.5 115.7Q127.5 116.7 128.1 117.3Q128.7 117.8 129.7 117.8L129.7 117.8Q130.7 117.8 131.3 117.3Q131.9 116.7 131.9 115.7ZM129.7 108.5L129.7 108.5Q128.8 108.5 128.3 109.0Q127.8 109.6 127.8 110.5L127.8 110.5Q127.8 111.3 128.3 111.9Q128.8 112.4 129.7 112.4Q130.6 112.4 131.1 111.9Q131.6 111.3 131.6 110.5Q131.6 109.6 131.1 109.0Q130.5 108.5 129.7 108.5ZM135 110.2L135 109.7Q135 108.6 135.7 108.0Q136.3 107.3 137.3 107.3L137.3 107.3Q138.4 107.3 139.0 108.0Q139.7 108.6 139.7 109.7L139.7 109.7L139.7 110.3Q139.7 111.3 139.0 111.9Q138.4 112.6 137.3 112.6L137.3 112.6Q136.3 112.6 135.7 111.9Q135 111.3 135 110.2L135 110.2ZM136.1 109.7L136.1 110.3Q136.1 110.9 136.4 111.3Q136.8 111.7 137.3 111.7L137.3 111.7Q137.9 111.7 138.2 111.3Q138.6 110.9 138.6 110.2L138.6 110.2L138.6 109.7Q138.6 109.0 138.2 108.6Q137.9 108.3 137.3 108.3Q136.8 108.3 136.4 108.6Q136.1 109.0 136.1 109.7L136.1 109.7ZM140.5 116.6L140.5 116.1Q140.5 115.0 141.2 114.4Q141.8 113.7 142.9 113.7Q143.9 113.7 144.5 114.4Q145.2 115.0 145.2 116.1L145.2 116.1L145.2 116.7Q145.2 117.7 144.6 118.3Q143.9 119.0 142.9 119.0Q141.9 119.0 141.2 118.4Q140.5 117.7 140.5 116.6L140.5 116.6ZM141.6 116.1L141.6 116.7Q141.6 117.3 142.0 117.7Q142.3 118.1 142.9 118.1L142.9 118.1Q143.4 118.1 143.8 117.7Q144.1 117.3 144.1 116.6L144.1 116.6L144.1 116.1Q144.1 115.4 143.8 115.0Q143.4 114.7 142.9 114.7L142.9 114.7Q142.3 114.7 142.0 115.0Q141.6 115.4 141.6 116.1L141.6 116.1ZM143.2 109.1L137.7 118.0L136.9 117.5L142.4 108.6L143.2 109.1Z "/></svg>